{"glyphs":{"0":{"ha":953,"x_min":101,"x_max":852,"o":"m 476 -12 q 199 112 297 -12 q 101 514 101 237 q 198 916 101 792 q 476 1040 295 1040 q 755 916 658 1040 q 852 514 852 792 q 754 112 852 237 q 476 -12 656 -12 m 476 45 q 643 89 575 45 q 749 235 712 132 q 787 511 787 338 q 749 791 787 688 q 643 939 712 895 q 476 983 575 983 q 309 939 378 983 q 203 793 241 896 q 166 517 166 690 q 203 236 166 340 q 309 89 241 133 q 476 45 378 45 z "},"1":{"ha":562,"x_min":19,"x_max":408,"o":"m 366 1031 l 408 1031 l 408 0 l 346 0 l 346 944 l 19 713 l 19 783 l 366 1031 z "},"2":{"ha":750,"x_min":43,"x_max":695,"o":"m 695 56 l 695 0 l 56 0 l 56 35 l 390 426 q 522 611 484 535 q 560 763 560 688 q 496 930 560 876 q 301 983 432 983 q 43 940 161 983 l 43 999 q 303 1040 153 1040 q 542 973 460 1040 q 624 767 624 905 q 607 651 624 706 q 548 534 589 596 q 435 389 508 472 l 148 56 l 695 56 z "},"3":{"ha":758,"x_min":44,"x_max":703,"o":"m 469 537 q 643 449 583 515 q 703 281 703 383 q 606 64 703 141 q 313 -12 510 -12 q 176 -1 247 -12 q 44 31 105 10 l 44 89 q 315 43 185 43 q 640 284 640 43 q 569 444 640 389 q 354 500 497 500 l 209 500 l 209 556 l 269 556 q 518 612 433 556 q 603 781 603 667 q 534 931 603 878 q 335 985 464 985 q 81 945 204 985 l 81 1003 q 339 1040 200 1040 q 516 1010 442 1040 q 628 922 590 979 q 667 784 667 864 q 614 629 667 692 q 469 537 562 566 z "},"4":{"ha":885,"x_min":40,"x_max":851,"o":"m 851 317 l 851 262 l 686 262 l 686 0 l 625 0 l 625 262 l 40 262 l 40 298 l 513 1028 l 582 1028 l 120 317 l 625 317 l 636 681 l 686 681 l 686 317 l 851 317 z "},"5":{"ha":770,"x_min":63,"x_max":722,"o":"m 272 581 q 534 536 435 571 q 678 441 633 502 q 722 288 722 380 q 623 64 722 141 q 332 -12 524 -12 q 195 -1 265 -12 q 63 32 124 11 l 63 89 q 199 55 129 67 q 334 44 268 44 q 578 105 497 44 q 660 288 660 165 q 622 412 660 363 q 495 488 583 460 q 255 524 406 516 l 111 533 l 147 1028 l 679 1028 l 679 973 l 205 973 l 176 586 l 272 581 z "},"6":{"ha":866,"x_min":105,"x_max":813,"o":"m 460 578 q 721 503 629 578 q 813 281 813 427 q 772 120 813 186 q 657 21 731 54 q 487 -12 584 -12 q 105 481 105 -12 q 220 900 105 760 q 558 1040 335 1040 q 765 1008 682 1040 l 765 951 q 667 976 722 968 q 561 984 613 984 q 267 864 365 984 q 169 497 169 743 q 304 557 225 535 q 460 578 383 578 m 487 43 q 679 102 608 43 q 750 280 750 162 q 674 462 750 401 q 453 523 599 523 q 303 502 381 523 q 169 440 225 481 q 256 137 176 231 q 487 43 337 43 z "},"7":{"ha":703,"x_min":11,"x_max":660,"o":"m 11 1028 l 660 1028 l 660 992 l 209 0 l 140 0 l 584 972 l 11 972 l 11 1028 z "},"8":{"ha":953,"x_min":88,"x_max":864,"o":"m 627 513 q 807 416 751 477 q 864 263 864 354 q 820 116 864 178 q 691 21 776 54 q 483 -12 605 -12 q 189 58 290 -12 q 88 262 88 128 q 143 430 88 360 q 299 538 197 500 q 168 635 209 576 q 128 777 128 694 q 169 918 128 858 q 288 1009 210 977 q 474 1040 365 1040 q 662 1009 583 1040 q 782 920 740 978 q 823 781 823 861 q 773 620 823 687 q 627 513 724 553 m 192 779 q 223 667 192 713 q 322 590 253 621 q 508 540 391 559 l 553 531 q 713 630 663 572 q 763 777 763 689 q 687 932 763 878 q 472 985 611 985 q 264 931 335 985 q 192 779 192 877 m 484 42 q 719 98 638 42 q 800 260 800 154 q 769 365 800 322 q 672 436 739 407 q 491 485 604 465 q 363 515 416 498 q 205 418 259 483 q 151 267 151 353 q 236 99 151 156 q 484 42 322 42 z "},"9":{"ha":866,"x_min":53,"x_max":761,"o":"m 379 1040 q 761 547 761 1040 q 646 128 761 268 q 308 -12 531 -12 q 101 19 184 -12 l 101 77 q 199 52 144 60 q 305 44 253 44 q 599 164 501 44 q 697 531 697 285 q 562 471 641 493 q 406 449 483 449 q 145 525 237 449 q 53 747 53 601 q 94 908 53 842 q 209 1007 135 974 q 379 1040 282 1040 m 116 748 q 192 566 116 626 q 413 505 267 505 q 563 526 485 505 q 697 588 641 547 q 610 891 690 797 q 379 985 529 985 q 187 925 258 985 q 116 748 116 866 z "},"\u0000":{"ha":0,"x_min":0,"x_max":0,"o":""},"\r":{"ha":382,"x_min":0,"x_max":0,"o":""}," ":{"ha":382,"x_min":0,"x_max":0,"o":""},"A":{"ha":1014,"x_min":32,"x_max":981,"o":"m 914 0 l 763 359 l 249 359 l 99 0 l 32 0 l 465 1028 l 549 1028 l 981 0 l 914 0 m 273 416 l 740 416 l 506 973 l 273 416 z "},"Á":{"ha":1014,"x_min":32,"x_max":981,"o":"m 914 0 l 763 359 l 249 359 l 99 0 l 32 0 l 465 1028 l 549 1028 l 981 0 l 914 0 m 273 416 l 740 416 l 506 973 l 273 416 m 476 1121 l 629 1312 l 704 1312 l 539 1121 l 476 1121 z "},"Ă":{"ha":1014,"x_min":32,"x_max":981,"o":"m 914 0 l 763 359 l 249 359 l 99 0 l 32 0 l 465 1028 l 549 1028 l 981 0 l 914 0 m 273 416 l 740 416 l 506 973 l 273 416 m 509 1129 q 344 1175 401 1129 q 278 1293 286 1220 l 328 1293 q 379 1207 337 1238 q 509 1176 421 1176 q 638 1207 597 1176 q 688 1293 678 1237 l 738 1293 q 673 1174 729 1219 q 509 1129 616 1129 z "},"Ắ":{"ha":1014,"x_min":32,"x_max":981,"o":"m 914 0 l 763 359 l 249 359 l 99 0 l 32 0 l 465 1028 l 549 1028 l 981 0 l 914 0 m 273 416 l 740 416 l 506 973 l 273 416 m 479 1280 l 628 1454 l 697 1454 l 536 1280 l 479 1280 m 509 1129 q 345 1174 403 1129 q 280 1292 288 1219 l 328 1292 q 378 1205 337 1235 q 509 1175 420 1175 q 638 1205 597 1175 q 688 1292 678 1235 l 735 1292 q 671 1174 727 1218 q 509 1129 615 1129 z "},"Ặ":{"ha":1014,"x_min":32,"x_max":981,"o":"m 914 0 l 763 359 l 249 359 l 99 0 l 32 0 l 465 1028 l 549 1028 l 981 0 l 914 0 m 273 416 l 740 416 l 506 973 l 273 416 m 508 -222 q 470 -209 484 -222 q 457 -174 457 -196 q 470 -138 457 -151 q 508 -125 484 -125 q 545 -138 531 -125 q 558 -174 558 -151 q 545 -209 558 -196 q 508 -222 531 -222 m 509 1129 q 344 1175 401 1129 q 278 1293 286 1220 l 328 1293 q 379 1207 337 1238 q 509 1176 421 1176 q 638 1207 597 1176 q 688 1293 678 1237 l 738 1293 q 673 1174 729 1219 q 509 1129 616 1129 z "},"Ằ":{"ha":1014,"x_min":32,"x_max":981,"o":"m 914 0 l 763 359 l 249 359 l 99 0 l 32 0 l 465 1028 l 549 1028 l 981 0 l 914 0 m 273 416 l 740 416 l 506 973 l 273 416 m 479 1280 l 318 1454 l 387 1454 l 536 1280 l 479 1280 m 506 1129 q 344 1174 400 1129 q 280 1292 288 1218 l 328 1292 q 377 1205 337 1235 q 506 1175 418 1175 q 637 1205 595 1175 q 688 1292 678 1235 l 735 1292 q 670 1174 727 1219 q 506 1129 613 1129 z "},"Ẳ":{"ha":1014,"x_min":32,"x_max":981,"o":"m 914 0 l 763 359 l 249 359 l 99 0 l 32 0 l 465 1028 l 549 1028 l 981 0 l 914 0 m 273 416 l 740 416 l 506 973 l 273 416 m 481 1280 q 502 1323 483 1308 q 557 1351 522 1338 q 597 1370 585 1362 q 609 1393 609 1378 q 589 1420 609 1410 q 519 1429 569 1429 q 443 1424 476 1429 q 369 1405 410 1419 l 369 1445 q 521 1469 433 1469 q 623 1449 590 1469 q 656 1394 656 1428 q 639 1353 656 1367 q 589 1327 622 1340 q 548 1307 562 1316 q 533 1280 535 1297 l 481 1280 m 506 1129 q 344 1174 400 1129 q 280 1292 288 1218 l 328 1292 q 377 1205 337 1235 q 506 1175 418 1175 q 637 1205 595 1175 q 688 1292 678 1235 l 735 1292 q 670 1174 727 1219 q 506 1129 613 1129 z "},"Ẵ":{"ha":1014,"x_min":32,"x_max":981,"o":"m 914 0 l 763 359 l 249 359 l 99 0 l 32 0 l 465 1028 l 549 1028 l 981 0 l 914 0 m 273 416 l 740 416 l 506 973 l 273 416 m 614 1342 q 560 1349 585 1342 q 495 1369 534 1356 q 442 1387 463 1381 q 401 1392 422 1392 q 336 1381 365 1392 q 280 1344 307 1369 l 280 1395 q 401 1437 324 1437 q 456 1430 430 1437 q 520 1409 481 1423 q 573 1392 552 1397 q 614 1386 594 1386 q 679 1398 650 1386 q 735 1435 708 1410 l 735 1383 q 614 1342 691 1342 m 506 1129 q 344 1174 400 1129 q 280 1292 288 1218 l 328 1292 q 377 1205 337 1235 q 506 1175 418 1175 q 637 1205 595 1175 q 688 1292 678 1235 l 735 1292 q 670 1174 727 1219 q 506 1129 613 1129 z "},"Â":{"ha":1014,"x_min":32,"x_max":981,"o":"m 914 0 l 763 359 l 249 359 l 99 0 l 32 0 l 465 1028 l 549 1028 l 981 0 l 914 0 m 273 416 l 740 416 l 506 973 l 273 416 m 739 1121 l 665 1121 l 508 1275 l 351 1121 l 276 1121 l 475 1312 l 540 1312 l 739 1121 z "},"Ấ":{"ha":1014,"x_min":32,"x_max":981,"o":"m 914 0 l 763 359 l 249 359 l 99 0 l 32 0 l 465 1028 l 549 1028 l 981 0 l 914 0 m 273 416 l 740 416 l 506 973 l 273 416 m 833 1433 l 901 1433 l 740 1246 l 683 1246 l 833 1433 m 475 1310 l 540 1310 l 739 1121 l 665 1121 l 508 1274 l 351 1121 l 276 1121 l 475 1310 z "},"Ậ":{"ha":1014,"x_min":32,"x_max":981,"o":"m 914 0 l 763 359 l 249 359 l 99 0 l 32 0 l 465 1028 l 549 1028 l 981 0 l 914 0 m 273 416 l 740 416 l 506 973 l 273 416 m 508 -222 q 470 -209 484 -222 q 457 -174 457 -196 q 470 -138 457 -151 q 508 -125 484 -125 q 545 -138 531 -125 q 558 -174 558 -151 q 545 -209 558 -196 q 508 -222 531 -222 m 739 1121 l 665 1121 l 508 1275 l 351 1121 l 276 1121 l 475 1312 l 540 1312 l 739 1121 z "},"Ầ":{"ha":1014,"x_min":32,"x_max":981,"o":"m 914 0 l 763 359 l 249 359 l 99 0 l 32 0 l 465 1028 l 549 1028 l 981 0 l 914 0 m 273 416 l 740 416 l 506 973 l 273 416 m 755 1246 l 697 1246 l 536 1433 l 605 1433 l 755 1246 m 475 1310 l 540 1310 l 739 1121 l 665 1121 l 508 1274 l 351 1121 l 276 1121 l 475 1310 z "},"Ẩ":{"ha":1014,"x_min":32,"x_max":981,"o":"m 914 0 l 763 359 l 249 359 l 99 0 l 32 0 l 465 1028 l 549 1028 l 981 0 l 914 0 m 273 416 l 740 416 l 506 973 l 273 416 m 724 1435 q 825 1415 792 1435 q 858 1360 858 1394 q 849 1328 858 1341 q 827 1309 840 1316 q 791 1292 814 1301 q 750 1272 763 1281 q 735 1246 738 1263 l 684 1246 q 705 1289 685 1274 q 760 1317 724 1303 q 800 1336 788 1328 q 812 1359 812 1344 q 792 1386 812 1376 q 722 1395 772 1395 q 647 1390 680 1395 q 572 1371 614 1384 l 572 1411 q 724 1435 635 1435 m 475 1310 l 540 1310 l 739 1121 l 665 1121 l 508 1274 l 351 1121 l 276 1121 l 475 1310 z "},"Ẫ":{"ha":1014,"x_min":32,"x_max":981,"o":"m 914 0 l 763 359 l 249 359 l 99 0 l 32 0 l 465 1028 l 549 1028 l 981 0 l 914 0 m 273 416 l 740 416 l 506 973 l 273 416 m 617 1386 q 682 1398 653 1386 q 739 1435 712 1410 l 739 1383 q 616 1342 694 1342 q 560 1349 587 1342 q 496 1369 533 1356 q 442 1386 464 1381 q 399 1392 419 1392 q 333 1381 363 1392 q 276 1344 303 1369 l 276 1395 q 399 1437 321 1437 q 456 1430 428 1437 q 519 1410 483 1423 q 574 1392 551 1398 q 617 1386 596 1386 m 475 1310 l 540 1310 l 739 1121 l 665 1121 l 508 1274 l 351 1121 l 276 1121 l 475 1310 z "},"Ȁ":{"ha":1014,"x_min":32,"x_max":981,"o":"m 914 0 l 763 359 l 249 359 l 99 0 l 32 0 l 465 1028 l 549 1028 l 981 0 l 914 0 m 273 416 l 740 416 l 506 973 l 273 416 m 360 1121 l 245 1312 l 306 1312 l 417 1121 l 360 1121 m 599 1121 l 483 1312 l 544 1312 l 656 1121 l 599 1121 z "},"Ä":{"ha":1014,"x_min":32,"x_max":981,"o":"m 914 0 l 763 359 l 249 359 l 99 0 l 32 0 l 465 1028 l 549 1028 l 981 0 l 914 0 m 273 416 l 740 416 l 506 973 l 273 416 m 326 1169 q 290 1182 303 1169 q 276 1217 276 1195 q 290 1252 276 1239 q 326 1265 303 1265 q 361 1252 348 1265 q 375 1217 375 1239 q 361 1182 375 1195 q 326 1169 348 1169 m 690 1169 q 654 1182 667 1169 q 640 1217 640 1195 q 654 1252 640 1239 q 690 1265 667 1265 q 725 1252 712 1265 q 739 1217 739 1239 q 725 1182 739 1195 q 690 1169 712 1169 z "},"Ạ":{"ha":1014,"x_min":32,"x_max":981,"o":"m 914 0 l 763 359 l 249 359 l 99 0 l 32 0 l 465 1028 l 549 1028 l 981 0 l 914 0 m 273 416 l 740 416 l 506 973 l 273 416 m 508 -222 q 470 -209 484 -222 q 457 -174 457 -196 q 470 -138 457 -151 q 508 -125 484 -125 q 545 -138 531 -125 q 558 -174 558 -151 q 545 -209 558 -196 q 508 -222 531 -222 z "},"À":{"ha":1014,"x_min":32,"x_max":981,"o":"m 914 0 l 763 359 l 249 359 l 99 0 l 32 0 l 465 1028 l 549 1028 l 981 0 l 914 0 m 273 416 l 740 416 l 506 973 l 273 416 m 476 1121 l 310 1312 l 386 1312 l 540 1121 l 476 1121 z "},"Ả":{"ha":1014,"x_min":32,"x_max":981,"o":"m 914 0 l 763 359 l 249 359 l 99 0 l 32 0 l 465 1028 l 549 1028 l 981 0 l 914 0 m 273 416 l 740 416 l 506 973 l 273 416 m 481 1121 q 493 1155 482 1141 q 518 1176 504 1168 q 557 1193 533 1183 q 596 1211 583 1203 q 609 1235 609 1220 q 589 1262 609 1253 q 519 1272 569 1272 q 444 1266 477 1272 q 369 1247 411 1260 l 369 1288 q 521 1313 433 1313 q 623 1292 590 1313 q 656 1236 656 1272 q 646 1205 656 1217 q 624 1184 637 1192 q 589 1168 611 1177 q 548 1148 562 1157 q 533 1121 535 1138 l 481 1121 z "},"Ȃ":{"ha":1014,"x_min":32,"x_max":981,"o":"m 914 0 l 763 359 l 249 359 l 99 0 l 32 0 l 465 1028 l 549 1028 l 981 0 l 914 0 m 273 416 l 740 416 l 506 973 l 273 416 m 278 1140 q 343 1258 286 1213 q 506 1303 399 1303 q 672 1258 614 1303 q 738 1140 729 1213 l 688 1140 q 636 1226 678 1196 q 506 1256 594 1256 q 377 1226 418 1256 q 328 1140 337 1196 l 278 1140 z "},"Ā":{"ha":1014,"x_min":32,"x_max":981,"o":"m 914 0 l 763 359 l 249 359 l 99 0 l 32 0 l 465 1028 l 549 1028 l 981 0 l 914 0 m 273 416 l 740 416 l 506 973 l 273 416 m 294 1192 l 294 1241 l 722 1241 l 722 1192 l 294 1192 z "},"Ą":{"ha":1014,"x_min":32,"x_max":1074,"o":"m 942 -240 q 1001 -233 972 -240 q 1074 -211 1031 -226 l 1074 -253 q 942 -280 1006 -280 q 826 -248 867 -280 q 785 -160 785 -217 q 813 -69 785 -110 q 910 9 842 -28 l 763 359 l 249 359 l 99 0 l 32 0 l 465 1028 l 549 1028 l 981 0 q 865 -76 897 -39 q 832 -157 832 -112 q 860 -218 832 -197 q 942 -240 889 -240 m 273 416 l 740 416 l 506 973 l 273 416 z "},"Å":{"ha":1014,"x_min":32,"x_max":981,"o":"m 914 0 l 763 359 l 249 359 l 99 0 l 32 0 l 465 1028 l 549 1028 l 981 0 l 914 0 m 273 416 l 740 416 l 506 973 l 273 416 m 508 1118 q 441 1135 471 1118 q 395 1181 412 1151 q 378 1247 378 1210 q 395 1314 378 1284 q 441 1360 412 1343 q 508 1376 471 1376 q 574 1360 544 1376 q 620 1314 603 1343 q 637 1247 637 1284 q 620 1181 637 1210 q 574 1135 603 1151 q 508 1118 544 1118 m 508 1157 q 571 1181 547 1157 q 596 1247 596 1206 q 571 1313 596 1288 q 508 1337 547 1337 q 444 1313 469 1337 q 419 1247 419 1288 q 444 1181 419 1206 q 508 1157 469 1157 z "},"Ǻ":{"ha":1014,"x_min":32,"x_max":981,"o":"m 914 0 l 763 359 l 249 359 l 99 0 l 32 0 l 465 1028 l 549 1028 l 981 0 l 914 0 m 273 416 l 740 416 l 506 973 l 273 416 m 610 1329 q 637 1247 637 1294 q 620 1181 637 1210 q 574 1135 603 1151 q 508 1118 544 1118 q 441 1135 471 1118 q 395 1181 412 1151 q 378 1247 378 1210 q 395 1314 378 1284 q 441 1360 412 1343 q 508 1376 471 1376 q 577 1358 547 1376 l 671 1452 l 735 1452 l 610 1329 m 508 1157 q 571 1181 547 1157 q 596 1247 596 1206 q 571 1313 596 1288 q 508 1337 547 1337 q 444 1313 469 1337 q 419 1247 419 1288 q 444 1181 419 1206 q 508 1157 469 1157 z "},"Ã":{"ha":1014,"x_min":32,"x_max":981,"o":"m 914 0 l 763 359 l 249 359 l 99 0 l 32 0 l 465 1028 l 549 1028 l 981 0 l 914 0 m 273 416 l 740 416 l 506 973 l 273 416 m 620 1175 q 562 1182 590 1175 q 497 1203 534 1189 q 440 1220 462 1215 q 394 1226 417 1226 q 326 1215 355 1226 q 270 1178 297 1203 l 270 1231 q 322 1263 292 1253 q 395 1274 353 1274 q 453 1267 426 1274 q 519 1246 481 1260 q 576 1228 553 1234 q 621 1222 598 1222 q 690 1234 660 1222 q 745 1271 719 1245 l 745 1217 q 693 1185 724 1196 q 620 1175 663 1175 z "},"Æ":{"ha":1380,"x_min":32,"x_max":1306,"o":"m 770 57 l 1306 57 l 1306 0 l 710 0 l 681 359 l 251 359 l 99 0 l 32 0 l 472 1028 l 1299 1028 l 1299 971 l 691 971 l 727 557 l 1229 557 l 1229 500 l 732 500 l 770 57 m 276 416 l 676 416 l 629 971 l 511 971 l 276 416 z "},"Ǽ":{"ha":1380,"x_min":32,"x_max":1306,"o":"m 770 57 l 1306 57 l 1306 0 l 710 0 l 681 359 l 251 359 l 99 0 l 32 0 l 472 1028 l 1299 1028 l 1299 971 l 691 971 l 727 557 l 1229 557 l 1229 500 l 732 500 l 770 57 m 276 416 l 676 416 l 629 971 l 511 971 l 276 416 m 626 1121 l 779 1312 l 854 1312 l 689 1121 l 626 1121 z "},"B":{"ha":939,"x_min":147,"x_max":876,"o":"m 651 531 q 821 445 766 511 q 876 279 876 380 q 831 120 876 183 q 684 25 785 57 q 419 -8 583 -8 q 287 -3 349 -8 q 147 11 226 1 l 147 1009 q 291 1031 222 1024 q 446 1038 359 1038 q 750 970 654 1038 q 846 767 846 903 q 799 614 846 674 q 651 531 751 553 m 449 982 q 317 977 374 982 q 209 963 261 973 l 209 556 l 489 556 q 712 606 640 556 q 785 766 785 656 q 751 891 785 844 q 643 960 717 938 q 449 982 570 982 m 425 49 q 657 74 572 49 q 778 151 742 100 q 814 282 814 201 q 737 448 814 395 q 500 500 660 500 l 209 500 l 209 63 q 308 52 258 55 q 425 49 358 49 z "},"C":{"ha":892,"x_min":94,"x_max":853,"o":"m 581 -12 q 224 112 353 -12 q 94 513 94 236 q 225 910 94 780 q 593 1040 356 1040 q 727 1031 665 1040 q 853 1003 789 1022 l 853 944 q 593 983 724 983 q 272 870 383 983 q 160 515 160 758 q 270 154 160 263 q 583 45 381 45 q 718 56 655 45 q 853 92 781 66 l 853 32 q 723 -2 790 9 q 581 -12 656 -12 z "},"Ć":{"ha":892,"x_min":94,"x_max":853,"o":"m 581 -12 q 224 112 353 -12 q 94 513 94 236 q 225 910 94 780 q 593 1040 356 1040 q 727 1031 665 1040 q 853 1003 789 1022 l 853 944 q 593 983 724 983 q 272 870 383 983 q 160 515 160 758 q 270 154 160 263 q 583 45 381 45 q 718 56 655 45 q 853 92 781 66 l 853 32 q 723 -2 790 9 q 581 -12 656 -12 m 501 1121 l 654 1312 l 729 1312 l 564 1121 l 501 1121 z "},"Č":{"ha":892,"x_min":94,"x_max":853,"o":"m 581 -12 q 224 112 353 -12 q 94 513 94 236 q 225 910 94 780 q 593 1040 356 1040 q 727 1031 665 1040 q 853 1003 789 1022 l 853 944 q 593 983 724 983 q 272 870 383 983 q 160 515 160 758 q 270 154 160 263 q 583 45 381 45 q 718 56 655 45 q 853 92 781 66 l 853 32 q 723 -2 790 9 q 581 -12 656 -12 m 690 1312 l 764 1312 l 565 1121 l 500 1121 l 301 1312 l 376 1312 l 533 1158 l 690 1312 z "},"Ç":{"ha":892,"x_min":94,"x_max":853,"o":"m 593 983 q 272 870 383 983 q 160 515 160 758 q 270 154 160 263 q 583 45 381 45 q 718 56 655 45 q 853 92 781 66 l 853 32 q 723 -2 790 9 q 581 -12 656 -12 l 567 -12 l 567 -76 q 664 -103 629 -78 q 699 -178 699 -129 q 661 -254 699 -228 q 552 -280 622 -280 q 478 -273 516 -280 q 410 -253 441 -266 l 410 -210 q 484 -233 450 -226 q 551 -240 517 -240 q 654 -177 654 -240 q 550 -115 654 -115 l 522 -115 l 522 -10 q 207 130 321 5 q 94 513 94 255 q 225 910 94 780 q 593 1040 356 1040 q 727 1031 665 1040 q 853 1003 789 1022 l 853 944 q 593 983 724 983 z "},"Ḉ":{"ha":892,"x_min":94,"x_max":853,"o":"m 729 1312 l 564 1121 l 501 1121 l 654 1312 l 729 1312 m 593 983 q 272 870 383 983 q 160 515 160 758 q 270 154 160 263 q 583 45 381 45 q 718 56 655 45 q 853 92 781 66 l 853 32 q 723 -2 790 9 q 581 -12 656 -12 l 567 -12 l 567 -76 q 664 -103 629 -78 q 699 -178 699 -129 q 661 -254 699 -228 q 552 -280 622 -280 q 478 -273 516 -280 q 410 -253 441 -266 l 410 -210 q 484 -233 450 -226 q 551 -240 517 -240 q 654 -177 654 -240 q 550 -115 654 -115 l 522 -115 l 522 -10 q 207 130 321 5 q 94 513 94 255 q 225 910 94 780 q 593 1040 356 1040 q 727 1031 665 1040 q 853 1003 789 1022 l 853 944 q 593 983 724 983 z "},"Ĉ":{"ha":892,"x_min":94,"x_max":853,"o":"m 581 -12 q 224 112 353 -12 q 94 513 94 236 q 225 910 94 780 q 593 1040 356 1040 q 727 1031 665 1040 q 853 1003 789 1022 l 853 944 q 593 983 724 983 q 272 870 383 983 q 160 515 160 758 q 270 154 160 263 q 583 45 381 45 q 718 56 655 45 q 853 92 781 66 l 853 32 q 723 -2 790 9 q 581 -12 656 -12 m 764 1121 l 690 1121 l 533 1275 l 376 1121 l 301 1121 l 500 1312 l 565 1312 l 764 1121 z "},"Ċ":{"ha":892,"x_min":94,"x_max":853,"o":"m 581 -12 q 224 112 353 -12 q 94 513 94 236 q 225 910 94 780 q 593 1040 356 1040 q 727 1031 665 1040 q 853 1003 789 1022 l 853 944 q 593 983 724 983 q 272 870 383 983 q 160 515 160 758 q 270 154 160 263 q 583 45 381 45 q 718 56 655 45 q 853 92 781 66 l 853 32 q 723 -2 790 9 q 581 -12 656 -12 m 533 1169 q 495 1182 509 1169 q 482 1217 482 1194 q 495 1252 482 1239 q 533 1265 509 1265 q 570 1252 556 1265 q 583 1217 583 1239 q 570 1182 583 1194 q 533 1169 556 1169 z "},"D":{"ha":1073,"x_min":147,"x_max":979,"o":"m 419 -7 q 286 -3 347 -7 q 147 11 226 1 l 147 1009 q 290 1030 215 1023 q 433 1038 365 1038 q 841 906 702 1038 q 979 514 979 774 q 419 -7 979 -7 m 426 51 q 792 164 671 51 q 913 514 913 278 q 792 865 913 750 q 429 980 672 980 q 210 961 335 980 l 210 65 q 426 51 297 51 z "},"Ǳ":{"ha":1914,"x_min":147,"x_max":1865,"o":"m 419 -7 q 286 -3 347 -7 q 147 11 226 1 l 147 1009 q 290 1030 215 1023 q 433 1038 365 1038 q 841 906 702 1038 q 979 514 979 774 q 419 -7 979 -7 m 426 51 q 792 164 671 51 q 913 514 913 278 q 792 865 913 750 q 429 980 672 980 q 210 961 335 980 l 210 65 q 426 51 297 51 m 1170 56 l 1865 56 l 1865 0 l 1082 0 l 1082 36 l 1766 972 l 1092 972 l 1092 1028 l 1855 1028 l 1855 992 l 1170 56 z "},"Ǆ":{"ha":1914,"x_min":147,"x_max":1865,"o":"m 419 -7 q 286 -3 347 -7 q 147 11 226 1 l 147 1009 q 290 1030 215 1023 q 433 1038 365 1038 q 841 906 702 1038 q 979 514 979 774 q 419 -7 979 -7 m 426 51 q 792 164 671 51 q 913 514 913 278 q 792 865 913 750 q 429 980 672 980 q 210 961 335 980 l 210 65 q 426 51 297 51 m 1170 56 l 1865 56 l 1865 0 l 1082 0 l 1082 36 l 1766 972 l 1092 972 l 1092 1028 l 1855 1028 l 1855 992 l 1170 56 m 1630 1312 l 1704 1312 l 1506 1121 l 1440 1121 l 1242 1312 l 1316 1312 l 1473 1158 l 1630 1312 z "},"Ð":{"ha":1073,"x_min":6,"x_max":979,"o":"m 433 1038 q 841 906 702 1038 q 979 514 979 774 q 419 -7 979 -7 q 286 -3 347 -7 q 147 11 226 1 l 147 504 l 6 504 l 6 554 l 147 554 l 147 1009 q 290 1030 215 1023 q 433 1038 365 1038 m 426 51 q 792 164 671 51 q 913 514 913 278 q 792 865 913 750 q 429 980 672 980 q 210 961 335 980 l 210 554 l 501 554 l 501 504 l 210 504 l 210 65 q 426 51 297 51 z "},"Ď":{"ha":1073,"x_min":147,"x_max":979,"o":"m 419 -7 q 286 -3 347 -7 q 147 11 226 1 l 147 1009 q 290 1030 215 1023 q 433 1038 365 1038 q 841 906 702 1038 q 979 514 979 774 q 419 -7 979 -7 m 426 51 q 792 164 671 51 q 913 514 913 278 q 792 865 913 750 q 429 980 672 980 q 210 961 335 980 l 210 65 q 426 51 297 51 m 650 1312 l 724 1312 l 526 1121 l 460 1121 l 262 1312 l 336 1312 l 493 1158 l 650 1312 z "},"Đ":{"ha":1073,"x_min":6,"x_max":979,"o":"m 433 1038 q 841 906 702 1038 q 979 514 979 774 q 419 -7 979 -7 q 286 -3 347 -7 q 147 11 226 1 l 147 504 l 6 504 l 6 554 l 147 554 l 147 1009 q 290 1030 215 1023 q 433 1038 365 1038 m 426 51 q 792 164 671 51 q 913 514 913 278 q 792 865 913 750 q 429 980 672 980 q 210 961 335 980 l 210 554 l 501 554 l 501 504 l 210 504 l 210 65 q 426 51 297 51 z "},"Ḍ":{"ha":1073,"x_min":147,"x_max":979,"o":"m 419 -7 q 286 -3 347 -7 q 147 11 226 1 l 147 1009 q 290 1030 215 1023 q 433 1038 365 1038 q 841 906 702 1038 q 979 514 979 774 q 419 -7 979 -7 m 426 51 q 792 164 671 51 q 913 514 913 278 q 792 865 913 750 q 429 980 672 980 q 210 961 335 980 l 210 65 q 426 51 297 51 m 494 -222 q 457 -209 470 -222 q 443 -174 443 -196 q 457 -138 443 -151 q 494 -125 470 -125 q 531 -138 517 -125 q 544 -174 544 -151 q 531 -209 544 -196 q 494 -222 517 -222 z "},"Ḏ":{"ha":1073,"x_min":147,"x_max":979,"o":"m 419 -7 q 286 -3 347 -7 q 147 11 226 1 l 147 1009 q 290 1030 215 1023 q 433 1038 365 1038 q 841 906 702 1038 q 979 514 979 774 q 419 -7 979 -7 m 426 51 q 792 164 671 51 q 913 514 913 278 q 792 865 913 750 q 429 980 672 980 q 210 961 335 980 l 210 65 q 426 51 297 51 m 280 -199 l 280 -150 l 708 -150 l 708 -199 l 280 -199 z "},"ǲ":{"ha":1770,"x_min":147,"x_max":1726,"o":"m 419 -7 q 286 -3 347 -7 q 147 11 226 1 l 147 1009 q 290 1030 215 1023 q 433 1038 365 1038 q 841 906 702 1038 q 979 514 979 774 q 419 -7 979 -7 m 426 51 q 792 164 671 51 q 913 514 913 278 q 792 865 913 750 q 429 980 672 980 q 210 961 335 980 l 210 65 q 426 51 297 51 m 1210 56 l 1726 56 l 1726 0 l 1121 0 l 1121 38 l 1627 695 l 1131 695 l 1131 751 l 1716 751 l 1716 713 l 1210 56 z "},"ǅ":{"ha":1770,"x_min":147,"x_max":1726,"o":"m 419 -7 q 286 -3 347 -7 q 147 11 226 1 l 147 1009 q 290 1030 215 1023 q 433 1038 365 1038 q 841 906 702 1038 q 979 514 979 774 q 419 -7 979 -7 m 426 51 q 792 164 671 51 q 913 514 913 278 q 792 865 913 750 q 429 980 672 980 q 210 961 335 980 l 210 65 q 426 51 297 51 m 1210 56 l 1726 56 l 1726 0 l 1121 0 l 1121 38 l 1627 695 l 1131 695 l 1131 751 l 1716 751 l 1716 713 l 1210 56 m 1581 1090 l 1655 1090 l 1456 899 l 1391 899 l 1192 1090 l 1267 1090 l 1424 935 l 1581 1090 z "},"E":{"ha":900,"x_min":147,"x_max":826,"o":"m 210 57 l 826 57 l 826 0 l 147 0 l 147 1028 l 819 1028 l 819 971 l 210 971 l 210 557 l 749 557 l 749 500 l 210 500 l 210 57 z "},"É":{"ha":900,"x_min":147,"x_max":826,"o":"m 210 57 l 826 57 l 826 0 l 147 0 l 147 1028 l 819 1028 l 819 971 l 210 971 l 210 557 l 749 557 l 749 500 l 210 500 l 210 57 m 465 1121 l 619 1312 l 694 1312 l 528 1121 l 465 1121 z "},"Ĕ":{"ha":900,"x_min":147,"x_max":826,"o":"m 210 57 l 826 57 l 826 0 l 147 0 l 147 1028 l 819 1028 l 819 971 l 210 971 l 210 557 l 749 557 l 749 500 l 210 500 l 210 57 m 499 1129 q 333 1175 391 1129 q 267 1293 276 1220 l 317 1293 q 368 1207 326 1238 q 499 1176 410 1176 q 627 1207 587 1176 q 677 1293 668 1237 l 727 1293 q 662 1174 719 1219 q 499 1129 606 1129 z "},"Ě":{"ha":900,"x_min":147,"x_max":826,"o":"m 210 57 l 826 57 l 826 0 l 147 0 l 147 1028 l 819 1028 l 819 971 l 210 971 l 210 557 l 749 557 l 749 500 l 210 500 l 210 57 m 654 1312 l 728 1312 l 530 1121 l 465 1121 l 266 1312 l 340 1312 l 497 1158 l 654 1312 z "},"Ḝ":{"ha":900,"x_min":147,"x_max":826,"o":"m 499 1129 q 333 1175 391 1129 q 267 1293 276 1220 l 317 1293 q 368 1207 326 1238 q 499 1176 410 1176 q 627 1207 587 1176 q 677 1293 668 1237 l 727 1293 q 662 1174 719 1219 q 499 1129 606 1129 m 522 0 l 522 -76 q 618 -103 583 -78 q 653 -178 653 -129 q 615 -254 653 -228 q 506 -280 576 -280 q 433 -273 470 -280 q 365 -253 395 -266 l 365 -210 q 438 -233 404 -226 q 506 -240 472 -240 q 608 -177 608 -240 q 504 -115 608 -115 l 476 -115 l 476 0 l 147 0 l 147 1028 l 819 1028 l 819 971 l 210 971 l 210 557 l 749 557 l 749 500 l 210 500 l 210 57 l 826 57 l 826 0 l 522 0 z "},"Ê":{"ha":900,"x_min":147,"x_max":826,"o":"m 210 57 l 826 57 l 826 0 l 147 0 l 147 1028 l 819 1028 l 819 971 l 210 971 l 210 557 l 749 557 l 749 500 l 210 500 l 210 57 m 728 1121 l 654 1121 l 497 1275 l 340 1121 l 266 1121 l 465 1312 l 530 1312 l 728 1121 z "},"Ế":{"ha":900,"x_min":147,"x_max":890,"o":"m 210 57 l 826 57 l 826 0 l 147 0 l 147 1028 l 819 1028 l 819 971 l 210 971 l 210 557 l 749 557 l 749 500 l 210 500 l 210 57 m 822 1433 l 890 1433 l 730 1246 l 672 1246 l 822 1433 m 465 1310 l 530 1310 l 728 1121 l 654 1121 l 497 1274 l 340 1121 l 266 1121 l 465 1310 z "},"Ệ":{"ha":900,"x_min":147,"x_max":826,"o":"m 210 57 l 826 57 l 826 0 l 147 0 l 147 1028 l 819 1028 l 819 971 l 210 971 l 210 557 l 749 557 l 749 500 l 210 500 l 210 57 m 500 -222 q 463 -209 476 -222 q 449 -174 449 -196 q 463 -138 449 -151 q 500 -125 476 -125 q 537 -138 524 -125 q 551 -174 551 -151 q 537 -209 551 -196 q 500 -222 524 -222 m 728 1121 l 654 1121 l 497 1275 l 340 1121 l 266 1121 l 465 1312 l 530 1312 l 728 1121 z "},"Ề":{"ha":900,"x_min":147,"x_max":826,"o":"m 210 57 l 826 57 l 826 0 l 147 0 l 147 1028 l 819 1028 l 819 971 l 210 971 l 210 557 l 749 557 l 749 500 l 210 500 l 210 57 m 744 1246 l 687 1246 l 526 1433 l 594 1433 l 744 1246 m 465 1310 l 530 1310 l 728 1121 l 654 1121 l 497 1274 l 340 1121 l 266 1121 l 465 1310 z "},"Ể":{"ha":900,"x_min":147,"x_max":848,"o":"m 210 57 l 826 57 l 826 0 l 147 0 l 147 1028 l 819 1028 l 819 971 l 210 971 l 210 557 l 749 557 l 749 500 l 210 500 l 210 57 m 713 1435 q 815 1415 782 1435 q 848 1360 848 1394 q 839 1328 848 1341 q 816 1309 829 1316 q 781 1292 803 1301 q 740 1272 753 1281 q 725 1246 727 1263 l 674 1246 q 694 1289 675 1274 q 749 1317 714 1303 q 789 1336 777 1328 q 801 1359 801 1344 q 781 1386 801 1376 q 712 1395 761 1395 q 636 1390 669 1395 q 562 1371 603 1384 l 562 1411 q 713 1435 625 1435 m 465 1310 l 530 1310 l 728 1121 l 654 1121 l 497 1274 l 340 1121 l 266 1121 l 465 1310 z "},"Ễ":{"ha":900,"x_min":147,"x_max":826,"o":"m 210 57 l 826 57 l 826 0 l 147 0 l 147 1028 l 819 1028 l 819 971 l 210 971 l 210 557 l 749 557 l 749 500 l 210 500 l 210 57 m 606 1386 q 672 1398 642 1386 q 728 1435 701 1410 l 728 1383 q 606 1342 684 1342 q 549 1349 576 1342 q 485 1369 522 1356 q 431 1386 453 1381 q 388 1392 409 1392 q 323 1381 352 1392 q 266 1344 293 1369 l 266 1395 q 389 1437 310 1437 q 445 1430 418 1437 q 509 1410 472 1423 q 563 1392 541 1398 q 606 1386 585 1386 m 465 1310 l 530 1310 l 728 1121 l 654 1121 l 497 1274 l 340 1121 l 266 1121 l 465 1310 z "},"Ȅ":{"ha":900,"x_min":147,"x_max":826,"o":"m 210 57 l 826 57 l 826 0 l 147 0 l 147 1028 l 819 1028 l 819 971 l 210 971 l 210 557 l 749 557 l 749 500 l 210 500 l 210 57 m 349 1121 l 235 1312 l 295 1312 l 406 1121 l 349 1121 m 588 1121 l 473 1312 l 534 1312 l 645 1121 l 588 1121 z "},"Ë":{"ha":900,"x_min":147,"x_max":826,"o":"m 210 57 l 826 57 l 826 0 l 147 0 l 147 1028 l 819 1028 l 819 971 l 210 971 l 210 557 l 749 557 l 749 500 l 210 500 l 210 57 m 315 1169 q 280 1182 293 1169 q 266 1217 266 1195 q 280 1252 266 1239 q 315 1265 293 1265 q 351 1252 338 1265 q 365 1217 365 1239 q 351 1182 365 1195 q 315 1169 338 1169 m 679 1169 q 643 1182 657 1169 q 630 1217 630 1195 q 643 1252 630 1239 q 679 1265 657 1265 q 715 1252 701 1265 q 728 1217 728 1239 q 715 1182 728 1195 q 679 1169 701 1169 z "},"Ė":{"ha":900,"x_min":147,"x_max":826,"o":"m 210 57 l 826 57 l 826 0 l 147 0 l 147 1028 l 819 1028 l 819 971 l 210 971 l 210 557 l 749 557 l 749 500 l 210 500 l 210 57 m 497 1169 q 460 1182 474 1169 q 447 1217 447 1194 q 460 1252 447 1239 q 497 1265 474 1265 q 534 1252 521 1265 q 548 1217 548 1239 q 534 1182 548 1194 q 497 1169 521 1169 z "},"Ẹ":{"ha":900,"x_min":147,"x_max":826,"o":"m 210 57 l 826 57 l 826 0 l 147 0 l 147 1028 l 819 1028 l 819 971 l 210 971 l 210 557 l 749 557 l 749 500 l 210 500 l 210 57 m 500 -222 q 463 -209 476 -222 q 449 -174 449 -196 q 463 -138 449 -151 q 500 -125 476 -125 q 537 -138 524 -125 q 551 -174 551 -151 q 537 -209 551 -196 q 500 -222 524 -222 z "},"È":{"ha":900,"x_min":147,"x_max":826,"o":"m 210 57 l 826 57 l 826 0 l 147 0 l 147 1028 l 819 1028 l 819 971 l 210 971 l 210 557 l 749 557 l 749 500 l 210 500 l 210 57 m 465 1121 l 300 1312 l 376 1312 l 529 1121 l 465 1121 z "},"Ẻ":{"ha":900,"x_min":147,"x_max":826,"o":"m 210 57 l 826 57 l 826 0 l 147 0 l 147 1028 l 819 1028 l 819 971 l 210 971 l 210 557 l 749 557 l 749 500 l 210 500 l 210 57 m 471 1121 q 483 1155 472 1141 q 508 1176 494 1168 q 547 1193 522 1183 q 586 1211 573 1203 q 599 1235 599 1220 q 578 1262 599 1253 q 509 1272 558 1272 q 434 1266 467 1272 q 359 1247 401 1260 l 359 1288 q 510 1313 422 1313 q 612 1292 579 1313 q 645 1236 645 1272 q 636 1205 645 1217 q 614 1184 626 1192 q 578 1168 601 1177 q 538 1148 551 1157 q 522 1121 524 1138 l 471 1121 z "},"Ȇ":{"ha":900,"x_min":147,"x_max":826,"o":"m 210 57 l 826 57 l 826 0 l 147 0 l 147 1028 l 819 1028 l 819 971 l 210 971 l 210 557 l 749 557 l 749 500 l 210 500 l 210 57 m 267 1140 q 332 1258 276 1213 q 496 1303 389 1303 q 661 1258 603 1303 q 727 1140 719 1213 l 677 1140 q 626 1226 668 1196 q 496 1256 584 1256 q 367 1226 408 1256 q 317 1140 326 1196 l 267 1140 z "},"Ē":{"ha":900,"x_min":147,"x_max":826,"o":"m 210 57 l 826 57 l 826 0 l 147 0 l 147 1028 l 819 1028 l 819 971 l 210 971 l 210 557 l 749 557 l 749 500 l 210 500 l 210 57 m 283 1192 l 283 1241 l 711 1241 l 711 1192 l 283 1192 z "},"Ḗ":{"ha":900,"x_min":147,"x_max":826,"o":"m 210 57 l 826 57 l 826 0 l 147 0 l 147 1028 l 819 1028 l 819 971 l 210 971 l 210 557 l 749 557 l 749 500 l 210 500 l 210 57 m 465 1313 l 617 1474 l 695 1474 l 531 1313 l 465 1313 m 283 1192 l 283 1241 l 711 1241 l 711 1192 l 283 1192 z "},"Ḕ":{"ha":900,"x_min":147,"x_max":826,"o":"m 210 57 l 826 57 l 826 0 l 147 0 l 147 1028 l 819 1028 l 819 971 l 210 971 l 210 557 l 749 557 l 749 500 l 210 500 l 210 57 m 465 1313 l 299 1474 l 376 1474 l 530 1313 l 465 1313 m 283 1192 l 283 1241 l 711 1241 l 711 1192 l 283 1192 z "},"Ę":{"ha":900,"x_min":147,"x_max":862,"o":"m 731 -240 q 790 -233 760 -240 q 862 -211 819 -226 l 862 -253 q 731 -280 794 -280 q 614 -248 655 -280 q 573 -160 573 -217 q 598 -75 573 -114 q 682 0 623 -36 l 147 0 l 147 1028 l 819 1028 l 819 971 l 210 971 l 210 557 l 749 557 l 749 500 l 210 500 l 210 57 l 826 57 l 826 0 l 769 0 q 653 -76 685 -39 q 620 -157 620 -112 q 649 -218 620 -197 q 731 -240 677 -240 z "},"Ẽ":{"ha":900,"x_min":147,"x_max":826,"o":"m 210 57 l 826 57 l 826 0 l 147 0 l 147 1028 l 819 1028 l 819 971 l 210 971 l 210 557 l 749 557 l 749 500 l 210 500 l 210 57 m 610 1175 q 551 1182 579 1175 q 486 1203 524 1189 q 429 1220 451 1215 q 384 1226 407 1226 q 315 1215 344 1226 q 260 1178 286 1203 l 260 1231 q 312 1263 281 1253 q 385 1274 342 1274 q 443 1267 415 1274 q 508 1246 471 1260 q 565 1228 543 1234 q 610 1222 588 1222 q 679 1234 650 1222 q 735 1271 708 1245 l 735 1217 q 683 1185 713 1196 q 610 1175 652 1175 z "},"F":{"ha":869,"x_min":147,"x_max":813,"o":"m 813 971 l 210 971 l 210 555 l 742 555 l 742 498 l 210 498 l 210 0 l 147 0 l 147 1028 l 813 1028 l 813 971 z "},"G":{"ha":1046,"x_min":94,"x_max":908,"o":"m 908 500 l 908 14 q 774 -3 833 2 q 647 -8 715 -8 q 234 124 374 -8 q 94 516 94 256 q 160 811 94 694 q 344 984 227 928 q 614 1040 461 1040 q 744 1031 681 1040 q 880 1003 808 1022 l 880 944 q 741 974 803 966 q 618 983 679 983 q 378 934 481 983 q 218 782 276 886 q 160 517 160 678 q 646 51 160 51 q 847 65 756 51 l 847 500 l 908 500 z "},"Ǵ":{"ha":1046,"x_min":94,"x_max":908,"o":"m 908 500 l 908 14 q 774 -3 833 2 q 647 -8 715 -8 q 234 124 374 -8 q 94 516 94 256 q 160 811 94 694 q 344 984 227 928 q 614 1040 461 1040 q 744 1031 681 1040 q 880 1003 808 1022 l 880 944 q 741 974 803 966 q 618 983 679 983 q 378 934 481 983 q 218 782 276 886 q 160 517 160 678 q 646 51 160 51 q 847 65 756 51 l 847 500 l 908 500 m 529 1121 l 683 1312 l 758 1312 l 592 1121 l 529 1121 z "},"Ğ":{"ha":1046,"x_min":94,"x_max":908,"o":"m 908 500 l 908 14 q 774 -3 833 2 q 647 -8 715 -8 q 234 124 374 -8 q 94 516 94 256 q 160 811 94 694 q 344 984 227 928 q 614 1040 461 1040 q 744 1031 681 1040 q 880 1003 808 1022 l 880 944 q 741 974 803 966 q 618 983 679 983 q 378 934 481 983 q 218 782 276 886 q 160 517 160 678 q 646 51 160 51 q 847 65 756 51 l 847 500 l 908 500 m 563 1129 q 397 1175 455 1129 q 331 1293 340 1220 l 381 1293 q 432 1207 390 1238 q 563 1176 474 1176 q 691 1207 651 1176 q 741 1293 732 1237 l 791 1293 q 726 1174 783 1219 q 563 1129 669 1129 z "},"Ǧ":{"ha":1046,"x_min":94,"x_max":908,"o":"m 908 500 l 908 14 q 774 -3 833 2 q 647 -8 715 -8 q 234 124 374 -8 q 94 516 94 256 q 160 811 94 694 q 344 984 227 928 q 614 1040 461 1040 q 744 1031 681 1040 q 880 1003 808 1022 l 880 944 q 741 974 803 966 q 618 983 679 983 q 378 934 481 983 q 218 782 276 886 q 160 517 160 678 q 646 51 160 51 q 847 65 756 51 l 847 500 l 908 500 m 718 1312 l 792 1312 l 594 1121 l 528 1121 l 330 1312 l 404 1312 l 561 1158 l 718 1312 z "},"Ĝ":{"ha":1046,"x_min":94,"x_max":908,"o":"m 908 500 l 908 14 q 774 -3 833 2 q 647 -8 715 -8 q 234 124 374 -8 q 94 516 94 256 q 160 811 94 694 q 344 984 227 928 q 614 1040 461 1040 q 744 1031 681 1040 q 880 1003 808 1022 l 880 944 q 741 974 803 966 q 618 983 679 983 q 378 934 481 983 q 218 782 276 886 q 160 517 160 678 q 646 51 160 51 q 847 65 756 51 l 847 500 l 908 500 m 792 1121 l 718 1121 l 561 1275 l 404 1121 l 330 1121 l 528 1312 l 594 1312 l 792 1121 z "},"Ģ":{"ha":1046,"x_min":94,"x_max":908,"o":"m 908 500 l 908 14 q 774 -3 833 2 q 647 -8 715 -8 q 234 124 374 -8 q 94 516 94 256 q 160 811 94 694 q 344 984 227 928 q 614 1040 461 1040 q 744 1031 681 1040 q 880 1003 808 1022 l 880 944 q 741 974 803 966 q 618 983 679 983 q 378 934 481 983 q 218 782 276 886 q 160 517 160 678 q 646 51 160 51 q 847 65 756 51 l 847 500 l 908 500 m 558 -125 q 598 -141 584 -125 q 611 -188 611 -157 q 603 -249 611 -216 q 578 -314 594 -283 l 539 -314 q 563 -218 560 -263 l 561 -218 q 525 -205 538 -218 q 511 -171 511 -192 q 524 -137 511 -150 q 558 -125 537 -125 z "},"Ġ":{"ha":1046,"x_min":94,"x_max":908,"o":"m 908 500 l 908 14 q 774 -3 833 2 q 647 -8 715 -8 q 234 124 374 -8 q 94 516 94 256 q 160 811 94 694 q 344 984 227 928 q 614 1040 461 1040 q 744 1031 681 1040 q 880 1003 808 1022 l 880 944 q 741 974 803 966 q 618 983 679 983 q 378 934 481 983 q 218 782 276 886 q 160 517 160 678 q 646 51 160 51 q 847 65 756 51 l 847 500 l 908 500 m 561 1169 q 524 1182 538 1169 q 510 1217 510 1194 q 524 1252 510 1239 q 561 1265 538 1265 q 598 1252 585 1265 q 612 1217 612 1239 q 598 1182 612 1194 q 561 1169 585 1169 z "},"Ḡ":{"ha":1046,"x_min":94,"x_max":908,"o":"m 908 500 l 908 14 q 774 -3 833 2 q 647 -8 715 -8 q 234 124 374 -8 q 94 516 94 256 q 160 811 94 694 q 344 984 227 928 q 614 1040 461 1040 q 744 1031 681 1040 q 880 1003 808 1022 l 880 944 q 741 974 803 966 q 618 983 679 983 q 378 934 481 983 q 218 782 276 886 q 160 517 160 678 q 646 51 160 51 q 847 65 756 51 l 847 500 l 908 500 m 347 1192 l 347 1241 l 775 1241 l 775 1192 l 347 1192 z "},"H":{"ha":1103,"x_min":147,"x_max":956,"o":"m 147 0 l 147 1028 l 210 1028 l 210 558 l 893 558 l 893 1028 l 956 1028 l 956 0 l 893 0 l 893 499 l 210 499 l 210 0 l 147 0 z "},"Ħ":{"ha":1103,"x_min":6,"x_max":1097,"o":"m 1097 820 l 1097 770 l 956 770 l 956 0 l 893 0 l 893 499 l 210 499 l 210 0 l 147 0 l 147 770 l 6 770 l 6 820 l 147 820 l 147 1028 l 210 1028 l 210 820 l 893 820 l 893 1028 l 956 1028 l 956 820 l 1097 820 m 893 558 l 893 770 l 210 770 l 210 558 l 893 558 z "},"Ḫ":{"ha":1103,"x_min":147,"x_max":956,"o":"m 147 0 l 147 1028 l 210 1028 l 210 558 l 893 558 l 893 1028 l 956 1028 l 956 0 l 893 0 l 893 499 l 210 499 l 210 0 l 147 0 m 553 -280 q 426 -258 477 -280 q 349 -197 374 -235 q 322 -110 323 -158 l 372 -110 q 418 -200 376 -168 q 553 -233 460 -233 q 686 -200 644 -233 q 731 -110 727 -168 l 781 -110 q 722 -233 779 -186 q 553 -280 665 -280 z "},"Ĥ":{"ha":1103,"x_min":147,"x_max":956,"o":"m 147 0 l 147 1028 l 210 1028 l 210 558 l 893 558 l 893 1028 l 956 1028 l 956 0 l 893 0 l 893 499 l 210 499 l 210 0 l 147 0 m 783 1121 l 708 1121 l 551 1275 l 394 1121 l 320 1121 l 519 1312 l 584 1312 l 783 1121 z "},"Ḥ":{"ha":1103,"x_min":147,"x_max":956,"o":"m 147 0 l 147 1028 l 210 1028 l 210 558 l 893 558 l 893 1028 l 956 1028 l 956 0 l 893 0 l 893 499 l 210 499 l 210 0 l 147 0 m 551 -222 q 514 -209 528 -222 q 501 -174 501 -196 q 514 -138 501 -151 q 551 -125 528 -125 q 589 -138 575 -125 q 602 -174 602 -151 q 589 -209 602 -196 q 551 -222 575 -222 z "},"I":{"ha":356,"x_min":147,"x_max":210,"o":"m 147 0 l 147 1028 l 210 1028 l 210 0 l 147 0 z "},"Í":{"ha":356,"x_min":147,"x_max":375,"o":"m 147 0 l 147 1028 l 210 1028 l 210 0 l 147 0 m 147 1121 l 300 1312 l 375 1312 l 210 1121 l 147 1121 z "},"Ĭ":{"ha":356,"x_min":-51,"x_max":408,"o":"m 147 0 l 147 1028 l 210 1028 l 210 0 l 147 0 m 180 1129 q 15 1175 72 1129 q -51 1293 -43 1220 l -1 1293 q 50 1207 8 1238 q 180 1176 92 1176 q 309 1207 268 1176 q 358 1293 349 1237 l 408 1293 q 343 1174 400 1219 q 180 1129 287 1129 z "},"Î":{"ha":356,"x_min":-53,"x_max":410,"o":"m 147 0 l 147 1028 l 210 1028 l 210 0 l 147 0 m 410 1121 l 335 1121 l 178 1275 l 22 1121 l -53 1121 l 146 1312 l 211 1312 l 410 1121 z "},"Ȉ":{"ha":356,"x_min":-84,"x_max":326,"o":"m 147 0 l 147 1028 l 210 1028 l 210 0 l 147 0 m 31 1121 l -84 1312 l -24 1312 l 88 1121 l 31 1121 m 269 1121 l 154 1312 l 215 1312 l 326 1121 l 269 1121 z "},"Ï":{"ha":356,"x_min":-53,"x_max":410,"o":"m 147 0 l 147 1028 l 210 1028 l 210 0 l 147 0 m -3 1169 q -39 1182 -26 1169 q -53 1217 -53 1195 q -39 1252 -53 1239 q -3 1265 -26 1265 q 32 1252 19 1265 q 46 1217 46 1239 q 32 1182 46 1195 q -3 1169 19 1169 m 360 1169 q 325 1182 338 1169 q 311 1217 311 1195 q 325 1252 311 1239 q 360 1265 338 1265 q 396 1252 383 1265 q 410 1217 410 1239 q 396 1182 410 1195 q 360 1169 383 1169 z "},"Ḯ":{"ha":356,"x_min":-53,"x_max":410,"o":"m 147 0 l 147 1028 l 210 1028 l 210 0 l 147 0 m 146 1313 l 298 1474 l 376 1474 l 213 1313 l 146 1313 m -3 1169 q -39 1182 -26 1169 q -53 1217 -53 1195 q -39 1252 -53 1239 q -3 1265 -26 1265 q 32 1252 19 1265 q 46 1217 46 1239 q 32 1182 46 1195 q -3 1169 19 1169 m 360 1169 q 325 1182 338 1169 q 311 1217 311 1195 q 325 1252 311 1239 q 360 1265 338 1265 q 396 1252 383 1265 q 410 1217 410 1239 q 396 1182 410 1195 q 360 1169 383 1169 z "},"İ":{"ha":356,"x_min":128,"x_max":229,"o":"m 147 0 l 147 1028 l 210 1028 l 210 0 l 147 0 m 178 1169 q 141 1182 155 1169 q 128 1217 128 1194 q 141 1252 128 1239 q 178 1265 155 1265 q 216 1252 202 1265 q 229 1217 229 1239 q 216 1182 229 1194 q 178 1169 202 1169 z "},"Ị":{"ha":356,"x_min":127,"x_max":228,"o":"m 147 0 l 147 1028 l 210 1028 l 210 0 l 147 0 m 178 -222 q 141 -209 154 -222 q 127 -174 127 -196 q 141 -138 127 -151 q 178 -125 154 -125 q 215 -138 201 -125 q 228 -174 228 -151 q 215 -209 228 -196 q 178 -222 201 -222 z "},"Ì":{"ha":356,"x_min":-19,"x_max":210,"o":"m 147 0 l 147 1028 l 210 1028 l 210 0 l 147 0 m 147 1121 l -19 1312 l 57 1312 l 210 1121 l 147 1121 z "},"Ỉ":{"ha":356,"x_min":40,"x_max":326,"o":"m 147 0 l 147 1028 l 210 1028 l 210 0 l 147 0 m 152 1121 q 164 1155 153 1141 q 189 1176 175 1168 q 228 1193 203 1183 q 267 1211 254 1203 q 280 1235 280 1220 q 260 1262 280 1253 q 190 1272 240 1272 q 115 1266 148 1272 q 40 1247 82 1260 l 40 1288 q 192 1313 103 1313 q 293 1292 260 1313 q 326 1236 326 1272 q 317 1205 326 1217 q 295 1184 308 1192 q 260 1168 282 1177 q 219 1148 233 1157 q 203 1121 206 1138 l 152 1121 z "},"Ȋ":{"ha":356,"x_min":-51,"x_max":408,"o":"m 147 0 l 147 1028 l 210 1028 l 210 0 l 147 0 m -51 1140 q 14 1258 -43 1213 q 177 1303 70 1303 q 342 1258 285 1303 q 408 1140 400 1213 l 358 1140 q 307 1226 349 1196 q 177 1256 265 1256 q 48 1226 89 1256 q -1 1140 8 1196 l -51 1140 z "},"Ī":{"ha":356,"x_min":-35,"x_max":392,"o":"m 147 0 l 147 1028 l 210 1028 l 210 0 l 147 0 m -35 1192 l -35 1241 l 392 1241 l 392 1192 l -35 1192 z "},"Į":{"ha":356,"x_min":13,"x_max":302,"o":"m 171 -240 q 230 -233 201 -240 q 302 -211 259 -226 l 302 -253 q 171 -280 235 -280 q 54 -248 95 -280 q 13 -160 13 -217 q 44 -67 13 -110 q 147 14 74 -25 l 147 1028 l 210 1028 l 210 0 q 93 -76 126 -39 q 60 -157 60 -112 q 89 -218 60 -197 q 171 -240 117 -240 z "},"Ĩ":{"ha":356,"x_min":-59,"x_max":416,"o":"m 147 0 l 147 1028 l 210 1028 l 210 0 l 147 0 m 291 1175 q 233 1182 260 1175 q 167 1203 205 1189 q 110 1220 133 1215 q 65 1226 88 1226 q -3 1215 26 1226 q -59 1178 -33 1203 l -59 1231 q -7 1263 -37 1253 q 66 1274 24 1274 q 124 1267 97 1274 q 190 1246 152 1260 q 247 1228 224 1234 q 292 1222 269 1222 q 360 1234 331 1222 q 416 1271 390 1245 l 416 1217 q 364 1185 394 1196 q 291 1175 333 1175 z "},"J":{"ha":356,"x_min":2,"x_max":210,"o":"m 2 -206 q 112 -18 77 -115 q 147 199 147 80 l 147 1028 l 210 1028 l 210 176 q 166 -43 203 53 q 45 -237 128 -139 l 2 -206 z "},"Ĵ":{"ha":356,"x_min":-53,"x_max":410,"o":"m 2 -206 q 112 -18 77 -115 q 147 199 147 80 l 147 1028 l 210 1028 l 210 176 q 166 -43 203 53 q 45 -237 128 -139 l 2 -206 m 410 1121 l 335 1121 l 178 1275 l 22 1121 l -53 1121 l 146 1312 l 211 1312 l 410 1121 z "},"K":{"ha":929,"x_min":147,"x_max":919,"o":"m 842 0 l 422 499 l 210 499 l 210 0 l 147 0 l 147 1028 l 210 1028 l 210 558 l 424 558 l 815 1028 l 890 1028 l 475 529 l 919 0 l 842 0 z "},"Ķ":{"ha":929,"x_min":147,"x_max":919,"o":"m 842 0 l 422 499 l 210 499 l 210 0 l 147 0 l 147 1028 l 210 1028 l 210 558 l 424 558 l 815 1028 l 890 1028 l 475 529 l 919 0 l 842 0 m 472 -125 q 511 -141 498 -125 q 525 -188 525 -157 q 517 -249 525 -216 q 492 -314 508 -283 l 453 -314 q 477 -218 474 -263 l 475 -218 q 439 -205 452 -218 q 425 -171 425 -192 q 438 -137 425 -150 q 472 -125 451 -125 z "},"L":{"ha":816,"x_min":147,"x_max":801,"o":"m 147 0 l 147 1028 l 210 1028 l 210 58 l 801 58 l 801 0 l 147 0 z "},"Ǉ":{"ha":1172,"x_min":147,"x_max":1026,"o":"m 147 0 l 147 1028 l 210 1028 l 210 58 l 801 58 l 801 0 l 147 0 m 818 -206 q 928 -18 893 -115 q 963 199 963 80 l 963 1028 l 1026 1028 l 1026 176 q 982 -43 1019 53 q 861 -237 944 -139 l 818 -206 z "},"Ĺ":{"ha":816,"x_min":147,"x_max":801,"o":"m 147 0 l 147 1028 l 210 1028 l 210 58 l 801 58 l 801 0 l 147 0 m 147 1121 l 300 1312 l 375 1312 l 210 1121 l 147 1121 z "},"Ľ":{"ha":816,"x_min":147,"x_max":801,"o":"m 147 0 l 147 1028 l 210 1028 l 210 58 l 801 58 l 801 0 l 147 0 m 517 792 q 527 938 525 858 q 530 1122 530 1017 l 583 1122 q 556 792 583 922 l 517 792 z "},"Ļ":{"ha":816,"x_min":147,"x_max":801,"o":"m 147 0 l 147 1028 l 210 1028 l 210 58 l 801 58 l 801 0 l 147 0 m 472 -125 q 511 -141 497 -125 q 524 -188 524 -157 q 516 -249 524 -216 q 492 -314 508 -283 l 452 -314 q 476 -218 473 -263 l 474 -218 q 438 -205 451 -218 q 424 -171 424 -192 q 437 -137 424 -150 q 472 -125 450 -125 z "},"Ŀ":{"ha":816,"x_min":147,"x_max":801,"o":"m 147 0 l 147 1028 l 210 1028 l 210 58 l 801 58 l 801 0 l 147 0 m 574 494 q 536 507 551 494 q 522 542 522 520 q 536 579 522 565 q 574 592 551 592 q 611 579 597 592 q 625 542 625 565 q 611 507 625 520 q 574 494 597 494 z "},"Ḷ":{"ha":816,"x_min":147,"x_max":801,"o":"m 147 0 l 147 1028 l 210 1028 l 210 58 l 801 58 l 801 0 l 147 0 m 474 -222 q 437 -209 451 -222 q 424 -174 424 -196 q 437 -138 424 -151 q 474 -125 451 -125 q 511 -138 498 -125 q 525 -174 525 -151 q 511 -209 525 -196 q 474 -222 498 -222 z "},"ǈ":{"ha":1144,"x_min":147,"x_max":1031,"o":"m 147 0 l 147 1028 l 210 1028 l 210 58 l 801 58 l 801 0 l 147 0 m 804 -289 q 914 -101 879 -199 q 949 116 949 -3 l 949 751 l 1012 751 l 1012 119 q 973 -114 1012 -10 q 847 -320 933 -219 l 804 -289 m 980 946 q 942 959 956 946 q 928 995 928 972 q 942 1031 928 1017 q 980 1045 956 1045 q 1017 1031 1003 1045 q 1031 995 1031 1017 q 1017 959 1031 972 q 980 946 1003 946 z "},"Ḻ":{"ha":816,"x_min":147,"x_max":801,"o":"m 147 0 l 147 1028 l 210 1028 l 210 58 l 801 58 l 801 0 l 147 0 m 260 -199 l 260 -150 l 688 -150 l 688 -199 l 260 -199 z "},"Ł":{"ha":816,"x_min":2,"x_max":801,"o":"m 210 58 l 801 58 l 801 0 l 147 0 l 147 481 l 31 394 l 2 435 l 147 544 l 147 1028 l 210 1028 l 210 592 l 428 757 l 458 715 l 210 528 l 210 58 z "},"M":{"ha":1309,"x_min":149,"x_max":1160,"o":"m 1089 1028 l 1160 1028 l 1160 0 l 1099 0 l 1099 922 l 687 140 l 622 140 l 210 919 l 210 0 l 149 0 l 149 1028 l 220 1028 l 656 198 l 1089 1028 z "},"Ṃ":{"ha":1309,"x_min":149,"x_max":1160,"o":"m 1089 1028 l 1160 1028 l 1160 0 l 1099 0 l 1099 922 l 687 140 l 622 140 l 210 919 l 210 0 l 149 0 l 149 1028 l 220 1028 l 656 198 l 1089 1028 m 656 -222 q 618 -209 632 -222 q 605 -174 605 -196 q 618 -138 605 -151 q 656 -125 632 -125 q 693 -138 679 -125 q 706 -174 706 -151 q 693 -209 706 -196 q 656 -222 679 -222 z "},"N":{"ha":1123,"x_min":147,"x_max":976,"o":"m 916 1028 l 976 1028 l 976 0 l 909 0 l 207 938 l 207 0 l 147 0 l 147 1028 l 214 1028 l 916 90 l 916 1028 z "},"Ǌ":{"ha":1479,"x_min":147,"x_max":1333,"o":"m 916 1028 l 976 1028 l 976 0 l 909 0 l 207 938 l 207 0 l 147 0 l 147 1028 l 214 1028 l 916 90 l 916 1028 m 1125 -206 q 1235 -18 1200 -115 q 1269 199 1269 80 l 1269 1028 l 1333 1028 l 1333 176 q 1289 -43 1326 53 q 1168 -237 1251 -139 l 1125 -206 z "},"Ń":{"ha":1123,"x_min":147,"x_max":976,"o":"m 916 1028 l 976 1028 l 976 0 l 909 0 l 207 938 l 207 0 l 147 0 l 147 1028 l 214 1028 l 916 90 l 916 1028 m 530 1121 l 683 1312 l 758 1312 l 593 1121 l 530 1121 z "},"Ň":{"ha":1123,"x_min":147,"x_max":976,"o":"m 916 1028 l 976 1028 l 976 0 l 909 0 l 207 938 l 207 0 l 147 0 l 147 1028 l 214 1028 l 916 90 l 916 1028 m 719 1312 l 793 1312 l 594 1121 l 529 1121 l 331 1312 l 405 1312 l 562 1158 l 719 1312 z "},"Ņ":{"ha":1123,"x_min":147,"x_max":976,"o":"m 916 1028 l 976 1028 l 976 0 l 909 0 l 207 938 l 207 0 l 147 0 l 147 1028 l 214 1028 l 916 90 l 916 1028 m 559 -125 q 598 -141 585 -125 q 612 -188 612 -157 q 603 -249 612 -216 q 579 -314 595 -283 l 540 -314 q 564 -218 560 -263 l 562 -218 q 525 -205 539 -218 q 512 -171 512 -192 q 525 -137 512 -150 q 559 -125 538 -125 z "},"Ṅ":{"ha":1123,"x_min":147,"x_max":976,"o":"m 916 1028 l 976 1028 l 976 0 l 909 0 l 207 938 l 207 0 l 147 0 l 147 1028 l 214 1028 l 916 90 l 916 1028 m 562 1169 q 525 1182 538 1169 q 511 1217 511 1194 q 525 1252 511 1239 q 562 1265 538 1265 q 599 1252 585 1265 q 613 1217 613 1239 q 599 1182 613 1194 q 562 1169 585 1169 z "},"Ṇ":{"ha":1123,"x_min":147,"x_max":976,"o":"m 916 1028 l 976 1028 l 976 0 l 909 0 l 207 938 l 207 0 l 147 0 l 147 1028 l 214 1028 l 916 90 l 916 1028 m 562 -222 q 525 -209 538 -222 q 511 -174 511 -196 q 525 -138 511 -151 q 562 -125 538 -125 q 599 -138 585 -125 q 613 -174 613 -151 q 599 -209 613 -196 q 562 -222 585 -222 z "},"Ŋ":{"ha":1123,"x_min":147,"x_max":976,"o":"m 976 1028 l 976 121 q 937 -114 976 -9 q 812 -320 898 -219 l 769 -289 q 860 -149 826 -220 q 907 3 894 -77 l 207 936 l 207 0 l 147 0 l 147 1028 l 214 1028 l 915 92 q 916 116 916 100 l 916 1028 l 976 1028 z "},"ǋ":{"ha":1451,"x_min":147,"x_max":1338,"o":"m 916 1028 l 976 1028 l 976 0 l 909 0 l 207 938 l 207 0 l 147 0 l 147 1028 l 214 1028 l 916 90 l 916 1028 m 1111 -289 q 1221 -101 1186 -199 q 1256 116 1256 -3 l 1256 751 l 1319 751 l 1319 119 q 1280 -114 1319 -10 q 1154 -320 1240 -219 l 1111 -289 m 1287 946 q 1249 959 1263 946 q 1235 995 1235 972 q 1249 1031 1235 1017 q 1287 1045 1263 1045 q 1324 1031 1310 1045 q 1338 995 1338 1017 q 1324 959 1338 972 q 1287 946 1310 946 z "},"Ṉ":{"ha":1123,"x_min":147,"x_max":976,"o":"m 916 1028 l 976 1028 l 976 0 l 909 0 l 207 938 l 207 0 l 147 0 l 147 1028 l 214 1028 l 916 90 l 916 1028 m 348 -199 l 348 -150 l 776 -150 l 776 -199 l 348 -199 z "},"Ñ":{"ha":1123,"x_min":147,"x_max":976,"o":"m 916 1028 l 976 1028 l 976 0 l 909 0 l 207 938 l 207 0 l 147 0 l 147 1028 l 214 1028 l 916 90 l 916 1028 m 674 1175 q 616 1182 644 1175 q 551 1203 588 1189 q 494 1220 516 1215 q 449 1226 472 1226 q 380 1215 409 1226 q 324 1178 351 1203 l 324 1231 q 376 1263 346 1253 q 449 1274 407 1274 q 508 1267 480 1274 q 573 1246 535 1260 q 630 1228 608 1234 q 675 1222 652 1222 q 744 1234 715 1222 q 799 1271 773 1245 l 799 1217 q 747 1185 778 1196 q 674 1175 717 1175 z "},"O":{"ha":1104,"x_min":94,"x_max":1010,"o":"m 552 -12 q 310 44 413 -12 q 151 217 208 100 q 94 514 94 335 q 151 810 94 692 q 312 984 209 928 q 552 1040 415 1040 q 794 984 691 1040 q 953 810 897 928 q 1010 514 1010 692 q 953 218 1010 335 q 792 44 895 100 q 552 -12 690 -12 m 552 47 q 840 159 736 47 q 944 511 944 272 q 840 868 944 754 q 552 981 736 981 q 264 869 368 981 q 160 517 160 757 q 264 160 160 273 q 552 47 367 47 z "},"Ó":{"ha":1104,"x_min":94,"x_max":1010,"o":"m 552 -12 q 310 44 413 -12 q 151 217 208 100 q 94 514 94 335 q 151 810 94 692 q 312 984 209 928 q 552 1040 415 1040 q 794 984 691 1040 q 953 810 897 928 q 1010 514 1010 692 q 953 218 1010 335 q 792 44 895 100 q 552 -12 690 -12 m 552 47 q 840 159 736 47 q 944 511 944 272 q 840 868 944 754 q 552 981 736 981 q 264 869 368 981 q 160 517 160 757 q 264 160 160 273 q 552 47 367 47 m 520 1121 l 674 1312 l 749 1312 l 583 1121 l 520 1121 z "},"Ŏ":{"ha":1104,"x_min":94,"x_max":1010,"o":"m 552 -12 q 310 44 413 -12 q 151 217 208 100 q 94 514 94 335 q 151 810 94 692 q 312 984 209 928 q 552 1040 415 1040 q 794 984 691 1040 q 953 810 897 928 q 1010 514 1010 692 q 953 218 1010 335 q 792 44 895 100 q 552 -12 690 -12 m 552 47 q 840 159 736 47 q 944 511 944 272 q 840 868 944 754 q 552 981 736 981 q 264 869 368 981 q 160 517 160 757 q 264 160 160 273 q 552 47 367 47 m 553 1129 q 388 1175 446 1129 q 322 1293 331 1220 l 372 1293 q 423 1207 381 1238 q 553 1176 465 1176 q 682 1207 642 1176 q 732 1293 723 1237 l 782 1293 q 717 1174 774 1219 q 553 1129 660 1129 z "},"Ô":{"ha":1104,"x_min":94,"x_max":1010,"o":"m 552 -12 q 310 44 413 -12 q 151 217 208 100 q 94 514 94 335 q 151 810 94 692 q 312 984 209 928 q 552 1040 415 1040 q 794 984 691 1040 q 953 810 897 928 q 1010 514 1010 692 q 953 218 1010 335 q 792 44 895 100 q 552 -12 690 -12 m 552 47 q 840 159 736 47 q 944 511 944 272 q 840 868 944 754 q 552 981 736 981 q 264 869 368 981 q 160 517 160 757 q 264 160 160 273 q 552 47 367 47 m 783 1121 l 709 1121 l 552 1275 l 395 1121 l 321 1121 l 519 1312 l 585 1312 l 783 1121 z "},"Ố":{"ha":1104,"x_min":94,"x_max":1010,"o":"m 552 -12 q 310 44 413 -12 q 151 217 208 100 q 94 514 94 335 q 151 810 94 692 q 312 984 209 928 q 552 1040 415 1040 q 794 984 691 1040 q 953 810 897 928 q 1010 514 1010 692 q 953 218 1010 335 q 792 44 895 100 q 552 -12 690 -12 m 552 47 q 840 159 736 47 q 944 511 944 272 q 840 868 944 754 q 552 981 736 981 q 264 869 368 981 q 160 517 160 757 q 264 160 160 273 q 552 47 367 47 m 877 1433 l 945 1433 l 785 1246 l 727 1246 l 877 1433 m 519 1310 l 585 1310 l 783 1121 l 709 1121 l 552 1274 l 395 1121 l 321 1121 l 519 1310 z "},"Ộ":{"ha":1104,"x_min":94,"x_max":1010,"o":"m 552 -12 q 310 44 413 -12 q 151 217 208 100 q 94 514 94 335 q 151 810 94 692 q 312 984 209 928 q 552 1040 415 1040 q 794 984 691 1040 q 953 810 897 928 q 1010 514 1010 692 q 953 218 1010 335 q 792 44 895 100 q 552 -12 690 -12 m 552 47 q 840 159 736 47 q 944 511 944 272 q 840 868 944 754 q 552 981 736 981 q 264 869 368 981 q 160 517 160 757 q 264 160 160 273 q 552 47 367 47 m 552 -222 q 515 -209 528 -222 q 501 -174 501 -196 q 515 -138 501 -151 q 552 -125 528 -125 q 589 -138 576 -125 q 603 -174 603 -151 q 589 -209 603 -196 q 552 -222 576 -222 m 783 1121 l 709 1121 l 552 1275 l 395 1121 l 321 1121 l 519 1312 l 585 1312 l 783 1121 z "},"Ồ":{"ha":1104,"x_min":94,"x_max":1010,"o":"m 552 -12 q 310 44 413 -12 q 151 217 208 100 q 94 514 94 335 q 151 810 94 692 q 312 984 209 928 q 552 1040 415 1040 q 794 984 691 1040 q 953 810 897 928 q 1010 514 1010 692 q 953 218 1010 335 q 792 44 895 100 q 552 -12 690 -12 m 552 47 q 840 159 736 47 q 944 511 944 272 q 840 868 944 754 q 552 981 736 981 q 264 869 368 981 q 160 517 160 757 q 264 160 160 273 q 552 47 367 47 m 799 1246 l 742 1246 l 581 1433 l 649 1433 l 799 1246 m 519 1310 l 585 1310 l 783 1121 l 709 1121 l 552 1274 l 395 1121 l 321 1121 l 519 1310 z "},"Ổ":{"ha":1104,"x_min":94,"x_max":1010,"o":"m 552 -12 q 310 44 413 -12 q 151 217 208 100 q 94 514 94 335 q 151 810 94 692 q 312 984 209 928 q 552 1040 415 1040 q 794 984 691 1040 q 953 810 897 928 q 1010 514 1010 692 q 953 218 1010 335 q 792 44 895 100 q 552 -12 690 -12 m 552 47 q 840 159 736 47 q 944 511 944 272 q 840 868 944 754 q 552 981 736 981 q 264 869 368 981 q 160 517 160 757 q 264 160 160 273 q 552 47 367 47 m 768 1435 q 870 1415 837 1435 q 903 1360 903 1394 q 893 1328 903 1341 q 871 1309 884 1316 q 835 1292 858 1301 q 795 1272 808 1281 q 780 1246 782 1263 l 728 1246 q 749 1289 730 1274 q 804 1317 769 1303 q 844 1336 832 1328 q 856 1359 856 1344 q 836 1386 856 1376 q 767 1395 816 1395 q 691 1390 724 1395 q 617 1371 658 1384 l 617 1411 q 768 1435 680 1435 m 519 1310 l 585 1310 l 783 1121 l 709 1121 l 552 1274 l 395 1121 l 321 1121 l 519 1310 z "},"Ỗ":{"ha":1104,"x_min":94,"x_max":1010,"o":"m 552 -12 q 310 44 413 -12 q 151 217 208 100 q 94 514 94 335 q 151 810 94 692 q 312 984 209 928 q 552 1040 415 1040 q 794 984 691 1040 q 953 810 897 928 q 1010 514 1010 692 q 953 218 1010 335 q 792 44 895 100 q 552 -12 690 -12 m 552 47 q 840 159 736 47 q 944 511 944 272 q 840 868 944 754 q 552 981 736 981 q 264 869 368 981 q 160 517 160 757 q 264 160 160 273 q 552 47 367 47 m 661 1386 q 727 1398 697 1386 q 783 1435 756 1410 l 783 1383 q 660 1342 739 1342 q 604 1349 631 1342 q 540 1369 577 1356 q 486 1386 508 1381 q 443 1392 464 1392 q 377 1381 407 1392 q 321 1344 348 1369 l 321 1395 q 444 1437 365 1437 q 500 1430 473 1437 q 564 1410 527 1423 q 618 1392 596 1398 q 661 1386 640 1386 m 519 1310 l 585 1310 l 783 1121 l 709 1121 l 552 1274 l 395 1121 l 321 1121 l 519 1310 z "},"Ȍ":{"ha":1104,"x_min":94,"x_max":1010,"o":"m 552 -12 q 310 44 413 -12 q 151 217 208 100 q 94 514 94 335 q 151 810 94 692 q 312 984 209 928 q 552 1040 415 1040 q 794 984 691 1040 q 953 810 897 928 q 1010 514 1010 692 q 953 218 1010 335 q 792 44 895 100 q 552 -12 690 -12 m 552 47 q 840 159 736 47 q 944 511 944 272 q 840 868 944 754 q 552 981 736 981 q 264 869 368 981 q 160 517 160 757 q 264 160 160 273 q 552 47 367 47 m 404 1121 l 290 1312 l 350 1312 l 461 1121 l 404 1121 m 643 1121 l 528 1312 l 589 1312 l 700 1121 l 643 1121 z "},"Ö":{"ha":1104,"x_min":94,"x_max":1010,"o":"m 552 -12 q 310 44 413 -12 q 151 217 208 100 q 94 514 94 335 q 151 810 94 692 q 312 984 209 928 q 552 1040 415 1040 q 794 984 691 1040 q 953 810 897 928 q 1010 514 1010 692 q 953 218 1010 335 q 792 44 895 100 q 552 -12 690 -12 m 552 47 q 840 159 736 47 q 944 511 944 272 q 840 868 944 754 q 552 981 736 981 q 264 869 368 981 q 160 517 160 757 q 264 160 160 273 q 552 47 367 47 m 370 1169 q 334 1182 348 1169 q 321 1217 321 1195 q 334 1252 321 1239 q 370 1265 348 1265 q 406 1252 392 1265 q 419 1217 419 1239 q 406 1182 419 1195 q 370 1169 392 1169 m 734 1169 q 698 1182 712 1169 q 685 1217 685 1195 q 698 1252 685 1239 q 734 1265 712 1265 q 770 1252 756 1265 q 783 1217 783 1239 q 770 1182 783 1195 q 734 1169 756 1169 z "},"Ȫ":{"ha":1104,"x_min":94,"x_max":1010,"o":"m 552 -12 q 310 44 413 -12 q 151 217 208 100 q 94 514 94 335 q 151 810 94 692 q 312 984 209 928 q 552 1040 415 1040 q 794 984 691 1040 q 953 810 897 928 q 1010 514 1010 692 q 953 218 1010 335 q 792 44 895 100 q 552 -12 690 -12 m 552 47 q 840 159 736 47 q 944 511 944 272 q 840 868 944 754 q 552 981 736 981 q 264 869 368 981 q 160 517 160 757 q 264 160 160 273 q 552 47 367 47 m 370 1169 q 334 1182 348 1169 q 321 1217 321 1195 q 334 1252 321 1239 q 370 1265 348 1265 q 406 1252 392 1265 q 419 1217 419 1239 q 406 1182 419 1195 q 370 1169 392 1169 m 734 1169 q 698 1182 712 1169 q 685 1217 685 1195 q 698 1252 685 1239 q 734 1265 712 1265 q 770 1252 756 1265 q 783 1217 783 1239 q 770 1182 783 1195 q 734 1169 756 1169 m 338 1383 l 338 1432 l 766 1432 l 766 1383 l 338 1383 z "},"Ȱ":{"ha":1104,"x_min":94,"x_max":1010,"o":"m 552 -12 q 310 44 413 -12 q 151 217 208 100 q 94 514 94 335 q 151 810 94 692 q 312 984 209 928 q 552 1040 415 1040 q 794 984 691 1040 q 953 810 897 928 q 1010 514 1010 692 q 953 218 1010 335 q 792 44 895 100 q 552 -12 690 -12 m 552 47 q 840 159 736 47 q 944 511 944 272 q 840 868 944 754 q 552 981 736 981 q 264 869 368 981 q 160 517 160 757 q 264 160 160 273 q 552 47 367 47 m 552 1169 q 515 1182 528 1169 q 501 1217 501 1194 q 515 1252 501 1239 q 552 1265 528 1265 q 589 1252 576 1265 q 603 1217 603 1239 q 589 1182 603 1194 q 552 1169 576 1169 m 338 1383 l 338 1432 l 766 1432 l 766 1383 l 338 1383 z "},"Ọ":{"ha":1104,"x_min":94,"x_max":1010,"o":"m 552 -12 q 310 44 413 -12 q 151 217 208 100 q 94 514 94 335 q 151 810 94 692 q 312 984 209 928 q 552 1040 415 1040 q 794 984 691 1040 q 953 810 897 928 q 1010 514 1010 692 q 953 218 1010 335 q 792 44 895 100 q 552 -12 690 -12 m 552 47 q 840 159 736 47 q 944 511 944 272 q 840 868 944 754 q 552 981 736 981 q 264 869 368 981 q 160 517 160 757 q 264 160 160 273 q 552 47 367 47 m 552 -222 q 515 -209 528 -222 q 501 -174 501 -196 q 515 -138 501 -151 q 552 -125 528 -125 q 589 -138 576 -125 q 603 -174 603 -151 q 589 -209 603 -196 q 552 -222 576 -222 z "},"Ò":{"ha":1104,"x_min":94,"x_max":1010,"o":"m 552 -12 q 310 44 413 -12 q 151 217 208 100 q 94 514 94 335 q 151 810 94 692 q 312 984 209 928 q 552 1040 415 1040 q 794 984 691 1040 q 953 810 897 928 q 1010 514 1010 692 q 953 218 1010 335 q 792 44 895 100 q 552 -12 690 -12 m 552 47 q 840 159 736 47 q 944 511 944 272 q 840 868 944 754 q 552 981 736 981 q 264 869 368 981 q 160 517 160 757 q 264 160 160 273 q 552 47 367 47 m 520 1121 l 355 1312 l 431 1312 l 584 1121 l 520 1121 z "},"Ỏ":{"ha":1104,"x_min":94,"x_max":1010,"o":"m 552 -12 q 310 44 413 -12 q 151 217 208 100 q 94 514 94 335 q 151 810 94 692 q 312 984 209 928 q 552 1040 415 1040 q 794 984 691 1040 q 953 810 897 928 q 1010 514 1010 692 q 953 218 1010 335 q 792 44 895 100 q 552 -12 690 -12 m 552 47 q 840 159 736 47 q 944 511 944 272 q 840 868 944 754 q 552 981 736 981 q 264 869 368 981 q 160 517 160 757 q 264 160 160 273 q 552 47 367 47 m 526 1121 q 538 1155 526 1141 q 563 1176 549 1168 q 601 1193 577 1183 q 641 1211 628 1203 q 653 1235 653 1220 q 633 1262 653 1253 q 564 1272 613 1272 q 489 1266 522 1272 q 414 1247 456 1260 l 414 1288 q 565 1313 477 1313 q 667 1292 634 1313 q 700 1236 700 1272 q 691 1205 700 1217 q 668 1184 681 1192 q 633 1168 656 1177 q 593 1148 606 1157 q 577 1121 579 1138 l 526 1121 z "},"Ơ":{"ha":1104,"x_min":94,"x_max":1011,"o":"m 817 971 q 960 797 910 910 q 1010 514 1010 683 q 888 116 1010 244 q 552 -12 766 -12 q 310 44 413 -12 q 151 217 208 100 q 94 514 94 335 q 151 810 94 692 q 312 984 209 928 q 552 1040 415 1040 q 606 1038 578 1040 q 662 1032 635 1035 q 803 1022 745 1022 q 917 1051 878 1022 q 956 1135 956 1079 q 952 1183 956 1161 q 939 1233 948 1206 l 993 1233 q 1007 1186 1003 1208 q 1011 1133 1011 1163 q 962 1018 1011 1060 q 817 971 913 975 m 552 47 q 840 159 736 47 q 944 511 944 272 q 840 868 944 754 q 552 981 736 981 q 264 869 368 981 q 160 517 160 757 q 264 160 160 273 q 552 47 367 47 z "},"Ớ":{"ha":1104,"x_min":94,"x_max":1011,"o":"m 817 971 q 960 797 910 910 q 1010 514 1010 683 q 888 116 1010 244 q 552 -12 766 -12 q 310 44 413 -12 q 151 217 208 100 q 94 514 94 335 q 151 810 94 692 q 312 984 209 928 q 552 1040 415 1040 q 606 1038 578 1040 q 662 1032 635 1035 q 803 1022 745 1022 q 917 1051 878 1022 q 956 1135 956 1079 q 952 1183 956 1161 q 939 1233 948 1206 l 993 1233 q 1007 1186 1003 1208 q 1011 1133 1011 1163 q 962 1018 1011 1060 q 817 971 913 975 m 552 47 q 840 159 736 47 q 944 511 944 272 q 840 868 944 754 q 552 981 736 981 q 264 869 368 981 q 160 517 160 757 q 264 160 160 273 q 552 47 367 47 m 520 1121 l 674 1312 l 749 1312 l 583 1121 l 520 1121 z "},"Ợ":{"ha":1104,"x_min":94,"x_max":1011,"o":"m 817 971 q 960 797 910 910 q 1010 514 1010 683 q 888 116 1010 244 q 552 -12 766 -12 q 310 44 413 -12 q 151 217 208 100 q 94 514 94 335 q 151 810 94 692 q 312 984 209 928 q 552 1040 415 1040 q 606 1038 578 1040 q 662 1032 635 1035 q 803 1022 745 1022 q 917 1051 878 1022 q 956 1135 956 1079 q 952 1183 956 1161 q 939 1233 948 1206 l 993 1233 q 1007 1186 1003 1208 q 1011 1133 1011 1163 q 962 1018 1011 1060 q 817 971 913 975 m 552 47 q 840 159 736 47 q 944 511 944 272 q 840 868 944 754 q 552 981 736 981 q 264 869 368 981 q 160 517 160 757 q 264 160 160 273 q 552 47 367 47 m 552 -222 q 515 -209 528 -222 q 501 -174 501 -196 q 515 -138 501 -151 q 552 -125 528 -125 q 589 -138 576 -125 q 603 -174 603 -151 q 589 -209 603 -196 q 552 -222 576 -222 z "},"Ờ":{"ha":1104,"x_min":94,"x_max":1011,"o":"m 817 971 q 960 797 910 910 q 1010 514 1010 683 q 888 116 1010 244 q 552 -12 766 -12 q 310 44 413 -12 q 151 217 208 100 q 94 514 94 335 q 151 810 94 692 q 312 984 209 928 q 552 1040 415 1040 q 606 1038 578 1040 q 662 1032 635 1035 q 803 1022 745 1022 q 917 1051 878 1022 q 956 1135 956 1079 q 952 1183 956 1161 q 939 1233 948 1206 l 993 1233 q 1007 1186 1003 1208 q 1011 1133 1011 1163 q 962 1018 1011 1060 q 817 971 913 975 m 552 47 q 840 159 736 47 q 944 511 944 272 q 840 868 944 754 q 552 981 736 981 q 264 869 368 981 q 160 517 160 757 q 264 160 160 273 q 552 47 367 47 m 520 1121 l 355 1312 l 431 1312 l 584 1121 l 520 1121 z "},"Ở":{"ha":1104,"x_min":94,"x_max":1011,"o":"m 817 971 q 960 797 910 910 q 1010 514 1010 683 q 888 116 1010 244 q 552 -12 766 -12 q 310 44 413 -12 q 151 217 208 100 q 94 514 94 335 q 151 810 94 692 q 312 984 209 928 q 552 1040 415 1040 q 606 1038 578 1040 q 662 1032 635 1035 q 803 1022 745 1022 q 917 1051 878 1022 q 956 1135 956 1079 q 952 1183 956 1161 q 939 1233 948 1206 l 993 1233 q 1007 1186 1003 1208 q 1011 1133 1011 1163 q 962 1018 1011 1060 q 817 971 913 975 m 552 47 q 840 159 736 47 q 944 511 944 272 q 840 868 944 754 q 552 981 736 981 q 264 869 368 981 q 160 517 160 757 q 264 160 160 273 q 552 47 367 47 m 526 1121 q 538 1155 526 1141 q 563 1176 549 1168 q 601 1193 577 1183 q 641 1211 628 1203 q 653 1235 653 1220 q 633 1262 653 1253 q 564 1272 613 1272 q 489 1266 522 1272 q 414 1247 456 1260 l 414 1288 q 565 1313 477 1313 q 667 1292 634 1313 q 700 1236 700 1272 q 691 1205 700 1217 q 668 1184 681 1192 q 633 1168 656 1177 q 593 1148 606 1157 q 577 1121 579 1138 l 526 1121 z "},"Ỡ":{"ha":1104,"x_min":94,"x_max":1011,"o":"m 665 1175 q 606 1182 634 1175 q 541 1203 577 1190 q 483 1221 504 1215 q 439 1226 462 1226 q 370 1215 399 1226 q 315 1178 340 1203 l 315 1231 q 367 1263 336 1253 q 440 1274 397 1274 q 498 1267 470 1274 q 563 1246 526 1260 q 620 1228 598 1234 q 665 1222 642 1222 q 734 1234 705 1222 q 790 1271 763 1245 l 790 1217 q 737 1185 767 1196 q 665 1175 707 1175 m 817 971 q 960 797 910 910 q 1010 514 1010 683 q 888 116 1010 244 q 552 -12 766 -12 q 310 44 413 -12 q 151 217 208 100 q 94 514 94 335 q 151 810 94 692 q 312 984 209 928 q 552 1040 415 1040 q 606 1038 578 1040 q 662 1032 635 1035 q 803 1022 745 1022 q 917 1051 878 1022 q 956 1135 956 1079 q 952 1183 956 1161 q 939 1233 948 1206 l 993 1233 q 1007 1186 1003 1208 q 1011 1133 1011 1163 q 962 1018 1011 1060 q 817 971 913 975 m 552 47 q 840 159 736 47 q 944 511 944 272 q 840 868 944 754 q 552 981 736 981 q 264 869 368 981 q 160 517 160 757 q 264 160 160 273 q 552 47 367 47 z "},"Ő":{"ha":1104,"x_min":94,"x_max":1010,"o":"m 552 -12 q 310 44 413 -12 q 151 217 208 100 q 94 514 94 335 q 151 810 94 692 q 312 984 209 928 q 552 1040 415 1040 q 794 984 691 1040 q 953 810 897 928 q 1010 514 1010 692 q 953 218 1010 335 q 792 44 895 100 q 552 -12 690 -12 m 552 47 q 840 159 736 47 q 944 511 944 272 q 840 868 944 754 q 552 981 736 981 q 264 869 368 981 q 160 517 160 757 q 264 160 160 273 q 552 47 367 47 m 404 1121 l 515 1312 l 576 1312 l 461 1121 l 404 1121 m 643 1121 l 754 1312 l 815 1312 l 700 1121 l 643 1121 z "},"Ȏ":{"ha":1104,"x_min":94,"x_max":1010,"o":"m 552 -12 q 310 44 413 -12 q 151 217 208 100 q 94 514 94 335 q 151 810 94 692 q 312 984 209 928 q 552 1040 415 1040 q 794 984 691 1040 q 953 810 897 928 q 1010 514 1010 692 q 953 218 1010 335 q 792 44 895 100 q 552 -12 690 -12 m 552 47 q 840 159 736 47 q 944 511 944 272 q 840 868 944 754 q 552 981 736 981 q 264 869 368 981 q 160 517 160 757 q 264 160 160 273 q 552 47 367 47 m 322 1140 q 387 1258 331 1213 q 551 1303 444 1303 q 716 1258 658 1303 q 782 1140 774 1213 l 732 1140 q 681 1226 723 1196 q 551 1256 639 1256 q 422 1226 463 1256 q 372 1140 381 1196 l 322 1140 z "},"Ō":{"ha":1104,"x_min":94,"x_max":1010,"o":"m 552 -12 q 310 44 413 -12 q 151 217 208 100 q 94 514 94 335 q 151 810 94 692 q 312 984 209 928 q 552 1040 415 1040 q 794 984 691 1040 q 953 810 897 928 q 1010 514 1010 692 q 953 218 1010 335 q 792 44 895 100 q 552 -12 690 -12 m 552 47 q 840 159 736 47 q 944 511 944 272 q 840 868 944 754 q 552 981 736 981 q 264 869 368 981 q 160 517 160 757 q 264 160 160 273 q 552 47 367 47 m 338 1192 l 338 1241 l 766 1241 l 766 1192 l 338 1192 z "},"Ṓ":{"ha":1104,"x_min":94,"x_max":1010,"o":"m 552 -12 q 310 44 413 -12 q 151 217 208 100 q 94 514 94 335 q 151 810 94 692 q 312 984 209 928 q 552 1040 415 1040 q 794 984 691 1040 q 953 810 897 928 q 1010 514 1010 692 q 953 218 1010 335 q 792 44 895 100 q 552 -12 690 -12 m 552 47 q 840 159 736 47 q 944 511 944 272 q 840 868 944 754 q 552 981 736 981 q 264 869 368 981 q 160 517 160 757 q 264 160 160 273 q 552 47 367 47 m 519 1313 l 672 1474 l 750 1474 l 586 1313 l 519 1313 m 338 1192 l 338 1241 l 766 1241 l 766 1192 l 338 1192 z "},"Ṑ":{"ha":1104,"x_min":94,"x_max":1010,"o":"m 552 -12 q 310 44 413 -12 q 151 217 208 100 q 94 514 94 335 q 151 810 94 692 q 312 984 209 928 q 552 1040 415 1040 q 794 984 691 1040 q 953 810 897 928 q 1010 514 1010 692 q 953 218 1010 335 q 792 44 895 100 q 552 -12 690 -12 m 552 47 q 840 159 736 47 q 944 511 944 272 q 840 868 944 754 q 552 981 736 981 q 264 869 368 981 q 160 517 160 757 q 264 160 160 273 q 552 47 367 47 m 519 1313 l 354 1474 l 431 1474 l 585 1313 l 519 1313 m 338 1192 l 338 1241 l 766 1241 l 766 1192 l 338 1192 z "},"Ǫ":{"ha":1104,"x_min":94,"x_max":1010,"o":"m 726 13 q 572 -65 615 -24 q 528 -157 528 -107 q 557 -218 528 -197 q 640 -240 586 -240 q 699 -233 669 -240 q 770 -211 728 -226 l 770 -253 q 639 -280 704 -280 q 522 -248 563 -280 q 481 -160 481 -217 q 503 -78 481 -115 q 578 -12 526 -42 l 556 -12 q 311 44 415 -12 q 151 217 208 100 q 94 514 94 335 q 151 810 94 692 q 312 984 209 928 q 552 1040 415 1040 q 793 985 690 1040 q 953 813 895 931 q 1010 514 1010 696 q 933 179 1010 301 q 726 13 856 56 m 552 47 q 840 159 736 47 q 944 511 944 272 q 840 868 944 754 q 552 981 736 981 q 264 869 368 981 q 160 517 160 757 q 264 160 160 273 q 552 47 367 47 z "},"Ø":{"ha":1104,"x_min":94,"x_max":1010,"o":"m 903 890 q 1010 514 1010 756 q 953 218 1010 335 q 792 44 895 100 q 552 -12 690 -12 q 374 15 454 -12 q 234 100 293 43 l 138 -13 l 100 19 l 200 138 q 94 514 94 272 q 151 810 94 692 q 312 984 209 928 q 552 1040 415 1040 q 731 1012 650 1040 q 870 928 811 984 l 966 1041 l 1003 1008 l 903 890 m 160 517 q 242 188 160 305 l 829 880 q 552 981 730 981 q 264 869 368 981 q 160 517 160 757 m 552 47 q 840 159 736 47 q 944 511 944 272 q 862 841 944 722 l 275 148 q 552 47 372 47 z "},"Ǿ":{"ha":1104,"x_min":94,"x_max":1010,"o":"m 903 890 q 1010 514 1010 756 q 953 218 1010 335 q 792 44 895 100 q 552 -12 690 -12 q 374 15 454 -12 q 234 100 293 43 l 138 -13 l 100 19 l 200 138 q 94 514 94 272 q 151 810 94 692 q 312 984 209 928 q 552 1040 415 1040 q 731 1012 650 1040 q 870 928 811 984 l 966 1041 l 1003 1008 l 903 890 m 160 517 q 242 188 160 305 l 829 880 q 552 981 730 981 q 264 869 368 981 q 160 517 160 757 m 552 47 q 840 159 736 47 q 944 511 944 272 q 862 841 944 722 l 275 148 q 552 47 372 47 m 513 1121 l 667 1312 l 742 1312 l 576 1121 l 513 1121 z "},"Õ":{"ha":1104,"x_min":94,"x_max":1010,"o":"m 552 -12 q 310 44 413 -12 q 151 217 208 100 q 94 514 94 335 q 151 810 94 692 q 312 984 209 928 q 552 1040 415 1040 q 794 984 691 1040 q 953 810 897 928 q 1010 514 1010 692 q 953 218 1010 335 q 792 44 895 100 q 552 -12 690 -12 m 552 47 q 840 159 736 47 q 944 511 944 272 q 840 868 944 754 q 552 981 736 981 q 264 869 368 981 q 160 517 160 757 q 264 160 160 273 q 552 47 367 47 m 665 1175 q 606 1182 634 1175 q 541 1203 578 1189 q 484 1220 506 1215 q 439 1226 462 1226 q 370 1215 399 1226 q 315 1178 341 1203 l 315 1231 q 367 1263 336 1253 q 440 1274 397 1274 q 498 1267 470 1274 q 563 1246 526 1260 q 620 1228 598 1234 q 665 1222 642 1222 q 734 1234 705 1222 q 790 1271 763 1245 l 790 1217 q 738 1185 768 1196 q 665 1175 707 1175 z "},"Ṍ":{"ha":1104,"x_min":94,"x_max":1010,"o":"m 552 -12 q 310 44 413 -12 q 151 217 208 100 q 94 514 94 335 q 151 810 94 692 q 312 984 209 928 q 552 1040 415 1040 q 794 984 691 1040 q 953 810 897 928 q 1010 514 1010 692 q 953 218 1010 335 q 792 44 895 100 q 552 -12 690 -12 m 552 47 q 840 159 736 47 q 944 511 944 272 q 840 868 944 754 q 552 981 736 981 q 264 869 368 981 q 160 517 160 757 q 264 160 160 273 q 552 47 367 47 m 519 1313 l 672 1474 l 750 1474 l 586 1313 l 519 1313 m 665 1175 q 606 1182 634 1175 q 541 1203 578 1189 q 484 1220 506 1215 q 439 1226 462 1226 q 370 1215 399 1226 q 315 1178 341 1203 l 315 1231 q 367 1263 336 1253 q 440 1274 397 1274 q 498 1267 470 1274 q 563 1246 526 1260 q 620 1228 598 1234 q 665 1222 642 1222 q 734 1234 705 1222 q 790 1271 763 1245 l 790 1217 q 738 1185 768 1196 q 665 1175 707 1175 z "},"Ṏ":{"ha":1104,"x_min":94,"x_max":1010,"o":"m 552 -12 q 310 44 413 -12 q 151 217 208 100 q 94 514 94 335 q 151 810 94 692 q 312 984 209 928 q 552 1040 415 1040 q 794 984 691 1040 q 953 810 897 928 q 1010 514 1010 692 q 953 218 1010 335 q 792 44 895 100 q 552 -12 690 -12 m 552 47 q 840 159 736 47 q 944 511 944 272 q 840 868 944 754 q 552 981 736 981 q 264 869 368 981 q 160 517 160 757 q 264 160 160 273 q 552 47 367 47 m 665 1175 q 606 1182 634 1175 q 541 1203 578 1189 q 484 1220 506 1215 q 439 1226 462 1226 q 370 1215 399 1226 q 315 1178 341 1203 l 315 1231 q 367 1263 336 1253 q 440 1274 397 1274 q 498 1267 470 1274 q 563 1246 526 1260 q 620 1228 598 1234 q 665 1222 642 1222 q 734 1234 705 1222 q 790 1271 763 1245 l 790 1217 q 738 1185 768 1196 q 665 1175 707 1175 m 370 1360 q 334 1373 348 1360 q 321 1408 321 1386 q 334 1443 321 1430 q 370 1456 348 1456 q 406 1443 392 1456 q 419 1408 419 1430 q 406 1373 419 1386 q 370 1360 392 1360 m 734 1360 q 698 1373 712 1360 q 685 1408 685 1386 q 698 1443 685 1430 q 734 1456 712 1456 q 770 1443 756 1456 q 783 1408 783 1430 q 770 1373 783 1386 q 734 1360 756 1360 z "},"Ȭ":{"ha":1104,"x_min":94,"x_max":1010,"o":"m 552 -12 q 310 44 413 -12 q 151 217 208 100 q 94 514 94 335 q 151 810 94 692 q 312 984 209 928 q 552 1040 415 1040 q 794 984 691 1040 q 953 810 897 928 q 1010 514 1010 692 q 953 218 1010 335 q 792 44 895 100 q 552 -12 690 -12 m 552 47 q 840 159 736 47 q 944 511 944 272 q 840 868 944 754 q 552 981 736 981 q 264 869 368 981 q 160 517 160 757 q 264 160 160 273 q 552 47 367 47 m 665 1175 q 606 1182 634 1175 q 541 1203 578 1189 q 484 1220 506 1215 q 439 1226 462 1226 q 370 1215 399 1226 q 315 1178 341 1203 l 315 1231 q 367 1263 336 1253 q 440 1274 397 1274 q 498 1267 470 1274 q 563 1246 526 1260 q 620 1228 598 1234 q 665 1222 642 1222 q 734 1234 705 1222 q 790 1271 763 1245 l 790 1217 q 738 1185 768 1196 q 665 1175 707 1175 m 338 1383 l 338 1432 l 766 1432 l 766 1383 l 338 1383 z "},"Œ":{"ha":1562,"x_min":94,"x_max":1488,"o":"m 1488 57 l 1488 0 l 901 0 q 779 -3 854 0 q 715 -6 760 -4 q 640 -7 669 -7 q 232 123 370 -7 q 94 514 94 253 q 232 906 94 774 q 634 1038 369 1038 q 707 1035 665 1038 q 763 1033 748 1033 q 888 1028 839 1028 l 1481 1028 l 1481 971 l 899 971 l 899 557 l 1411 557 l 1411 500 l 899 500 l 899 57 l 1488 57 m 836 969 q 633 980 726 980 q 279 865 398 980 q 160 514 160 750 q 278 165 160 278 q 633 51 397 51 q 836 58 765 51 l 836 969 z "},"P":{"ha":921,"x_min":147,"x_max":848,"o":"m 147 1010 q 286 1031 222 1024 q 426 1038 351 1038 q 741 955 634 1038 q 848 699 848 872 q 738 442 848 529 q 393 355 628 355 q 210 364 306 355 l 210 0 l 147 0 l 147 1010 m 393 410 q 619 442 533 410 q 744 538 705 474 q 783 697 783 601 q 695 913 783 844 q 428 982 606 982 q 210 963 313 982 l 210 423 q 393 410 297 410 z "},"Þ":{"ha":928,"x_min":147,"x_max":848,"o":"m 147 1029 l 210 1029 l 210 851 q 311 865 260 860 q 426 869 362 869 q 741 787 634 869 q 848 531 848 704 q 738 274 848 361 q 393 186 628 186 q 210 196 303 186 l 210 0 l 147 0 l 147 1029 m 393 242 q 619 274 533 242 q 744 369 705 306 q 783 529 783 433 q 695 744 783 676 q 428 813 607 813 q 210 794 307 813 l 210 254 q 393 242 292 242 z "},"Q":{"ha":1104,"x_min":94,"x_max":1010,"o":"m 1010 514 q 893 122 1010 255 q 553 -8 776 -11 q 754 -51 640 -34 q 989 -76 867 -68 l 981 -133 q 446 -30 638 -103 q 174 173 254 44 q 94 513 94 302 q 151 810 94 692 q 312 984 209 928 q 552 1040 415 1040 q 793 985 690 1040 q 953 813 895 931 q 1010 514 1010 696 m 160 517 q 264 160 160 273 q 552 47 367 47 q 840 159 736 47 q 944 511 944 272 q 840 868 944 754 q 552 981 736 981 q 264 869 368 981 q 160 517 160 757 z "},"R":{"ha":985,"x_min":147,"x_max":923,"o":"m 847 0 l 472 447 q 406 445 430 445 q 313 448 354 445 q 209 455 271 450 l 209 0 l 147 0 l 147 1009 q 282 1030 215 1023 q 435 1038 350 1038 q 670 1007 579 1038 q 807 913 762 977 q 851 744 851 849 q 774 546 851 619 q 541 453 697 474 l 923 0 l 847 0 m 209 511 q 307 503 268 506 q 408 501 347 501 q 627 528 543 501 q 751 608 712 555 q 790 742 790 660 q 753 884 790 832 q 640 959 717 936 q 435 982 563 982 q 317 977 367 982 q 209 962 267 972 l 209 511 z "},"Ŕ":{"ha":985,"x_min":147,"x_max":923,"o":"m 847 0 l 472 447 q 406 445 430 445 q 313 448 354 445 q 209 455 271 450 l 209 0 l 147 0 l 147 1009 q 282 1030 215 1023 q 435 1038 350 1038 q 670 1007 579 1038 q 807 913 762 977 q 851 744 851 849 q 774 546 851 619 q 541 453 697 474 l 923 0 l 847 0 m 209 511 q 307 503 268 506 q 408 501 347 501 q 627 528 543 501 q 751 608 712 555 q 790 742 790 660 q 753 884 790 832 q 640 959 717 936 q 435 982 563 982 q 317 977 367 982 q 209 962 267 972 l 209 511 m 444 1121 l 597 1312 l 672 1312 l 507 1121 l 444 1121 z "},"Ř":{"ha":985,"x_min":147,"x_max":923,"o":"m 847 0 l 472 447 q 406 445 430 445 q 313 448 354 445 q 209 455 271 450 l 209 0 l 147 0 l 147 1009 q 282 1030 215 1023 q 435 1038 350 1038 q 670 1007 579 1038 q 807 913 762 977 q 851 744 851 849 q 774 546 851 619 q 541 453 697 474 l 923 0 l 847 0 m 209 511 q 307 503 268 506 q 408 501 347 501 q 627 528 543 501 q 751 608 712 555 q 790 742 790 660 q 753 884 790 832 q 640 959 717 936 q 435 982 563 982 q 317 977 367 982 q 209 962 267 972 l 209 511 m 633 1312 l 707 1312 l 508 1121 l 443 1121 l 244 1312 l 319 1312 l 476 1158 l 633 1312 z "},"Ŗ":{"ha":985,"x_min":147,"x_max":923,"o":"m 847 0 l 472 447 q 406 445 430 445 q 313 448 354 445 q 209 455 271 450 l 209 0 l 147 0 l 147 1009 q 282 1030 215 1023 q 435 1038 350 1038 q 670 1007 579 1038 q 807 913 762 977 q 851 744 851 849 q 774 546 851 619 q 541 453 697 474 l 923 0 l 847 0 m 209 511 q 307 503 268 506 q 408 501 347 501 q 627 528 543 501 q 751 608 712 555 q 790 742 790 660 q 753 884 790 832 q 640 959 717 936 q 435 982 563 982 q 317 977 367 982 q 209 962 267 972 l 209 511 m 503 -125 q 543 -141 529 -125 q 556 -188 556 -157 q 548 -249 556 -216 q 524 -314 540 -283 l 484 -314 q 508 -218 505 -263 l 506 -218 q 470 -205 483 -218 q 456 -171 456 -192 q 469 -137 456 -150 q 503 -125 482 -125 z "},"Ȑ":{"ha":985,"x_min":147,"x_max":923,"o":"m 847 0 l 472 447 q 406 445 430 445 q 313 448 354 445 q 209 455 271 450 l 209 0 l 147 0 l 147 1009 q 282 1030 215 1023 q 435 1038 350 1038 q 670 1007 579 1038 q 807 913 762 977 q 851 744 851 849 q 774 546 851 619 q 541 453 697 474 l 923 0 l 847 0 m 209 511 q 307 503 268 506 q 408 501 347 501 q 627 528 543 501 q 751 608 712 555 q 790 742 790 660 q 753 884 790 832 q 640 959 717 936 q 435 982 563 982 q 317 977 367 982 q 209 962 267 972 l 209 511 m 328 1121 l 213 1312 l 274 1312 l 385 1121 l 328 1121 m 567 1121 l 451 1312 l 513 1312 l 624 1121 l 567 1121 z "},"Ṛ":{"ha":985,"x_min":147,"x_max":923,"o":"m 847 0 l 472 447 q 406 445 430 445 q 313 448 354 445 q 209 455 271 450 l 209 0 l 147 0 l 147 1009 q 282 1030 215 1023 q 435 1038 350 1038 q 670 1007 579 1038 q 807 913 762 977 q 851 744 851 849 q 774 546 851 619 q 541 453 697 474 l 923 0 l 847 0 m 209 511 q 307 503 268 506 q 408 501 347 501 q 627 528 543 501 q 751 608 712 555 q 790 742 790 660 q 753 884 790 832 q 640 959 717 936 q 435 982 563 982 q 317 977 367 982 q 209 962 267 972 l 209 511 m 506 -222 q 469 -209 483 -222 q 456 -174 456 -196 q 469 -138 456 -151 q 506 -125 483 -125 q 543 -138 530 -125 q 557 -174 557 -151 q 543 -209 557 -196 q 506 -222 530 -222 z "},"Ȓ":{"ha":985,"x_min":147,"x_max":923,"o":"m 847 0 l 472 447 q 406 445 430 445 q 313 448 354 445 q 209 455 271 450 l 209 0 l 147 0 l 147 1009 q 282 1030 215 1023 q 435 1038 350 1038 q 670 1007 579 1038 q 807 913 762 977 q 851 744 851 849 q 774 546 851 619 q 541 453 697 474 l 923 0 l 847 0 m 209 511 q 307 503 268 506 q 408 501 347 501 q 627 528 543 501 q 751 608 712 555 q 790 742 790 660 q 753 884 790 832 q 640 959 717 936 q 435 982 563 982 q 317 977 367 982 q 209 962 267 972 l 209 511 m 246 1140 q 311 1258 254 1213 q 474 1303 367 1303 q 640 1258 582 1303 q 706 1140 697 1213 l 656 1140 q 605 1226 647 1196 q 474 1256 563 1256 q 345 1226 386 1256 q 296 1140 305 1196 l 246 1140 z "},"Ṟ":{"ha":985,"x_min":147,"x_max":923,"o":"m 847 0 l 472 447 q 406 445 430 445 q 313 448 354 445 q 209 455 271 450 l 209 0 l 147 0 l 147 1009 q 282 1030 215 1023 q 435 1038 350 1038 q 670 1007 579 1038 q 807 913 762 977 q 851 744 851 849 q 774 546 851 619 q 541 453 697 474 l 923 0 l 847 0 m 209 511 q 307 503 268 506 q 408 501 347 501 q 627 528 543 501 q 751 608 712 555 q 790 742 790 660 q 753 884 790 832 q 640 959 717 936 q 435 982 563 982 q 317 977 367 982 q 209 962 267 972 l 209 511 m 292 -199 l 292 -150 l 720 -150 l 720 -199 l 292 -199 z "},"S":{"ha":810,"x_min":69,"x_max":741,"o":"m 360 -12 q 219 -1 291 -12 q 83 32 148 10 l 83 91 q 361 44 222 44 q 597 101 519 44 q 676 267 676 158 q 649 369 676 328 q 566 435 622 409 q 415 480 510 461 l 362 490 q 140 586 211 520 q 69 763 69 653 q 111 911 69 849 q 236 1007 153 973 q 440 1040 319 1040 q 697 1003 578 1040 l 697 944 q 438 983 568 983 q 211 928 288 983 q 135 767 135 872 q 158 665 135 706 q 234 597 182 624 q 376 552 286 569 l 428 542 q 608 484 540 520 q 709 396 677 449 q 741 270 741 344 q 642 60 741 133 q 360 -12 543 -12 z "},"Ś":{"ha":810,"x_min":69,"x_max":741,"o":"m 360 -12 q 219 -1 291 -12 q 83 32 148 10 l 83 91 q 361 44 222 44 q 597 101 519 44 q 676 267 676 158 q 649 369 676 328 q 566 435 622 409 q 415 480 510 461 l 362 490 q 140 586 211 520 q 69 763 69 653 q 111 911 69 849 q 236 1007 153 973 q 440 1040 319 1040 q 697 1003 578 1040 l 697 944 q 438 983 568 983 q 211 928 288 983 q 135 767 135 872 q 158 665 135 706 q 234 597 182 624 q 376 552 286 569 l 428 542 q 608 484 540 520 q 709 396 677 449 q 741 270 741 344 q 642 60 741 133 q 360 -12 543 -12 m 378 1121 l 532 1312 l 607 1312 l 442 1121 l 378 1121 z "},"Ṥ":{"ha":810,"x_min":69,"x_max":741,"o":"m 360 -12 q 219 -1 291 -12 q 83 32 148 10 l 83 91 q 361 44 222 44 q 597 101 519 44 q 676 267 676 158 q 649 369 676 328 q 566 435 622 409 q 415 480 510 461 l 362 490 q 140 586 211 520 q 69 763 69 653 q 111 911 69 849 q 236 1007 153 973 q 440 1040 319 1040 q 697 1003 578 1040 l 697 944 q 438 983 568 983 q 211 928 288 983 q 135 767 135 872 q 158 665 135 706 q 234 597 182 624 q 376 552 286 569 l 428 542 q 608 484 540 520 q 709 396 677 449 q 741 270 741 344 q 642 60 741 133 q 360 -12 543 -12 m 373 1284 q 337 1297 351 1284 q 324 1330 324 1309 q 337 1365 324 1351 q 373 1378 351 1378 q 408 1365 394 1378 q 422 1330 422 1351 q 408 1297 422 1309 q 373 1284 395 1284 m 378 1121 l 532 1312 l 607 1312 l 442 1121 l 378 1121 z "},"Š":{"ha":810,"x_min":69,"x_max":741,"o":"m 360 -12 q 219 -1 291 -12 q 83 32 148 10 l 83 91 q 361 44 222 44 q 597 101 519 44 q 676 267 676 158 q 649 369 676 328 q 566 435 622 409 q 415 480 510 461 l 362 490 q 140 586 211 520 q 69 763 69 653 q 111 911 69 849 q 236 1007 153 973 q 440 1040 319 1040 q 697 1003 578 1040 l 697 944 q 438 983 568 983 q 211 928 288 983 q 135 767 135 872 q 158 665 135 706 q 234 597 182 624 q 376 552 286 569 l 428 542 q 608 484 540 520 q 709 396 677 449 q 741 270 741 344 q 642 60 741 133 q 360 -12 543 -12 m 567 1312 l 642 1312 l 443 1121 l 378 1121 l 179 1312 l 253 1312 l 410 1158 l 567 1312 z "},"Ṧ":{"ha":810,"x_min":69,"x_max":741,"o":"m 360 -12 q 219 -1 291 -12 q 83 32 148 10 l 83 91 q 361 44 222 44 q 597 101 519 44 q 676 267 676 158 q 649 369 676 328 q 566 435 622 409 q 415 480 510 461 l 362 490 q 140 586 211 520 q 69 763 69 653 q 111 911 69 849 q 236 1007 153 973 q 440 1040 319 1040 q 697 1003 578 1040 l 697 944 q 438 983 568 983 q 211 928 288 983 q 135 767 135 872 q 158 665 135 706 q 234 597 182 624 q 376 552 286 569 l 428 542 q 608 484 540 520 q 709 396 677 449 q 741 270 741 344 q 642 60 741 133 q 360 -12 543 -12 m 410 1313 q 375 1326 388 1313 q 362 1360 362 1338 q 375 1394 362 1381 q 410 1407 388 1407 q 446 1394 433 1407 q 459 1360 459 1381 q 446 1326 459 1338 q 410 1313 433 1313 m 567 1312 l 642 1312 l 443 1121 l 378 1121 l 179 1312 l 253 1312 l 410 1158 l 567 1312 z "},"Ş":{"ha":810,"x_min":69,"x_max":741,"o":"m 741 270 q 661 76 741 148 q 432 -9 581 5 l 432 -76 q 529 -103 494 -78 q 564 -178 564 -129 q 525 -254 564 -228 q 417 -280 487 -280 q 343 -273 381 -280 q 275 -253 306 -266 l 275 -210 q 348 -233 315 -226 q 416 -240 382 -240 q 519 -177 519 -240 q 415 -115 519 -115 l 387 -115 l 387 -12 q 360 -12 378 -12 q 219 -1 291 -12 q 83 32 148 10 l 83 91 q 361 44 222 44 q 597 101 519 44 q 676 267 676 158 q 649 369 676 328 q 566 435 622 409 q 415 480 510 461 l 362 490 q 140 586 211 520 q 69 763 69 653 q 111 911 69 849 q 236 1007 153 973 q 440 1040 319 1040 q 697 1003 578 1040 l 697 944 q 438 983 568 983 q 211 928 288 983 q 135 767 135 872 q 158 665 135 706 q 234 597 182 624 q 376 552 286 569 l 428 542 q 608 484 540 520 q 709 396 677 449 q 741 270 741 344 z "},"Ŝ":{"ha":810,"x_min":69,"x_max":741,"o":"m 360 -12 q 219 -1 291 -12 q 83 32 148 10 l 83 91 q 361 44 222 44 q 597 101 519 44 q 676 267 676 158 q 649 369 676 328 q 566 435 622 409 q 415 480 510 461 l 362 490 q 140 586 211 520 q 69 763 69 653 q 111 911 69 849 q 236 1007 153 973 q 440 1040 319 1040 q 697 1003 578 1040 l 697 944 q 438 983 568 983 q 211 928 288 983 q 135 767 135 872 q 158 665 135 706 q 234 597 182 624 q 376 552 286 569 l 428 542 q 608 484 540 520 q 709 396 677 449 q 741 270 741 344 q 642 60 741 133 q 360 -12 543 -12 m 642 1121 l 567 1121 l 410 1275 l 253 1121 l 179 1121 l 378 1312 l 443 1312 l 642 1121 z "},"Ș":{"ha":810,"x_min":69,"x_max":741,"o":"m 360 -12 q 219 -1 291 -12 q 83 32 148 10 l 83 91 q 361 44 222 44 q 597 101 519 44 q 676 267 676 158 q 649 369 676 328 q 566 435 622 409 q 415 480 510 461 l 362 490 q 140 586 211 520 q 69 763 69 653 q 111 911 69 849 q 236 1007 153 973 q 440 1040 319 1040 q 697 1003 578 1040 l 697 944 q 438 983 568 983 q 211 928 288 983 q 135 767 135 872 q 158 665 135 706 q 234 597 182 624 q 376 552 286 569 l 428 542 q 608 484 540 520 q 709 396 677 449 q 741 270 741 344 q 642 60 741 133 q 360 -12 543 -12 m 408 -125 q 447 -141 433 -125 q 460 -188 460 -157 q 452 -249 460 -216 q 428 -314 444 -283 l 388 -314 q 413 -218 409 -263 l 410 -218 q 374 -205 388 -218 q 360 -171 360 -192 q 373 -137 360 -150 q 408 -125 386 -125 z "},"Ṡ":{"ha":810,"x_min":69,"x_max":741,"o":"m 360 -12 q 219 -1 291 -12 q 83 32 148 10 l 83 91 q 361 44 222 44 q 597 101 519 44 q 676 267 676 158 q 649 369 676 328 q 566 435 622 409 q 415 480 510 461 l 362 490 q 140 586 211 520 q 69 763 69 653 q 111 911 69 849 q 236 1007 153 973 q 440 1040 319 1040 q 697 1003 578 1040 l 697 944 q 438 983 568 983 q 211 928 288 983 q 135 767 135 872 q 158 665 135 706 q 234 597 182 624 q 376 552 286 569 l 428 542 q 608 484 540 520 q 709 396 677 449 q 741 270 741 344 q 642 60 741 133 q 360 -12 543 -12 m 410 1169 q 373 1182 387 1169 q 360 1217 360 1194 q 373 1252 360 1239 q 410 1265 387 1265 q 448 1252 434 1265 q 461 1217 461 1239 q 448 1182 461 1194 q 410 1169 434 1169 z "},"Ṣ":{"ha":810,"x_min":69,"x_max":741,"o":"m 360 -12 q 219 -1 291 -12 q 83 32 148 10 l 83 91 q 361 44 222 44 q 597 101 519 44 q 676 267 676 158 q 649 369 676 328 q 566 435 622 409 q 415 480 510 461 l 362 490 q 140 586 211 520 q 69 763 69 653 q 111 911 69 849 q 236 1007 153 973 q 440 1040 319 1040 q 697 1003 578 1040 l 697 944 q 438 983 568 983 q 211 928 288 983 q 135 767 135 872 q 158 665 135 706 q 234 597 182 624 q 376 552 286 569 l 428 542 q 608 484 540 520 q 709 396 677 449 q 741 270 741 344 q 642 60 741 133 q 360 -12 543 -12 m 410 -222 q 373 -209 387 -222 q 360 -174 360 -196 q 373 -138 360 -151 q 410 -125 387 -125 q 448 -138 434 -125 q 461 -174 461 -151 q 448 -209 461 -196 q 410 -222 434 -222 z "},"Ṩ":{"ha":810,"x_min":69,"x_max":741,"o":"m 360 -12 q 219 -1 291 -12 q 83 32 148 10 l 83 91 q 361 44 222 44 q 597 101 519 44 q 676 267 676 158 q 649 369 676 328 q 566 435 622 409 q 415 480 510 461 l 362 490 q 140 586 211 520 q 69 763 69 653 q 111 911 69 849 q 236 1007 153 973 q 440 1040 319 1040 q 697 1003 578 1040 l 697 944 q 438 983 568 983 q 211 928 288 983 q 135 767 135 872 q 158 665 135 706 q 234 597 182 624 q 376 552 286 569 l 428 542 q 608 484 540 520 q 709 396 677 449 q 741 270 741 344 q 642 60 741 133 q 360 -12 543 -12 m 410 -222 q 373 -209 387 -222 q 360 -174 360 -196 q 373 -138 360 -151 q 410 -125 387 -125 q 448 -138 434 -125 q 461 -174 461 -151 q 448 -209 461 -196 q 410 -222 434 -222 m 410 1169 q 373 1182 387 1169 q 360 1217 360 1194 q 373 1252 360 1239 q 410 1265 387 1265 q 448 1252 434 1265 q 461 1217 461 1239 q 448 1182 461 1194 q 410 1169 434 1169 z "},"ẞ":{"ha":1294,"x_min":147,"x_max":1224,"o":"m 913 542 q 1093 484 1024 519 q 1193 396 1161 449 q 1224 270 1224 344 q 1125 60 1224 133 q 844 -12 1026 -12 q 705 -1 776 -12 q 569 32 633 10 l 569 91 q 845 44 708 44 q 1081 101 1003 44 q 1159 267 1159 158 q 1133 369 1159 328 q 1050 435 1106 409 q 899 480 994 461 l 847 490 q 625 586 696 520 q 555 763 555 653 q 581 884 555 831 q 658 973 606 937 q 545 983 606 983 q 356 948 429 983 q 246 836 282 912 q 210 641 210 761 l 210 0 l 147 0 l 147 632 q 190 865 147 775 q 321 998 233 955 q 545 1040 409 1040 q 733 1011 657 1040 q 925 1040 814 1040 q 1181 1003 1060 1040 l 1181 944 q 924 983 1055 983 q 697 928 773 983 q 620 767 620 872 q 644 665 620 706 q 719 597 667 624 q 860 552 772 569 l 913 542 z "},"Ə":{"ha":1104,"x_min":87,"x_max":1010,"o":"m 446 1040 q 864 911 717 1040 q 1010 512 1010 783 q 954 214 1010 331 q 797 42 898 97 q 558 -12 696 -12 q 309 42 414 -12 q 145 210 203 96 q 87 501 87 324 l 87 545 l 944 545 q 808 878 935 774 q 446 983 680 983 q 294 973 374 983 q 142 944 214 964 l 142 1003 q 446 1040 281 1040 m 558 45 q 838 152 735 45 q 945 490 940 260 l 153 490 q 558 45 163 45 z "},"T":{"ha":875,"x_min":14,"x_max":861,"o":"m 406 0 l 406 970 l 14 970 l 14 1028 l 861 1028 l 861 970 l 469 970 l 469 0 l 406 0 z "},"Ŧ":{"ha":875,"x_min":14,"x_max":861,"o":"m 861 970 l 469 970 l 469 576 l 730 576 l 730 526 l 469 526 l 469 0 l 406 0 l 406 526 l 146 526 l 146 576 l 406 576 l 406 970 l 14 970 l 14 1028 l 861 1028 l 861 970 z "},"Ť":{"ha":875,"x_min":14,"x_max":861,"o":"m 406 0 l 406 970 l 14 970 l 14 1028 l 861 1028 l 861 970 l 469 970 l 469 0 l 406 0 m 594 1312 l 669 1312 l 470 1121 l 405 1121 l 206 1312 l 281 1312 l 438 1158 l 594 1312 z "},"Ţ":{"ha":875,"x_min":14,"x_max":861,"o":"m 459 0 l 459 -76 q 556 -103 521 -78 q 591 -178 591 -129 q 552 -254 591 -228 q 444 -280 514 -280 q 370 -273 408 -280 q 302 -253 333 -266 l 302 -210 q 375 -233 342 -226 q 443 -240 409 -240 q 546 -177 546 -240 q 442 -115 546 -115 l 414 -115 l 414 0 l 406 0 l 406 970 l 14 970 l 14 1028 l 861 1028 l 861 970 l 469 970 l 469 0 l 459 0 z "},"Ț":{"ha":875,"x_min":14,"x_max":861,"o":"m 406 0 l 406 970 l 14 970 l 14 1028 l 861 1028 l 861 970 l 469 970 l 469 0 l 406 0 m 435 -125 q 474 -141 460 -125 q 488 -188 488 -157 q 479 -249 488 -216 q 455 -314 471 -283 l 415 -314 q 440 -218 436 -263 l 438 -218 q 401 -205 415 -218 q 388 -171 388 -192 q 400 -137 388 -150 q 435 -125 413 -125 z "},"Ṭ":{"ha":875,"x_min":14,"x_max":861,"o":"m 406 0 l 406 970 l 14 970 l 14 1028 l 861 1028 l 861 970 l 469 970 l 469 0 l 406 0 m 438 -222 q 400 -209 414 -222 q 387 -174 387 -196 q 400 -138 387 -151 q 438 -125 414 -125 q 475 -138 461 -125 q 488 -174 488 -151 q 475 -209 488 -196 q 438 -222 461 -222 z "},"Ṯ":{"ha":875,"x_min":14,"x_max":861,"o":"m 406 0 l 406 970 l 14 970 l 14 1028 l 861 1028 l 861 970 l 469 970 l 469 0 l 406 0 m 224 -199 l 224 -150 l 651 -150 l 651 -199 l 224 -199 z "},"U":{"ha":1082,"x_min":141,"x_max":940,"o":"m 542 -12 q 316 31 405 -12 q 184 164 228 74 q 141 398 141 254 l 141 1028 l 204 1028 l 204 390 q 240 193 204 269 q 351 81 276 117 q 542 45 425 45 q 733 81 658 45 q 843 193 807 117 q 879 390 879 269 l 879 1028 l 940 1028 l 940 398 q 897 164 940 254 q 766 31 854 74 q 542 -12 678 -12 z "},"Ú":{"ha":1082,"x_min":141,"x_max":940,"o":"m 542 -12 q 316 31 405 -12 q 184 164 228 74 q 141 398 141 254 l 141 1028 l 204 1028 l 204 390 q 240 193 204 269 q 351 81 276 117 q 542 45 425 45 q 733 81 658 45 q 843 193 807 117 q 879 390 879 269 l 879 1028 l 940 1028 l 940 398 q 897 164 940 254 q 766 31 854 74 q 542 -12 678 -12 m 510 1121 l 663 1312 l 738 1312 l 573 1121 l 510 1121 z "},"Ŭ":{"ha":1082,"x_min":141,"x_max":940,"o":"m 542 -12 q 316 31 405 -12 q 184 164 228 74 q 141 398 141 254 l 141 1028 l 204 1028 l 204 390 q 240 193 204 269 q 351 81 276 117 q 542 45 425 45 q 733 81 658 45 q 843 193 807 117 q 879 390 879 269 l 879 1028 l 940 1028 l 940 398 q 897 164 940 254 q 766 31 854 74 q 542 -12 678 -12 m 543 1129 q 378 1175 435 1129 q 312 1293 320 1220 l 362 1293 q 413 1207 371 1238 q 543 1176 455 1176 q 672 1207 631 1176 q 722 1293 713 1237 l 772 1293 q 707 1174 763 1219 q 543 1129 650 1129 z "},"Û":{"ha":1082,"x_min":141,"x_max":940,"o":"m 542 -12 q 316 31 405 -12 q 184 164 228 74 q 141 398 141 254 l 141 1028 l 204 1028 l 204 390 q 240 193 204 269 q 351 81 276 117 q 542 45 425 45 q 733 81 658 45 q 843 193 807 117 q 879 390 879 269 l 879 1028 l 940 1028 l 940 398 q 897 164 940 254 q 766 31 854 74 q 542 -12 678 -12 m 773 1121 l 699 1121 l 542 1275 l 385 1121 l 310 1121 l 509 1312 l 574 1312 l 773 1121 z "},"Ȕ":{"ha":1082,"x_min":141,"x_max":940,"o":"m 542 -12 q 316 31 405 -12 q 184 164 228 74 q 141 398 141 254 l 141 1028 l 204 1028 l 204 390 q 240 193 204 269 q 351 81 276 117 q 542 45 425 45 q 733 81 658 45 q 843 193 807 117 q 879 390 879 269 l 879 1028 l 940 1028 l 940 398 q 897 164 940 254 q 766 31 854 74 q 542 -12 678 -12 m 394 1121 l 279 1312 l 340 1312 l 451 1121 l 394 1121 m 633 1121 l 517 1312 l 578 1312 l 690 1121 l 633 1121 z "},"Ü":{"ha":1082,"x_min":141,"x_max":940,"o":"m 542 -12 q 316 31 405 -12 q 184 164 228 74 q 141 398 141 254 l 141 1028 l 204 1028 l 204 390 q 240 193 204 269 q 351 81 276 117 q 542 45 425 45 q 733 81 658 45 q 843 193 807 117 q 879 390 879 269 l 879 1028 l 940 1028 l 940 398 q 897 164 940 254 q 766 31 854 74 q 542 -12 678 -12 m 360 1169 q 324 1182 338 1169 q 310 1217 310 1195 q 324 1252 310 1239 q 360 1265 338 1265 q 395 1252 382 1265 q 409 1217 409 1239 q 395 1182 409 1195 q 360 1169 382 1169 m 724 1169 q 688 1182 701 1169 q 674 1217 674 1195 q 688 1252 674 1239 q 724 1265 701 1265 q 759 1252 746 1265 q 773 1217 773 1239 q 759 1182 773 1195 q 724 1169 746 1169 z "},"Ụ":{"ha":1082,"x_min":141,"x_max":940,"o":"m 542 -12 q 316 31 405 -12 q 184 164 228 74 q 141 398 141 254 l 141 1028 l 204 1028 l 204 390 q 240 193 204 269 q 351 81 276 117 q 542 45 425 45 q 733 81 658 45 q 843 193 807 117 q 879 390 879 269 l 879 1028 l 940 1028 l 940 398 q 897 164 940 254 q 766 31 854 74 q 542 -12 678 -12 m 542 -222 q 505 -209 518 -222 q 491 -174 491 -196 q 505 -138 491 -151 q 542 -125 518 -125 q 579 -138 565 -125 q 592 -174 592 -151 q 579 -209 592 -196 q 542 -222 565 -222 z "},"Ù":{"ha":1082,"x_min":141,"x_max":940,"o":"m 542 -12 q 316 31 405 -12 q 184 164 228 74 q 141 398 141 254 l 141 1028 l 204 1028 l 204 390 q 240 193 204 269 q 351 81 276 117 q 542 45 425 45 q 733 81 658 45 q 843 193 807 117 q 879 390 879 269 l 879 1028 l 940 1028 l 940 398 q 897 164 940 254 q 766 31 854 74 q 542 -12 678 -12 m 510 1121 l 344 1312 l 420 1312 l 574 1121 l 510 1121 z "},"Ủ":{"ha":1082,"x_min":141,"x_max":940,"o":"m 542 -12 q 316 31 405 -12 q 184 164 228 74 q 141 398 141 254 l 141 1028 l 204 1028 l 204 390 q 240 193 204 269 q 351 81 276 117 q 542 45 425 45 q 733 81 658 45 q 843 193 807 117 q 879 390 879 269 l 879 1028 l 940 1028 l 940 398 q 897 164 940 254 q 766 31 854 74 q 542 -12 678 -12 m 515 1121 q 527 1155 516 1141 q 552 1176 538 1168 q 591 1193 567 1183 q 630 1211 617 1203 q 643 1235 643 1220 q 623 1262 643 1253 q 553 1272 603 1272 q 478 1266 511 1272 q 403 1247 445 1260 l 403 1288 q 555 1313 467 1313 q 657 1292 624 1313 q 690 1236 690 1272 q 680 1205 690 1217 q 658 1184 671 1192 q 623 1168 645 1177 q 582 1148 596 1157 q 567 1121 569 1138 l 515 1121 z "},"Ư":{"ha":1082,"x_min":141,"x_max":1114,"o":"m 542 -12 q 316 31 405 -12 q 184 164 228 74 q 141 398 141 254 l 141 1028 l 204 1028 l 204 390 q 240 193 204 269 q 351 81 276 117 q 542 45 425 45 q 733 81 658 45 q 843 193 807 117 q 879 390 879 269 l 879 1028 l 907 1028 q 1021 1054 983 1028 q 1060 1135 1060 1080 q 1055 1184 1060 1162 q 1042 1233 1051 1206 l 1097 1233 q 1110 1186 1106 1208 q 1114 1133 1114 1164 q 1069 1024 1114 1064 q 940 979 1024 984 l 940 398 q 897 164 940 254 q 766 31 854 74 q 542 -12 678 -12 z "},"Ứ":{"ha":1082,"x_min":141,"x_max":1114,"o":"m 542 -12 q 316 31 405 -12 q 184 164 228 74 q 141 398 141 254 l 141 1028 l 204 1028 l 204 390 q 240 193 204 269 q 351 81 276 117 q 542 45 425 45 q 733 81 658 45 q 843 193 807 117 q 879 390 879 269 l 879 1028 l 907 1028 q 1021 1054 983 1028 q 1060 1135 1060 1080 q 1055 1184 1060 1162 q 1042 1233 1051 1206 l 1097 1233 q 1110 1186 1106 1208 q 1114 1133 1114 1164 q 1069 1024 1114 1064 q 940 979 1024 984 l 940 398 q 897 164 940 254 q 766 31 854 74 q 542 -12 678 -12 m 510 1121 l 663 1312 l 738 1312 l 573 1121 l 510 1121 z "},"Ự":{"ha":1082,"x_min":141,"x_max":1114,"o":"m 542 -12 q 316 31 405 -12 q 184 164 228 74 q 141 398 141 254 l 141 1028 l 204 1028 l 204 390 q 240 193 204 269 q 351 81 276 117 q 542 45 425 45 q 733 81 658 45 q 843 193 807 117 q 879 390 879 269 l 879 1028 l 907 1028 q 1021 1054 983 1028 q 1060 1135 1060 1080 q 1055 1184 1060 1162 q 1042 1233 1051 1206 l 1097 1233 q 1110 1186 1106 1208 q 1114 1133 1114 1164 q 1069 1024 1114 1064 q 940 979 1024 984 l 940 398 q 897 164 940 254 q 766 31 854 74 q 542 -12 678 -12 m 542 -222 q 505 -209 518 -222 q 491 -174 491 -196 q 505 -138 491 -151 q 542 -125 518 -125 q 579 -138 565 -125 q 592 -174 592 -151 q 579 -209 592 -196 q 542 -222 565 -222 z "},"Ừ":{"ha":1082,"x_min":141,"x_max":1114,"o":"m 542 -12 q 316 31 405 -12 q 184 164 228 74 q 141 398 141 254 l 141 1028 l 204 1028 l 204 390 q 240 193 204 269 q 351 81 276 117 q 542 45 425 45 q 733 81 658 45 q 843 193 807 117 q 879 390 879 269 l 879 1028 l 907 1028 q 1021 1054 983 1028 q 1060 1135 1060 1080 q 1055 1184 1060 1162 q 1042 1233 1051 1206 l 1097 1233 q 1110 1186 1106 1208 q 1114 1133 1114 1164 q 1069 1024 1114 1064 q 940 979 1024 984 l 940 398 q 897 164 940 254 q 766 31 854 74 q 542 -12 678 -12 m 510 1121 l 344 1312 l 420 1312 l 574 1121 l 510 1121 z "},"Ử":{"ha":1082,"x_min":141,"x_max":1114,"o":"m 542 -12 q 316 31 405 -12 q 184 164 228 74 q 141 398 141 254 l 141 1028 l 204 1028 l 204 390 q 240 193 204 269 q 351 81 276 117 q 542 45 425 45 q 733 81 658 45 q 843 193 807 117 q 879 390 879 269 l 879 1028 l 907 1028 q 1021 1054 983 1028 q 1060 1135 1060 1080 q 1055 1184 1060 1162 q 1042 1233 1051 1206 l 1097 1233 q 1110 1186 1106 1208 q 1114 1133 1114 1164 q 1069 1024 1114 1064 q 940 979 1024 984 l 940 398 q 897 164 940 254 q 766 31 854 74 q 542 -12 678 -12 m 515 1121 q 527 1155 516 1141 q 552 1176 538 1168 q 591 1193 567 1183 q 630 1211 617 1203 q 643 1235 643 1220 q 623 1262 643 1253 q 553 1272 603 1272 q 478 1266 511 1272 q 403 1247 445 1260 l 403 1288 q 555 1313 467 1313 q 657 1292 624 1313 q 690 1236 690 1272 q 680 1205 690 1217 q 658 1184 671 1192 q 623 1168 645 1177 q 582 1148 596 1157 q 567 1121 569 1138 l 515 1121 z "},"Ữ":{"ha":1082,"x_min":141,"x_max":1114,"o":"m 542 -12 q 316 31 405 -12 q 184 164 228 74 q 141 398 141 254 l 141 1028 l 204 1028 l 204 390 q 240 193 204 269 q 351 81 276 117 q 542 45 425 45 q 733 81 658 45 q 843 193 807 117 q 879 390 879 269 l 879 1028 l 907 1028 q 1021 1054 983 1028 q 1060 1135 1060 1080 q 1055 1184 1060 1162 q 1042 1233 1051 1206 l 1097 1233 q 1110 1186 1106 1208 q 1114 1133 1114 1164 q 1069 1024 1114 1064 q 940 979 1024 984 l 940 398 q 897 164 940 254 q 766 31 854 74 q 542 -12 678 -12 m 654 1175 q 596 1182 624 1175 q 531 1203 568 1189 q 474 1220 496 1215 q 428 1226 451 1226 q 360 1215 389 1226 q 304 1178 331 1203 l 304 1231 q 356 1263 326 1253 q 429 1274 387 1274 q 488 1267 460 1274 q 553 1246 515 1260 q 610 1228 588 1234 q 655 1222 632 1222 q 724 1234 694 1222 q 779 1271 753 1245 l 779 1217 q 727 1185 758 1196 q 654 1175 697 1175 z "},"Ű":{"ha":1082,"x_min":141,"x_max":940,"o":"m 542 -12 q 316 31 405 -12 q 184 164 228 74 q 141 398 141 254 l 141 1028 l 204 1028 l 204 390 q 240 193 204 269 q 351 81 276 117 q 542 45 425 45 q 733 81 658 45 q 843 193 807 117 q 879 390 879 269 l 879 1028 l 940 1028 l 940 398 q 897 164 940 254 q 766 31 854 74 q 542 -12 678 -12 m 394 1121 l 505 1312 l 566 1312 l 451 1121 l 394 1121 m 633 1121 l 744 1312 l 804 1312 l 690 1121 l 633 1121 z "},"Ȗ":{"ha":1082,"x_min":141,"x_max":940,"o":"m 542 -12 q 316 31 405 -12 q 184 164 228 74 q 141 398 141 254 l 141 1028 l 204 1028 l 204 390 q 240 193 204 269 q 351 81 276 117 q 542 45 425 45 q 733 81 658 45 q 843 193 807 117 q 879 390 879 269 l 879 1028 l 940 1028 l 940 398 q 897 164 940 254 q 766 31 854 74 q 542 -12 678 -12 m 312 1140 q 377 1258 320 1213 q 540 1303 433 1303 q 706 1258 648 1303 q 772 1140 763 1213 l 722 1140 q 670 1226 713 1196 q 540 1256 628 1256 q 411 1226 452 1256 q 362 1140 371 1196 l 312 1140 z "},"Ū":{"ha":1082,"x_min":141,"x_max":940,"o":"m 542 -12 q 316 31 405 -12 q 184 164 228 74 q 141 398 141 254 l 141 1028 l 204 1028 l 204 390 q 240 193 204 269 q 351 81 276 117 q 542 45 425 45 q 733 81 658 45 q 843 193 807 117 q 879 390 879 269 l 879 1028 l 940 1028 l 940 398 q 897 164 940 254 q 766 31 854 74 q 542 -12 678 -12 m 328 1192 l 328 1241 l 756 1241 l 756 1192 l 328 1192 z "},"Ṻ":{"ha":1082,"x_min":141,"x_max":940,"o":"m 542 -12 q 316 31 405 -12 q 184 164 228 74 q 141 398 141 254 l 141 1028 l 204 1028 l 204 390 q 240 193 204 269 q 351 81 276 117 q 542 45 425 45 q 733 81 658 45 q 843 193 807 117 q 879 390 879 269 l 879 1028 l 940 1028 l 940 398 q 897 164 940 254 q 766 31 854 74 q 542 -12 678 -12 m 328 1192 l 328 1241 l 756 1241 l 756 1192 l 328 1192 m 360 1360 q 324 1373 338 1360 q 310 1408 310 1386 q 324 1443 310 1430 q 360 1456 338 1456 q 395 1443 382 1456 q 409 1408 409 1430 q 395 1373 409 1386 q 360 1360 382 1360 m 724 1360 q 688 1373 701 1360 q 674 1408 674 1386 q 688 1443 674 1430 q 724 1456 701 1456 q 759 1443 746 1456 q 773 1408 773 1430 q 759 1373 773 1386 q 724 1360 746 1360 z "},"Ų":{"ha":1082,"x_min":141,"x_max":940,"o":"m 940 1028 l 940 398 q 880 132 940 227 q 692 3 819 36 q 501 -152 501 -45 q 530 -215 501 -193 q 612 -237 558 -237 q 672 -230 642 -237 q 743 -208 701 -224 l 743 -250 q 612 -278 677 -278 q 495 -245 535 -278 q 455 -152 455 -212 q 478 -75 455 -112 q 551 -12 501 -38 l 542 -12 q 316 31 405 -12 q 184 164 228 74 q 141 398 141 254 l 141 1028 l 204 1028 l 204 390 q 240 193 204 269 q 351 81 276 117 q 542 45 425 45 q 733 81 658 45 q 843 193 807 117 q 879 390 879 269 l 879 1028 l 940 1028 z "},"Ů":{"ha":1082,"x_min":141,"x_max":940,"o":"m 542 -12 q 316 31 405 -12 q 184 164 228 74 q 141 398 141 254 l 141 1028 l 204 1028 l 204 390 q 240 193 204 269 q 351 81 276 117 q 542 45 425 45 q 733 81 658 45 q 843 193 807 117 q 879 390 879 269 l 879 1028 l 940 1028 l 940 398 q 897 164 940 254 q 766 31 854 74 q 542 -12 678 -12 m 542 1118 q 475 1135 505 1118 q 429 1181 446 1151 q 413 1247 413 1210 q 429 1314 413 1284 q 475 1360 446 1343 q 542 1376 505 1376 q 608 1360 578 1376 q 654 1314 638 1343 q 671 1247 671 1284 q 654 1181 671 1210 q 608 1135 638 1151 q 542 1118 578 1118 m 542 1157 q 605 1181 581 1157 q 630 1247 630 1206 q 605 1313 630 1288 q 542 1337 581 1337 q 478 1313 503 1337 q 453 1247 453 1288 q 478 1181 453 1206 q 542 1157 503 1157 z "},"Ũ":{"ha":1082,"x_min":141,"x_max":940,"o":"m 542 -12 q 316 31 405 -12 q 184 164 228 74 q 141 398 141 254 l 141 1028 l 204 1028 l 204 390 q 240 193 204 269 q 351 81 276 117 q 542 45 425 45 q 733 81 658 45 q 843 193 807 117 q 879 390 879 269 l 879 1028 l 940 1028 l 940 398 q 897 164 940 254 q 766 31 854 74 q 542 -12 678 -12 m 654 1175 q 596 1182 624 1175 q 531 1203 568 1189 q 474 1220 496 1215 q 428 1226 451 1226 q 360 1215 389 1226 q 304 1178 331 1203 l 304 1231 q 356 1263 326 1253 q 429 1274 387 1274 q 488 1267 460 1274 q 553 1246 515 1260 q 610 1228 588 1234 q 655 1222 632 1222 q 724 1234 694 1222 q 779 1271 753 1245 l 779 1217 q 727 1185 758 1196 q 654 1175 697 1175 z "},"Ṹ":{"ha":1082,"x_min":141,"x_max":940,"o":"m 542 -12 q 316 31 405 -12 q 184 164 228 74 q 141 398 141 254 l 141 1028 l 204 1028 l 204 390 q 240 193 204 269 q 351 81 276 117 q 542 45 425 45 q 733 81 658 45 q 843 193 807 117 q 879 390 879 269 l 879 1028 l 940 1028 l 940 398 q 897 164 940 254 q 766 31 854 74 q 542 -12 678 -12 m 509 1313 l 661 1474 l 740 1474 l 576 1313 l 509 1313 m 654 1175 q 596 1182 624 1175 q 531 1203 568 1189 q 474 1220 496 1215 q 428 1226 451 1226 q 360 1215 389 1226 q 304 1178 331 1203 l 304 1231 q 356 1263 326 1253 q 429 1274 387 1274 q 488 1267 460 1274 q 553 1246 515 1260 q 610 1228 588 1234 q 655 1222 632 1222 q 724 1234 694 1222 q 779 1271 753 1245 l 779 1217 q 727 1185 758 1196 q 654 1175 697 1175 z "},"V":{"ha":981,"x_min":16,"x_max":965,"o":"m 900 1028 l 965 1028 l 535 0 l 447 0 l 16 1028 l 85 1028 l 493 52 l 900 1028 z "},"W":{"ha":1595,"x_min":55,"x_max":1539,"o":"m 1476 1028 l 1539 1028 l 1203 0 l 1118 0 l 797 961 l 476 0 l 392 0 l 55 1028 l 122 1028 l 437 58 l 757 1028 l 839 1028 l 1160 57 l 1476 1028 z "},"Ẃ":{"ha":1595,"x_min":55,"x_max":1539,"o":"m 1476 1028 l 1539 1028 l 1203 0 l 1118 0 l 797 961 l 476 0 l 392 0 l 55 1028 l 122 1028 l 437 58 l 757 1028 l 839 1028 l 1160 57 l 1476 1028 m 766 1121 l 919 1312 l 994 1312 l 829 1121 l 766 1121 z "},"Ŵ":{"ha":1595,"x_min":55,"x_max":1539,"o":"m 1476 1028 l 1539 1028 l 1203 0 l 1118 0 l 797 961 l 476 0 l 392 0 l 55 1028 l 122 1028 l 437 58 l 757 1028 l 839 1028 l 1160 57 l 1476 1028 m 1029 1121 l 955 1121 l 798 1275 l 641 1121 l 567 1121 l 765 1312 l 831 1312 l 1029 1121 z "},"Ẅ":{"ha":1595,"x_min":55,"x_max":1539,"o":"m 1476 1028 l 1539 1028 l 1203 0 l 1118 0 l 797 961 l 476 0 l 392 0 l 55 1028 l 122 1028 l 437 58 l 757 1028 l 839 1028 l 1160 57 l 1476 1028 m 616 1169 q 580 1182 594 1169 q 567 1217 567 1195 q 580 1252 567 1239 q 616 1265 594 1265 q 652 1252 638 1265 q 665 1217 665 1239 q 652 1182 665 1195 q 616 1169 638 1169 m 980 1169 q 944 1182 958 1169 q 931 1217 931 1195 q 944 1252 931 1239 q 980 1265 958 1265 q 1016 1252 1002 1265 q 1029 1217 1029 1239 q 1016 1182 1029 1195 q 980 1169 1002 1169 z "},"Ẁ":{"ha":1595,"x_min":55,"x_max":1539,"o":"m 1476 1028 l 1539 1028 l 1203 0 l 1118 0 l 797 961 l 476 0 l 392 0 l 55 1028 l 122 1028 l 437 58 l 757 1028 l 839 1028 l 1160 57 l 1476 1028 m 766 1121 l 601 1312 l 676 1312 l 830 1121 l 766 1121 z "},"X":{"ha":958,"x_min":22,"x_max":935,"o":"m 517 521 l 935 0 l 856 0 l 478 472 l 100 0 l 22 0 l 440 519 l 31 1028 l 110 1028 l 479 568 l 850 1028 l 926 1028 l 517 521 z "},"Y":{"ha":875,"x_min":-12,"x_max":882,"o":"m 882 1028 l 469 469 l 469 0 l 406 0 l 406 468 l -12 1028 l 65 1028 l 439 524 l 808 1028 l 882 1028 z "},"Ý":{"ha":875,"x_min":-12,"x_max":882,"o":"m 882 1028 l 469 469 l 469 0 l 406 0 l 406 468 l -12 1028 l 65 1028 l 439 524 l 808 1028 l 882 1028 m 406 1121 l 559 1312 l 634 1312 l 469 1121 l 406 1121 z "},"Ŷ":{"ha":875,"x_min":-12,"x_max":882,"o":"m 882 1028 l 469 469 l 469 0 l 406 0 l 406 468 l -12 1028 l 65 1028 l 439 524 l 808 1028 l 882 1028 m 669 1121 l 594 1121 l 438 1275 l 281 1121 l 206 1121 l 405 1312 l 470 1312 l 669 1121 z "},"Ÿ":{"ha":875,"x_min":-12,"x_max":882,"o":"m 882 1028 l 469 469 l 469 0 l 406 0 l 406 468 l -12 1028 l 65 1028 l 439 524 l 808 1028 l 882 1028 m 256 1169 q 220 1182 233 1169 q 206 1217 206 1195 q 220 1252 206 1239 q 256 1265 233 1265 q 291 1252 278 1265 q 305 1217 305 1239 q 291 1182 305 1195 q 256 1169 278 1169 m 619 1169 q 584 1182 597 1169 q 570 1217 570 1195 q 584 1252 570 1239 q 619 1265 597 1265 q 655 1252 642 1265 q 669 1217 669 1239 q 655 1182 669 1195 q 619 1169 642 1169 z "},"Ẏ":{"ha":875,"x_min":-12,"x_max":882,"o":"m 882 1028 l 469 469 l 469 0 l 406 0 l 406 468 l -12 1028 l 65 1028 l 439 524 l 808 1028 l 882 1028 m 438 1169 q 400 1182 414 1169 q 387 1217 387 1194 q 400 1252 387 1239 q 438 1265 414 1265 q 475 1252 461 1265 q 488 1217 488 1239 q 475 1182 488 1194 q 438 1169 461 1169 z "},"Ỵ":{"ha":875,"x_min":-12,"x_max":882,"o":"m 882 1028 l 469 469 l 469 0 l 406 0 l 406 468 l -12 1028 l 65 1028 l 439 524 l 808 1028 l 882 1028 m 438 -222 q 400 -209 414 -222 q 387 -174 387 -196 q 400 -138 387 -151 q 438 -125 414 -125 q 475 -138 461 -125 q 488 -174 488 -151 q 475 -209 488 -196 q 438 -222 461 -222 z "},"Ỳ":{"ha":875,"x_min":-12,"x_max":882,"o":"m 882 1028 l 469 469 l 469 0 l 406 0 l 406 468 l -12 1028 l 65 1028 l 439 524 l 808 1028 l 882 1028 m 406 1121 l 240 1312 l 316 1312 l 469 1121 l 406 1121 z "},"Ỷ":{"ha":875,"x_min":-12,"x_max":882,"o":"m 882 1028 l 469 469 l 469 0 l 406 0 l 406 468 l -12 1028 l 65 1028 l 439 524 l 808 1028 l 882 1028 m 411 1121 q 423 1155 412 1141 q 448 1176 434 1168 q 487 1193 463 1183 q 526 1211 513 1203 q 539 1235 539 1220 q 519 1262 539 1253 q 449 1272 499 1272 q 374 1266 407 1272 q 299 1247 341 1260 l 299 1288 q 451 1313 363 1313 q 552 1292 519 1313 q 585 1236 585 1272 q 576 1205 585 1217 q 554 1184 567 1192 q 519 1168 541 1177 q 478 1148 492 1157 q 463 1121 465 1138 l 411 1121 z "},"Ȳ":{"ha":875,"x_min":-12,"x_max":882,"o":"m 882 1028 l 469 469 l 469 0 l 406 0 l 406 468 l -12 1028 l 65 1028 l 439 524 l 808 1028 l 882 1028 m 224 1192 l 224 1241 l 651 1241 l 651 1192 l 224 1192 z "},"Ỹ":{"ha":875,"x_min":-12,"x_max":882,"o":"m 882 1028 l 469 469 l 469 0 l 406 0 l 406 468 l -12 1028 l 65 1028 l 439 524 l 808 1028 l 882 1028 m 550 1175 q 492 1182 519 1175 q 426 1203 464 1189 q 369 1220 392 1215 q 324 1226 347 1226 q 256 1215 285 1226 q 200 1178 226 1203 l 200 1231 q 252 1263 222 1253 q 325 1274 283 1274 q 383 1267 356 1274 q 449 1246 411 1260 q 506 1228 483 1234 q 551 1222 528 1222 q 619 1234 590 1222 q 675 1271 649 1245 l 675 1217 q 623 1185 653 1196 q 550 1175 592 1175 z "},"Z":{"ha":881,"x_min":49,"x_max":832,"o":"m 138 56 l 832 56 l 832 0 l 49 0 l 49 36 l 733 972 l 59 972 l 59 1028 l 822 1028 l 822 992 l 138 56 z "},"Ź":{"ha":881,"x_min":49,"x_max":832,"o":"m 138 56 l 832 56 l 832 0 l 49 0 l 49 36 l 733 972 l 59 972 l 59 1028 l 822 1028 l 822 992 l 138 56 m 408 1121 l 562 1312 l 637 1312 l 472 1121 l 408 1121 z "},"Ž":{"ha":881,"x_min":49,"x_max":832,"o":"m 138 56 l 832 56 l 832 0 l 49 0 l 49 36 l 733 972 l 59 972 l 59 1028 l 822 1028 l 822 992 l 138 56 m 597 1312 l 672 1312 l 473 1121 l 408 1121 l 209 1312 l 283 1312 l 440 1158 l 597 1312 z "},"Ż":{"ha":881,"x_min":49,"x_max":832,"o":"m 138 56 l 832 56 l 832 0 l 49 0 l 49 36 l 733 972 l 59 972 l 59 1028 l 822 1028 l 822 992 l 138 56 m 440 1169 q 403 1182 417 1169 q 390 1217 390 1194 q 403 1252 390 1239 q 440 1265 417 1265 q 477 1252 464 1265 q 491 1217 491 1239 q 477 1182 491 1194 q 440 1169 464 1169 z "},"Ẓ":{"ha":881,"x_min":49,"x_max":832,"o":"m 138 56 l 832 56 l 832 0 l 49 0 l 49 36 l 733 972 l 59 972 l 59 1028 l 822 1028 l 822 992 l 138 56 m 440 -222 q 403 -209 417 -222 q 390 -174 390 -196 q 403 -138 390 -151 q 440 -125 417 -125 q 477 -138 464 -125 q 491 -174 491 -151 q 477 -209 491 -196 q 440 -222 464 -222 z "},"a":{"ha":777,"x_min":90,"x_max":656,"o":"m 367 762 q 526 738 463 762 q 623 658 590 714 q 656 506 656 601 l 656 0 l 602 0 l 597 92 l 591 92 q 478 17 548 45 q 333 -11 408 -11 q 202 13 256 -11 q 119 81 147 37 q 90 188 90 126 q 119 294 90 251 q 208 363 147 337 q 367 401 269 390 l 594 428 l 594 506 q 568 628 594 584 q 493 689 542 672 q 365 706 443 706 q 251 697 310 706 q 135 667 192 688 l 135 724 q 245 752 184 742 q 367 762 307 762 m 338 43 q 476 72 410 43 q 594 155 542 100 l 594 376 l 368 349 q 245 320 291 340 q 177 269 199 300 q 156 192 156 238 q 201 82 156 121 q 338 43 247 43 z "},"á":{"ha":777,"x_min":90,"x_max":656,"o":"m 367 762 q 526 738 463 762 q 623 658 590 714 q 656 506 656 601 l 656 0 l 602 0 l 597 92 l 591 92 q 478 17 548 45 q 333 -11 408 -11 q 202 13 256 -11 q 119 81 147 37 q 90 188 90 126 q 119 294 90 251 q 208 363 147 337 q 367 401 269 390 l 594 428 l 594 506 q 568 628 594 584 q 493 689 542 672 q 365 706 443 706 q 251 697 310 706 q 135 667 192 688 l 135 724 q 245 752 184 742 q 367 762 307 762 m 338 43 q 476 72 410 43 q 594 155 542 100 l 594 376 l 368 349 q 245 320 291 340 q 177 269 199 300 q 156 192 156 238 q 201 82 156 121 q 338 43 247 43 m 355 876 l 540 1122 l 615 1122 l 419 876 l 355 876 z "},"ă":{"ha":777,"x_min":90,"x_max":656,"o":"m 367 762 q 526 738 463 762 q 623 658 590 714 q 656 506 656 601 l 656 0 l 602 0 l 597 92 l 591 92 q 478 17 548 45 q 333 -11 408 -11 q 202 13 256 -11 q 119 81 147 37 q 90 188 90 126 q 119 294 90 251 q 208 363 147 337 q 367 401 269 390 l 594 428 l 594 506 q 568 628 594 584 q 493 689 542 672 q 365 706 443 706 q 251 697 310 706 q 135 667 192 688 l 135 724 q 245 752 184 742 q 367 762 307 762 m 338 43 q 476 72 410 43 q 594 155 542 100 l 594 376 l 368 349 q 245 320 291 340 q 177 269 199 300 q 156 192 156 238 q 201 82 156 121 q 338 43 247 43 m 388 884 q 273 912 321 884 q 200 989 225 940 q 171 1103 174 1038 l 221 1103 q 267 976 226 1022 q 388 931 307 931 q 553 1103 541 931 l 603 1103 q 543 944 598 1003 q 388 884 488 884 z "},"ắ":{"ha":777,"x_min":90,"x_max":656,"o":"m 367 762 q 526 738 463 762 q 623 658 590 714 q 656 506 656 601 l 656 0 l 602 0 l 597 92 l 591 92 q 478 17 548 45 q 333 -11 408 -11 q 202 13 256 -11 q 119 81 147 37 q 90 188 90 126 q 119 294 90 251 q 208 363 147 337 q 367 401 269 390 l 594 428 l 594 506 q 568 628 594 584 q 493 689 542 672 q 365 706 443 706 q 251 697 310 706 q 135 667 192 688 l 135 724 q 245 752 184 742 q 367 762 307 762 m 338 43 q 476 72 410 43 q 594 155 542 100 l 594 376 l 368 349 q 245 320 291 340 q 177 269 199 300 q 156 192 156 238 q 201 82 156 121 q 338 43 247 43 m 357 1108 l 510 1297 l 582 1297 l 417 1108 l 357 1108 m 388 885 q 272 913 320 885 q 199 989 224 940 q 170 1101 174 1038 l 220 1101 q 266 976 226 1022 q 388 931 307 931 q 553 1101 542 931 l 603 1101 q 543 944 599 1003 q 388 885 488 885 z "},"ặ":{"ha":777,"x_min":90,"x_max":656,"o":"m 367 762 q 526 738 463 762 q 623 658 590 714 q 656 506 656 601 l 656 0 l 602 0 l 597 92 l 591 92 q 478 17 548 45 q 333 -11 408 -11 q 202 13 256 -11 q 119 81 147 37 q 90 188 90 126 q 119 294 90 251 q 208 363 147 337 q 367 401 269 390 l 594 428 l 594 506 q 568 628 594 584 q 493 689 542 672 q 365 706 443 706 q 251 697 310 706 q 135 667 192 688 l 135 724 q 245 752 184 742 q 367 762 307 762 m 338 43 q 476 72 410 43 q 594 155 542 100 l 594 376 l 368 349 q 245 320 291 340 q 177 269 199 300 q 156 192 156 238 q 201 82 156 121 q 338 43 247 43 m 402 -223 q 366 -210 380 -223 q 352 -174 352 -197 q 366 -139 352 -152 q 402 -125 380 -125 q 438 -139 424 -125 q 452 -174 452 -152 q 438 -210 452 -197 q 402 -223 424 -223 m 388 884 q 273 912 321 884 q 200 989 225 940 q 171 1103 174 1038 l 221 1103 q 267 976 226 1022 q 388 931 307 931 q 553 1103 541 931 l 603 1103 q 543 944 598 1003 q 388 884 488 884 z "},"ằ":{"ha":777,"x_min":90,"x_max":656,"o":"m 367 762 q 526 738 463 762 q 623 658 590 714 q 656 506 656 601 l 656 0 l 602 0 l 597 92 l 591 92 q 478 17 548 45 q 333 -11 408 -11 q 202 13 256 -11 q 119 81 147 37 q 90 188 90 126 q 119 294 90 251 q 208 363 147 337 q 367 401 269 390 l 594 428 l 594 506 q 568 628 594 584 q 493 689 542 672 q 365 706 443 706 q 251 697 310 706 q 135 667 192 688 l 135 724 q 245 752 184 742 q 367 762 307 762 m 338 43 q 476 72 410 43 q 594 155 542 100 l 594 376 l 368 349 q 245 320 291 340 q 177 269 199 300 q 156 192 156 238 q 201 82 156 121 q 338 43 247 43 m 357 1108 l 192 1297 l 263 1297 l 417 1108 l 357 1108 m 388 885 q 272 913 320 885 q 199 989 224 940 q 170 1101 174 1038 l 220 1101 q 266 976 226 1022 q 388 931 307 931 q 553 1101 542 931 l 603 1101 q 543 944 599 1003 q 388 885 488 885 z "},"ẳ":{"ha":777,"x_min":90,"x_max":656,"o":"m 367 762 q 526 738 463 762 q 623 658 590 714 q 656 506 656 601 l 656 0 l 602 0 l 597 92 l 591 92 q 478 17 548 45 q 333 -11 408 -11 q 202 13 256 -11 q 119 81 147 37 q 90 188 90 126 q 119 294 90 251 q 208 363 147 337 q 367 401 269 390 l 594 428 l 594 506 q 568 628 594 584 q 493 689 542 672 q 365 706 443 706 q 251 697 310 706 q 135 667 192 688 l 135 724 q 245 752 184 742 q 367 762 307 762 m 338 43 q 476 72 410 43 q 594 155 542 100 l 594 376 l 368 349 q 245 320 291 340 q 177 269 199 300 q 156 192 156 238 q 201 82 156 121 q 338 43 247 43 m 360 1108 q 381 1151 362 1137 q 436 1179 401 1166 q 476 1199 464 1190 q 488 1222 488 1207 q 468 1248 488 1239 q 399 1258 448 1258 q 323 1252 356 1258 q 249 1233 290 1247 l 249 1274 q 400 1298 312 1298 q 502 1277 469 1298 q 535 1222 535 1257 q 518 1182 535 1195 q 468 1156 501 1168 q 427 1135 441 1144 q 412 1108 414 1126 l 360 1108 m 388 885 q 272 913 320 885 q 199 989 224 940 q 170 1101 174 1038 l 220 1101 q 266 976 226 1022 q 388 931 307 931 q 553 1101 542 931 l 603 1101 q 543 944 599 1003 q 388 885 488 885 z "},"ẵ":{"ha":777,"x_min":90,"x_max":656,"o":"m 367 762 q 526 738 463 762 q 623 658 590 714 q 656 506 656 601 l 656 0 l 602 0 l 597 92 l 591 92 q 478 17 548 45 q 333 -11 408 -11 q 202 13 256 -11 q 119 81 147 37 q 90 188 90 126 q 119 294 90 251 q 208 363 147 337 q 367 401 269 390 l 594 428 l 594 506 q 568 628 594 584 q 493 689 542 672 q 365 706 443 706 q 251 697 310 706 q 135 667 192 688 l 135 724 q 245 752 184 742 q 367 762 307 762 m 338 43 q 476 72 410 43 q 594 155 542 100 l 594 376 l 368 349 q 245 320 291 340 q 177 269 199 300 q 156 192 156 238 q 201 82 156 121 q 338 43 247 43 m 494 1161 q 439 1168 465 1161 q 375 1188 413 1175 q 323 1206 344 1200 q 280 1212 301 1212 q 216 1200 244 1212 q 161 1164 188 1188 l 161 1216 q 280 1258 203 1258 q 335 1251 308 1258 q 399 1231 361 1244 q 451 1213 429 1219 q 494 1207 473 1207 q 558 1219 529 1207 q 613 1255 586 1231 l 613 1203 q 494 1161 571 1161 m 388 885 q 272 913 320 885 q 199 989 224 940 q 170 1101 174 1038 l 220 1101 q 266 976 226 1022 q 388 931 307 931 q 553 1101 542 931 l 603 1101 q 543 944 599 1003 q 388 885 488 885 z "},"â":{"ha":777,"x_min":90,"x_max":656,"o":"m 367 762 q 526 738 463 762 q 623 658 590 714 q 656 506 656 601 l 656 0 l 602 0 l 597 92 l 591 92 q 478 17 548 45 q 333 -11 408 -11 q 202 13 256 -11 q 119 81 147 37 q 90 188 90 126 q 119 294 90 251 q 208 363 147 337 q 367 401 269 390 l 594 428 l 594 506 q 568 628 594 584 q 493 689 542 672 q 365 706 443 706 q 251 697 310 706 q 135 667 192 688 l 135 724 q 245 752 184 742 q 367 762 307 762 m 338 43 q 476 72 410 43 q 594 155 542 100 l 594 376 l 368 349 q 245 320 291 340 q 177 269 199 300 q 156 192 156 238 q 201 82 156 121 q 338 43 247 43 m 600 876 l 536 876 l 387 1082 l 238 876 l 174 876 l 355 1122 l 419 1122 l 600 876 z "},"ấ":{"ha":777,"x_min":90,"x_max":768,"o":"m 367 762 q 526 738 463 762 q 623 658 590 714 q 656 506 656 601 l 656 0 l 602 0 l 597 92 l 591 92 q 478 17 548 45 q 333 -11 408 -11 q 202 13 256 -11 q 119 81 147 37 q 90 188 90 126 q 119 294 90 251 q 208 363 147 337 q 367 401 269 390 l 594 428 l 594 506 q 568 628 594 584 q 493 689 542 672 q 365 706 443 706 q 251 697 310 706 q 135 667 192 688 l 135 724 q 245 752 184 742 q 367 762 307 762 m 338 43 q 476 72 410 43 q 594 155 542 100 l 594 376 l 368 349 q 245 320 291 340 q 177 269 199 300 q 156 192 156 238 q 201 82 156 121 q 338 43 247 43 m 697 1297 l 768 1297 l 603 1108 l 543 1108 l 697 1297 m 355 1122 l 419 1122 l 600 876 l 536 876 l 387 1082 l 238 876 l 174 876 l 355 1122 z "},"ậ":{"ha":777,"x_min":90,"x_max":656,"o":"m 367 762 q 526 738 463 762 q 623 658 590 714 q 656 506 656 601 l 656 0 l 602 0 l 597 92 l 591 92 q 478 17 548 45 q 333 -11 408 -11 q 202 13 256 -11 q 119 81 147 37 q 90 188 90 126 q 119 294 90 251 q 208 363 147 337 q 367 401 269 390 l 594 428 l 594 506 q 568 628 594 584 q 493 689 542 672 q 365 706 443 706 q 251 697 310 706 q 135 667 192 688 l 135 724 q 245 752 184 742 q 367 762 307 762 m 338 43 q 476 72 410 43 q 594 155 542 100 l 594 376 l 368 349 q 245 320 291 340 q 177 269 199 300 q 156 192 156 238 q 201 82 156 121 q 338 43 247 43 m 402 -223 q 366 -210 380 -223 q 352 -174 352 -197 q 366 -139 352 -152 q 402 -125 380 -125 q 438 -139 424 -125 q 452 -174 452 -152 q 438 -210 452 -197 q 402 -223 424 -223 m 600 876 l 536 876 l 387 1082 l 238 876 l 174 876 l 355 1122 l 419 1122 l 600 876 z "},"ầ":{"ha":777,"x_min":90,"x_max":656,"o":"m 367 762 q 526 738 463 762 q 623 658 590 714 q 656 506 656 601 l 656 0 l 602 0 l 597 92 l 591 92 q 478 17 548 45 q 333 -11 408 -11 q 202 13 256 -11 q 119 81 147 37 q 90 188 90 126 q 119 294 90 251 q 208 363 147 337 q 367 401 269 390 l 594 428 l 594 506 q 568 628 594 584 q 493 689 542 672 q 365 706 443 706 q 251 697 310 706 q 135 667 192 688 l 135 724 q 245 752 184 742 q 367 762 307 762 m 338 43 q 476 72 410 43 q 594 155 542 100 l 594 376 l 368 349 q 245 320 291 340 q 177 269 199 300 q 156 192 156 238 q 201 82 156 121 q 338 43 247 43 m 622 1108 l 562 1108 l 397 1297 l 468 1297 l 622 1108 m 355 1122 l 419 1122 l 600 876 l 536 876 l 387 1082 l 238 876 l 174 876 l 355 1122 z "},"ẩ":{"ha":777,"x_min":90,"x_max":721,"o":"m 367 762 q 526 738 463 762 q 623 658 590 714 q 656 506 656 601 l 656 0 l 602 0 l 597 92 l 591 92 q 478 17 548 45 q 333 -11 408 -11 q 202 13 256 -11 q 119 81 147 37 q 90 188 90 126 q 119 294 90 251 q 208 363 147 337 q 367 401 269 390 l 594 428 l 594 506 q 568 628 594 584 q 493 689 542 672 q 365 706 443 706 q 251 697 310 706 q 135 667 192 688 l 135 724 q 245 752 184 742 q 367 762 307 762 m 338 43 q 476 72 410 43 q 594 155 542 100 l 594 376 l 368 349 q 245 320 291 340 q 177 269 199 300 q 156 192 156 238 q 201 82 156 121 q 338 43 247 43 m 588 1298 q 688 1278 656 1298 q 721 1222 721 1258 q 704 1182 721 1195 q 656 1156 688 1169 q 615 1135 628 1145 q 599 1108 601 1126 l 549 1108 q 569 1151 550 1137 q 624 1180 588 1166 q 663 1198 650 1190 q 675 1222 675 1207 q 655 1248 675 1239 q 586 1258 635 1258 q 511 1252 544 1258 q 438 1234 478 1247 l 438 1274 q 588 1298 499 1298 m 355 1122 l 419 1122 l 600 876 l 536 876 l 387 1082 l 238 876 l 174 876 l 355 1122 z "},"ẫ":{"ha":777,"x_min":90,"x_max":656,"o":"m 367 762 q 526 738 463 762 q 623 658 590 714 q 656 506 656 601 l 656 0 l 602 0 l 597 92 l 591 92 q 478 17 548 45 q 333 -11 408 -11 q 202 13 256 -11 q 119 81 147 37 q 90 188 90 126 q 119 294 90 251 q 208 363 147 337 q 367 401 269 390 l 594 428 l 594 506 q 568 628 594 584 q 493 689 542 672 q 365 706 443 706 q 251 697 310 706 q 135 667 192 688 l 135 724 q 245 752 184 742 q 367 762 307 762 m 338 43 q 476 72 410 43 q 594 155 542 100 l 594 376 l 368 349 q 245 320 291 340 q 177 269 199 300 q 156 192 156 238 q 201 82 156 121 q 338 43 247 43 m 493 1207 q 557 1219 528 1207 q 611 1255 585 1231 l 611 1203 q 493 1161 568 1161 q 439 1168 465 1161 q 376 1188 413 1175 q 323 1206 345 1200 q 281 1212 301 1212 q 217 1200 245 1212 q 163 1164 188 1188 l 163 1216 q 281 1258 205 1258 q 335 1251 309 1258 q 398 1231 361 1244 q 450 1213 428 1219 q 493 1207 472 1207 m 354 1119 l 419 1119 l 603 876 l 538 876 l 387 1081 l 236 876 l 171 876 l 354 1119 z "},"ȁ":{"ha":777,"x_min":90,"x_max":656,"o":"m 367 762 q 526 738 463 762 q 623 658 590 714 q 656 506 656 601 l 656 0 l 602 0 l 597 92 l 591 92 q 478 17 548 45 q 333 -11 408 -11 q 202 13 256 -11 q 119 81 147 37 q 90 188 90 126 q 119 294 90 251 q 208 363 147 337 q 367 401 269 390 l 594 428 l 594 506 q 568 628 594 584 q 493 689 542 672 q 365 706 443 706 q 251 697 310 706 q 135 667 192 688 l 135 724 q 245 752 184 742 q 367 762 307 762 m 338 43 q 476 72 410 43 q 594 155 542 100 l 594 376 l 368 349 q 245 320 291 340 q 177 269 199 300 q 156 192 156 238 q 201 82 156 121 q 338 43 247 43 m 239 876 l 108 1122 l 170 1122 l 296 876 l 239 876 m 478 876 l 347 1122 l 409 1122 l 535 876 l 478 876 z "},"ä":{"ha":777,"x_min":90,"x_max":656,"o":"m 367 762 q 526 738 463 762 q 623 658 590 714 q 656 506 656 601 l 656 0 l 602 0 l 597 92 l 591 92 q 478 17 548 45 q 333 -11 408 -11 q 202 13 256 -11 q 119 81 147 37 q 90 188 90 126 q 119 294 90 251 q 208 363 147 337 q 367 401 269 390 l 594 428 l 594 506 q 568 628 594 584 q 493 689 542 672 q 365 706 443 706 q 251 697 310 706 q 135 667 192 688 l 135 724 q 245 752 184 742 q 367 762 307 762 m 338 43 q 476 72 410 43 q 594 155 542 100 l 594 376 l 368 349 q 245 320 291 340 q 177 269 199 300 q 156 192 156 238 q 201 82 156 121 q 338 43 247 43 m 218 939 q 182 952 196 939 q 169 988 169 965 q 182 1024 169 1010 q 218 1038 196 1038 q 254 1024 240 1038 q 268 988 268 1010 q 254 952 268 965 q 218 939 240 939 m 556 939 q 519 952 533 939 q 506 988 506 965 q 519 1024 506 1010 q 556 1038 533 1038 q 591 1024 578 1038 q 605 988 605 1010 q 591 952 605 965 q 556 939 578 939 z "},"ạ":{"ha":777,"x_min":90,"x_max":656,"o":"m 367 762 q 526 738 463 762 q 623 658 590 714 q 656 506 656 601 l 656 0 l 602 0 l 597 92 l 591 92 q 478 17 548 45 q 333 -11 408 -11 q 202 13 256 -11 q 119 81 147 37 q 90 188 90 126 q 119 294 90 251 q 208 363 147 337 q 367 401 269 390 l 594 428 l 594 506 q 568 628 594 584 q 493 689 542 672 q 365 706 443 706 q 251 697 310 706 q 135 667 192 688 l 135 724 q 245 752 184 742 q 367 762 307 762 m 338 43 q 476 72 410 43 q 594 155 542 100 l 594 376 l 368 349 q 245 320 291 340 q 177 269 199 300 q 156 192 156 238 q 201 82 156 121 q 338 43 247 43 m 402 -223 q 366 -210 380 -223 q 352 -174 352 -197 q 366 -139 352 -152 q 402 -125 380 -125 q 438 -139 424 -125 q 452 -174 452 -152 q 438 -210 452 -197 q 402 -223 424 -223 z "},"à":{"ha":777,"x_min":90,"x_max":656,"o":"m 367 762 q 526 738 463 762 q 623 658 590 714 q 656 506 656 601 l 656 0 l 602 0 l 597 92 l 591 92 q 478 17 548 45 q 333 -11 408 -11 q 202 13 256 -11 q 119 81 147 37 q 90 188 90 126 q 119 294 90 251 q 208 363 147 337 q 367 401 269 390 l 594 428 l 594 506 q 568 628 594 584 q 493 689 542 672 q 365 706 443 706 q 251 697 310 706 q 135 667 192 688 l 135 724 q 245 752 184 742 q 367 762 307 762 m 338 43 q 476 72 410 43 q 594 155 542 100 l 594 376 l 368 349 q 245 320 291 340 q 177 269 199 300 q 156 192 156 238 q 201 82 156 121 q 338 43 247 43 m 355 876 l 158 1122 l 233 1122 l 419 876 l 355 876 z "},"ả":{"ha":777,"x_min":90,"x_max":656,"o":"m 367 762 q 526 738 463 762 q 623 658 590 714 q 656 506 656 601 l 656 0 l 602 0 l 597 92 l 591 92 q 478 17 548 45 q 333 -11 408 -11 q 202 13 256 -11 q 119 81 147 37 q 90 188 90 126 q 119 294 90 251 q 208 363 147 337 q 367 401 269 390 l 594 428 l 594 506 q 568 628 594 584 q 493 689 542 672 q 365 706 443 706 q 251 697 310 706 q 135 667 192 688 l 135 724 q 245 752 184 742 q 367 762 307 762 m 338 43 q 476 72 410 43 q 594 155 542 100 l 594 376 l 368 349 q 245 320 291 340 q 177 269 199 300 q 156 192 156 238 q 201 82 156 121 q 338 43 247 43 m 363 876 q 375 922 364 903 q 399 952 385 940 q 437 978 413 963 q 474 1005 463 993 q 486 1035 486 1017 q 462 1075 486 1063 q 388 1088 438 1088 q 326 1083 358 1088 q 271 1071 295 1079 l 271 1114 q 325 1126 294 1122 q 385 1131 356 1131 q 533 1036 533 1131 q 524 999 533 1015 q 504 974 516 984 q 472 951 492 965 q 428 919 443 934 q 412 876 413 903 l 363 876 z "},"ȃ":{"ha":777,"x_min":90,"x_max":656,"o":"m 367 762 q 526 738 463 762 q 623 658 590 714 q 656 506 656 601 l 656 0 l 602 0 l 597 92 l 591 92 q 478 17 548 45 q 333 -11 408 -11 q 202 13 256 -11 q 119 81 147 37 q 90 188 90 126 q 119 294 90 251 q 208 363 147 337 q 367 401 269 390 l 594 428 l 594 506 q 568 628 594 584 q 493 689 542 672 q 365 706 443 706 q 251 697 310 706 q 135 667 192 688 l 135 724 q 245 752 184 742 q 367 762 307 762 m 338 43 q 476 72 410 43 q 594 155 542 100 l 594 376 l 368 349 q 245 320 291 340 q 177 269 199 300 q 156 192 156 238 q 201 82 156 121 q 338 43 247 43 m 171 896 q 231 1055 176 996 q 385 1115 285 1115 q 501 1087 453 1115 q 574 1010 549 1059 q 603 896 599 960 l 553 896 q 506 1021 547 976 q 385 1067 465 1067 q 266 1021 306 1067 q 221 896 226 976 l 171 896 z "},"ā":{"ha":777,"x_min":90,"x_max":656,"o":"m 367 762 q 526 738 463 762 q 623 658 590 714 q 656 506 656 601 l 656 0 l 602 0 l 597 92 l 591 92 q 478 17 548 45 q 333 -11 408 -11 q 202 13 256 -11 q 119 81 147 37 q 90 188 90 126 q 119 294 90 251 q 208 363 147 337 q 367 401 269 390 l 594 428 l 594 506 q 568 628 594 584 q 493 689 542 672 q 365 706 443 706 q 251 697 310 706 q 135 667 192 688 l 135 724 q 245 752 184 742 q 367 762 307 762 m 338 43 q 476 72 410 43 q 594 155 542 100 l 594 376 l 368 349 q 245 320 291 340 q 177 269 199 300 q 156 192 156 238 q 201 82 156 121 q 338 43 247 43 m 163 964 l 163 1013 l 610 1013 l 610 964 l 163 964 z "},"ą":{"ha":777,"x_min":90,"x_max":735,"o":"m 617 -240 q 735 -208 675 -240 l 735 -251 q 677 -272 709 -265 q 617 -280 646 -280 q 512 -248 551 -280 q 474 -160 474 -215 q 505 -65 474 -108 q 601 16 535 -22 l 597 92 l 591 92 q 478 17 548 45 q 333 -11 408 -11 q 202 13 256 -11 q 119 81 147 37 q 90 188 90 126 q 119 294 90 251 q 208 363 147 337 q 367 401 269 390 l 594 428 l 594 506 q 568 628 594 584 q 493 689 542 672 q 365 706 443 706 q 251 697 310 706 q 135 667 192 688 l 135 724 q 245 752 184 742 q 367 762 307 762 q 526 738 463 762 q 623 658 590 714 q 656 506 656 601 l 656 0 q 552 -74 584 -37 q 521 -157 521 -111 q 547 -217 521 -195 q 617 -240 573 -240 m 338 43 q 476 72 410 43 q 594 155 542 100 l 594 376 l 368 349 q 245 320 291 340 q 177 269 199 300 q 156 192 156 238 q 201 82 156 121 q 338 43 247 43 z "},"å":{"ha":777,"x_min":90,"x_max":656,"o":"m 367 762 q 526 738 463 762 q 623 658 590 714 q 656 506 656 601 l 656 0 l 602 0 l 597 92 l 591 92 q 478 17 548 45 q 333 -11 408 -11 q 202 13 256 -11 q 119 81 147 37 q 90 188 90 126 q 119 294 90 251 q 208 363 147 337 q 367 401 269 390 l 594 428 l 594 506 q 568 628 594 584 q 493 689 542 672 q 365 706 443 706 q 251 697 310 706 q 135 667 192 688 l 135 724 q 245 752 184 742 q 367 762 307 762 m 338 43 q 476 72 410 43 q 594 155 542 100 l 594 376 l 368 349 q 245 320 291 340 q 177 269 199 300 q 156 192 156 238 q 201 82 156 121 q 338 43 247 43 m 387 873 q 320 890 350 873 q 274 936 291 906 q 258 1002 258 965 q 274 1068 258 1039 q 320 1115 291 1098 q 387 1131 350 1131 q 453 1115 424 1131 q 499 1068 483 1098 q 516 1002 516 1039 q 499 936 516 965 q 453 890 483 906 q 387 873 424 873 m 387 913 q 450 937 426 913 q 475 1002 475 961 q 450 1068 475 1044 q 387 1092 426 1092 q 323 1068 348 1092 q 299 1002 299 1044 q 323 937 299 961 q 387 913 348 913 z "},"ǻ":{"ha":777,"x_min":90,"x_max":656,"o":"m 367 762 q 526 738 463 762 q 623 658 590 714 q 656 506 656 601 l 656 0 l 602 0 l 597 92 l 591 92 q 478 17 548 45 q 333 -11 408 -11 q 202 13 256 -11 q 119 81 147 37 q 90 188 90 126 q 119 294 90 251 q 208 363 147 337 q 367 401 269 390 l 594 428 l 594 506 q 568 628 594 584 q 493 689 542 672 q 365 706 443 706 q 251 697 310 706 q 135 667 192 688 l 135 724 q 245 752 184 742 q 367 762 307 762 m 338 43 q 476 72 410 43 q 594 155 542 100 l 594 376 l 368 349 q 245 320 291 340 q 177 269 199 300 q 156 192 156 238 q 201 82 156 121 q 338 43 247 43 m 488 1085 q 516 1002 516 1049 q 499 936 516 965 q 453 890 483 906 q 387 873 424 873 q 320 890 350 873 q 274 936 291 906 q 258 1002 258 965 q 274 1068 258 1039 q 320 1115 291 1098 q 387 1131 350 1131 q 456 1113 426 1131 l 563 1236 l 627 1236 l 488 1085 m 387 913 q 450 937 426 913 q 475 1002 475 961 q 450 1068 475 1044 q 387 1092 426 1092 q 323 1068 348 1092 q 299 1002 299 1044 q 323 937 299 961 q 387 913 348 913 z "},"ã":{"ha":777,"x_min":90,"x_max":656,"o":"m 367 762 q 526 738 463 762 q 623 658 590 714 q 656 506 656 601 l 656 0 l 602 0 l 597 92 l 591 92 q 478 17 548 45 q 333 -11 408 -11 q 202 13 256 -11 q 119 81 147 37 q 90 188 90 126 q 119 294 90 251 q 208 363 147 337 q 367 401 269 390 l 594 428 l 594 506 q 568 628 594 584 q 493 689 542 672 q 365 706 443 706 q 251 697 310 706 q 135 667 192 688 l 135 724 q 245 752 184 742 q 367 762 307 762 m 338 43 q 476 72 410 43 q 594 155 542 100 l 594 376 l 368 349 q 245 320 291 340 q 177 269 199 300 q 156 192 156 238 q 201 82 156 121 q 338 43 247 43 m 492 953 q 438 960 464 953 q 376 981 412 967 q 323 1000 343 994 q 281 1006 302 1006 q 218 994 247 1006 q 163 956 189 982 l 163 1010 q 281 1053 208 1053 q 336 1046 310 1053 q 398 1025 362 1039 q 451 1007 431 1013 q 492 1001 472 1001 q 556 1013 527 1001 q 610 1050 585 1024 l 610 996 q 492 953 566 953 z "},"æ":{"ha":1285,"x_min":90,"x_max":1214,"o":"m 1214 351 l 656 351 q 740 118 661 192 q 964 43 818 43 q 1176 81 1058 43 l 1176 24 q 958 -12 1065 -12 q 649 135 737 -12 q 496 22 574 54 q 335 -11 419 -11 q 204 13 259 -11 q 119 82 149 37 q 90 189 90 127 q 163 346 90 288 q 390 403 235 403 l 594 403 l 594 506 q 568 628 594 584 q 493 689 542 672 q 365 706 443 706 q 251 697 310 706 q 135 667 192 688 l 135 724 q 245 752 184 742 q 366 762 306 762 q 550 725 482 762 q 640 600 618 688 q 744 721 676 681 q 908 762 812 762 q 1134 664 1055 762 q 1214 377 1214 566 l 1214 351 m 906 708 q 656 403 663 708 l 1151 403 q 906 708 1144 708 m 340 43 q 491 77 417 43 q 624 188 565 111 q 595 351 598 258 l 386 351 q 210 309 265 351 q 156 193 156 266 q 202 82 156 122 q 340 43 248 43 z "},"ǽ":{"ha":1285,"x_min":90,"x_max":1214,"o":"m 1214 351 l 656 351 q 740 118 661 192 q 964 43 818 43 q 1176 81 1058 43 l 1176 24 q 958 -12 1065 -12 q 649 135 737 -12 q 496 22 574 54 q 335 -11 419 -11 q 204 13 259 -11 q 119 82 149 37 q 90 189 90 127 q 163 346 90 288 q 390 403 235 403 l 594 403 l 594 506 q 568 628 594 584 q 493 689 542 672 q 365 706 443 706 q 251 697 310 706 q 135 667 192 688 l 135 724 q 245 752 184 742 q 366 762 306 762 q 550 725 482 762 q 640 600 618 688 q 744 721 676 681 q 908 762 812 762 q 1134 664 1055 762 q 1214 377 1214 566 l 1214 351 m 906 708 q 656 403 663 708 l 1151 403 q 906 708 1144 708 m 340 43 q 491 77 417 43 q 624 188 565 111 q 595 351 598 258 l 386 351 q 210 309 265 351 q 156 193 156 266 q 202 82 156 122 q 340 43 248 43 m 594 876 l 779 1122 l 854 1122 l 658 876 l 594 876 z "},"b":{"ha":863,"x_min":133,"x_max":776,"o":"m 378 -12 q 133 22 252 -12 l 133 1122 l 196 1122 l 196 663 l 200 663 q 310 736 246 710 q 453 762 375 762 q 620 724 548 762 q 735 602 693 685 q 776 390 776 519 q 676 88 776 188 q 378 -12 576 -12 m 385 44 q 630 127 549 44 q 712 383 712 210 q 640 629 712 553 q 444 705 568 705 q 306 678 370 705 q 196 594 242 651 l 196 69 q 385 44 278 44 z "},"c":{"ha":669,"x_min":87,"x_max":634,"o":"m 429 -12 q 175 84 263 -12 q 87 375 87 180 q 182 666 87 571 q 459 762 276 762 q 550 756 504 762 q 634 738 595 749 l 634 679 q 548 698 590 692 q 461 705 507 705 q 228 627 305 705 q 152 378 152 549 q 223 124 152 204 q 435 44 294 44 q 634 83 524 44 l 634 24 q 429 -12 533 -12 z "},"ć":{"ha":669,"x_min":87,"x_max":634,"o":"m 429 -12 q 175 84 263 -12 q 87 375 87 180 q 182 666 87 571 q 459 762 276 762 q 550 756 504 762 q 634 738 595 749 l 634 679 q 548 698 590 692 q 461 705 507 705 q 228 627 305 705 q 152 378 152 549 q 223 124 152 204 q 435 44 294 44 q 634 83 524 44 l 634 24 q 429 -12 533 -12 m 369 876 l 555 1122 l 630 1122 l 433 876 l 369 876 z "},"č":{"ha":669,"x_min":87,"x_max":634,"o":"m 429 -12 q 175 84 263 -12 q 87 375 87 180 q 182 666 87 571 q 459 762 276 762 q 550 756 504 762 q 634 738 595 749 l 634 679 q 548 698 590 692 q 461 705 507 705 q 228 627 305 705 q 152 378 152 549 q 223 124 152 204 q 435 44 294 44 q 634 83 524 44 l 634 24 q 429 -12 533 -12 m 556 1122 l 620 1122 l 433 876 l 369 876 l 183 1122 l 247 1122 l 401 915 l 556 1122 z "},"ç":{"ha":669,"x_min":87,"x_max":634,"o":"m 461 705 q 228 627 305 705 q 152 378 152 549 q 223 124 152 204 q 435 44 294 44 q 634 83 524 44 l 634 24 q 429 -12 533 -12 l 423 -12 l 423 -76 q 510 -106 479 -79 q 541 -178 541 -132 q 506 -254 541 -228 q 408 -280 471 -280 q 339 -273 374 -280 q 280 -253 303 -265 l 280 -210 q 407 -240 341 -240 q 474 -225 451 -240 q 496 -177 496 -210 q 473 -130 496 -144 q 406 -115 451 -115 l 378 -115 l 378 -10 q 161 100 236 4 q 87 375 87 195 q 182 666 87 571 q 459 762 276 762 q 550 756 504 762 q 634 738 595 749 l 634 679 q 548 698 590 692 q 461 705 507 705 z "},"ḉ":{"ha":669,"x_min":87,"x_max":634,"o":"m 630 1122 l 433 876 l 369 876 l 555 1122 l 630 1122 m 461 705 q 228 627 305 705 q 152 378 152 549 q 223 124 152 204 q 435 44 294 44 q 634 83 524 44 l 634 24 q 429 -12 533 -12 l 423 -12 l 423 -76 q 510 -106 479 -79 q 541 -178 541 -132 q 506 -254 541 -228 q 408 -280 471 -280 q 339 -273 374 -280 q 280 -253 303 -265 l 280 -210 q 407 -240 341 -240 q 474 -225 451 -240 q 496 -177 496 -210 q 473 -130 496 -144 q 406 -115 451 -115 l 378 -115 l 378 -10 q 161 100 236 4 q 87 375 87 195 q 182 666 87 571 q 459 762 276 762 q 550 756 504 762 q 634 738 595 749 l 634 679 q 548 698 590 692 q 461 705 507 705 z "},"ĉ":{"ha":669,"x_min":87,"x_max":634,"o":"m 429 -12 q 175 84 263 -12 q 87 375 87 180 q 182 666 87 571 q 459 762 276 762 q 550 756 504 762 q 634 738 595 749 l 634 679 q 548 698 590 692 q 461 705 507 705 q 228 627 305 705 q 152 378 152 549 q 223 124 152 204 q 435 44 294 44 q 634 83 524 44 l 634 24 q 429 -12 533 -12 m 615 876 l 551 876 l 401 1082 l 252 876 l 188 876 l 369 1122 l 433 1122 l 615 876 z "},"ċ":{"ha":669,"x_min":87,"x_max":634,"o":"m 429 -12 q 175 84 263 -12 q 87 375 87 180 q 182 666 87 571 q 459 762 276 762 q 550 756 504 762 q 634 738 595 749 l 634 679 q 548 698 590 692 q 461 705 507 705 q 228 627 305 705 q 152 378 152 549 q 223 124 152 204 q 435 44 294 44 q 634 83 524 44 l 634 24 q 429 -12 533 -12 m 401 938 q 364 951 378 938 q 350 988 350 965 q 364 1024 350 1010 q 401 1038 378 1038 q 439 1024 425 1038 q 453 988 453 1010 q 439 951 453 965 q 401 938 425 938 z "},"d":{"ha":863,"x_min":87,"x_max":730,"o":"m 417 -12 q 244 27 318 -12 q 128 150 170 67 q 87 360 87 233 q 492 762 87 762 q 667 744 579 762 l 667 1122 l 730 1122 l 730 0 l 676 0 l 671 91 l 665 91 q 556 15 620 42 q 417 -12 492 -12 m 424 45 q 559 74 496 45 q 667 163 622 102 l 667 684 q 584 700 631 694 q 490 706 538 706 q 235 623 318 706 q 151 367 151 540 q 424 45 151 45 z "},"ð":{"ha":846,"x_min":87,"x_max":759,"o":"m 574 918 q 710 668 660 803 q 758 398 759 533 q 717 168 758 260 q 601 32 676 76 q 424 -12 526 -12 q 176 83 265 -12 q 87 376 87 178 q 128 592 87 506 q 245 719 170 678 q 421 761 320 761 q 642 677 561 761 q 509 908 592 805 l 167 855 l 160 902 l 473 951 q 272 1122 388 1045 l 360 1122 q 540 961 458 1058 l 735 992 l 742 944 l 574 918 m 424 44 q 623 125 552 44 q 694 374 694 206 q 423 706 694 706 q 151 376 151 706 q 424 44 151 44 z "},"ď":{"ha":863,"x_min":87,"x_max":879,"o":"m 417 -12 q 244 27 318 -12 q 128 150 170 67 q 87 360 87 233 q 492 762 87 762 q 667 744 579 762 l 667 1122 l 730 1122 l 730 0 l 676 0 l 671 91 l 665 91 q 556 15 620 42 q 417 -12 492 -12 m 424 45 q 559 74 496 45 q 667 163 622 102 l 667 684 q 584 700 631 694 q 490 706 538 706 q 235 623 318 706 q 151 367 151 540 q 424 45 151 45 m 813 819 q 826 1122 826 929 l 879 1122 q 873 967 879 1047 q 852 819 866 888 l 813 819 z "},"đ":{"ha":863,"x_min":87,"x_max":852,"o":"m 852 917 l 730 917 l 730 0 l 676 0 l 671 91 l 665 91 q 556 15 620 42 q 417 -12 492 -12 q 244 27 318 -12 q 128 150 170 67 q 87 360 87 233 q 492 762 87 762 q 667 744 579 762 l 667 917 l 370 917 l 370 967 l 667 967 l 667 1122 l 730 1122 l 730 967 l 852 967 l 852 917 m 667 684 q 584 700 631 694 q 490 706 538 706 q 235 623 318 706 q 151 367 151 540 q 424 45 151 45 q 559 74 496 45 q 667 163 622 102 l 667 684 z "},"ḍ":{"ha":863,"x_min":87,"x_max":730,"o":"m 417 -12 q 244 27 318 -12 q 128 150 170 67 q 87 360 87 233 q 492 762 87 762 q 667 744 579 762 l 667 1122 l 730 1122 l 730 0 l 676 0 l 671 91 l 665 91 q 556 15 620 42 q 417 -12 492 -12 m 424 45 q 559 74 496 45 q 667 163 622 102 l 667 684 q 584 700 631 694 q 490 706 538 706 q 235 623 318 706 q 151 367 151 540 q 424 45 151 45 m 431 -223 q 394 -210 408 -223 q 381 -174 381 -197 q 394 -139 381 -152 q 431 -125 408 -125 q 467 -139 453 -125 q 481 -174 481 -152 q 467 -210 481 -197 q 431 -223 453 -223 z "},"ḏ":{"ha":863,"x_min":87,"x_max":730,"o":"m 417 -12 q 244 27 318 -12 q 128 150 170 67 q 87 360 87 233 q 492 762 87 762 q 667 744 579 762 l 667 1122 l 730 1122 l 730 0 l 676 0 l 671 91 l 665 91 q 556 15 620 42 q 417 -12 492 -12 m 424 45 q 559 74 496 45 q 667 163 622 102 l 667 684 q 584 700 631 694 q 490 706 538 706 q 235 623 318 706 q 151 367 151 540 q 424 45 151 45 m 231 -200 l 231 -151 l 631 -151 l 631 -200 l 231 -200 z "},"ǳ":{"ha":1560,"x_min":87,"x_max":1516,"o":"m 417 -12 q 244 27 318 -12 q 128 150 170 67 q 87 360 87 233 q 492 762 87 762 q 667 744 579 762 l 667 1122 l 730 1122 l 730 0 l 676 0 l 671 91 l 665 91 q 556 15 620 42 q 417 -12 492 -12 m 424 45 q 559 74 496 45 q 667 163 622 102 l 667 684 q 584 700 631 694 q 490 706 538 706 q 235 623 318 706 q 151 367 151 540 q 424 45 151 45 m 1000 56 l 1516 56 l 1516 0 l 911 0 l 911 38 l 1417 695 l 921 695 l 921 751 l 1506 751 l 1506 713 l 1000 56 z "},"ǆ":{"ha":1560,"x_min":87,"x_max":1516,"o":"m 417 -12 q 244 27 318 -12 q 128 150 170 67 q 87 360 87 233 q 492 762 87 762 q 667 744 579 762 l 667 1122 l 730 1122 l 730 0 l 676 0 l 671 91 l 665 91 q 556 15 620 42 q 417 -12 492 -12 m 424 45 q 559 74 496 45 q 667 163 622 102 l 667 684 q 584 700 631 694 q 490 706 538 706 q 235 623 318 706 q 151 367 151 540 q 424 45 151 45 m 1000 56 l 1516 56 l 1516 0 l 911 0 l 911 38 l 1417 695 l 921 695 l 921 751 l 1506 751 l 1506 713 l 1000 56 m 1369 1122 l 1433 1122 l 1246 876 l 1182 876 l 995 1122 l 1059 1122 l 1214 915 l 1369 1122 z "},"e":{"ha":785,"x_min":87,"x_max":714,"o":"m 714 351 l 151 351 q 235 118 156 192 q 462 43 314 43 q 677 81 555 43 l 677 24 q 456 -12 562 -12 q 182 83 277 -12 q 87 375 87 179 q 125 589 87 502 q 234 718 163 675 q 404 762 305 762 q 634 664 553 762 q 714 374 714 565 l 714 351 m 404 708 q 151 403 158 708 l 651 403 q 586 634 648 559 q 404 708 524 708 z "},"é":{"ha":785,"x_min":87,"x_max":714,"o":"m 714 351 l 151 351 q 235 118 156 192 q 462 43 314 43 q 677 81 555 43 l 677 24 q 456 -12 562 -12 q 182 83 277 -12 q 87 375 87 179 q 125 589 87 502 q 234 718 163 675 q 404 762 305 762 q 634 664 553 762 q 714 374 714 565 l 714 351 m 404 708 q 151 403 158 708 l 651 403 q 586 634 648 559 q 404 708 524 708 m 376 876 l 562 1122 l 637 1122 l 440 876 l 376 876 z "},"ĕ":{"ha":785,"x_min":87,"x_max":714,"o":"m 714 351 l 151 351 q 235 118 156 192 q 462 43 314 43 q 677 81 555 43 l 677 24 q 456 -12 562 -12 q 182 83 277 -12 q 87 375 87 179 q 125 589 87 502 q 234 718 163 675 q 404 762 305 762 q 634 664 553 762 q 714 374 714 565 l 714 351 m 404 708 q 151 403 158 708 l 651 403 q 586 634 648 559 q 404 708 524 708 m 410 884 q 294 912 342 884 q 221 989 247 940 q 192 1103 196 1038 l 242 1103 q 288 976 248 1022 q 410 931 328 931 q 574 1103 563 931 l 624 1103 q 564 944 619 1003 q 410 884 509 884 z "},"ě":{"ha":785,"x_min":87,"x_max":714,"o":"m 714 351 l 151 351 q 235 118 156 192 q 462 43 314 43 q 677 81 555 43 l 677 24 q 456 -12 562 -12 q 182 83 277 -12 q 87 375 87 179 q 125 589 87 502 q 234 718 163 675 q 404 762 305 762 q 634 664 553 762 q 714 374 714 565 l 714 351 m 404 708 q 151 403 158 708 l 651 403 q 586 634 648 559 q 404 708 524 708 m 563 1122 l 627 1122 l 440 876 l 376 876 l 190 1122 l 253 1122 l 408 915 l 563 1122 z "},"ḝ":{"ha":785,"x_min":87,"x_max":714,"o":"m 410 884 q 294 912 342 884 q 221 989 247 940 q 192 1103 196 1038 l 242 1103 q 288 976 248 1022 q 410 931 328 931 q 574 1103 563 931 l 624 1103 q 564 944 619 1003 q 410 884 509 884 m 714 351 l 151 351 q 235 118 156 192 q 462 43 314 43 q 677 81 555 43 l 677 24 q 456 -12 562 -12 q 433 -12 440 -12 l 433 -76 q 520 -106 489 -79 q 551 -178 551 -132 q 516 -254 551 -228 q 417 -280 481 -280 q 348 -273 383 -280 q 290 -253 313 -265 l 290 -210 q 417 -240 351 -240 q 483 -225 461 -240 q 506 -177 506 -210 q 483 -130 506 -144 q 415 -115 460 -115 l 388 -115 l 388 -9 q 164 103 241 8 q 87 375 87 199 q 125 589 87 502 q 234 718 163 675 q 404 762 305 762 q 634 664 553 762 q 714 374 714 565 l 714 351 m 404 708 q 151 403 158 708 l 651 403 q 586 634 648 559 q 404 708 524 708 z "},"ê":{"ha":785,"x_min":87,"x_max":714,"o":"m 714 351 l 151 351 q 235 118 156 192 q 462 43 314 43 q 677 81 555 43 l 677 24 q 456 -12 562 -12 q 182 83 277 -12 q 87 375 87 179 q 125 589 87 502 q 234 718 163 675 q 404 762 305 762 q 634 664 553 762 q 714 374 714 565 l 714 351 m 404 708 q 151 403 158 708 l 651 403 q 586 634 648 559 q 404 708 524 708 m 622 876 l 558 876 l 408 1082 l 259 876 l 195 876 l 376 1122 l 440 1122 l 622 876 z "},"ế":{"ha":785,"x_min":87,"x_max":790,"o":"m 714 351 l 151 351 q 235 118 156 192 q 462 43 314 43 q 677 81 555 43 l 677 24 q 456 -12 562 -12 q 182 83 277 -12 q 87 375 87 179 q 125 589 87 502 q 234 718 163 675 q 404 762 305 762 q 634 664 553 762 q 714 374 714 565 l 714 351 m 404 708 q 151 403 158 708 l 651 403 q 586 634 648 559 q 404 708 524 708 m 718 1297 l 790 1297 l 624 1108 l 565 1108 l 718 1297 m 376 1122 l 440 1122 l 622 876 l 558 876 l 408 1082 l 259 876 l 195 876 l 376 1122 z "},"ệ":{"ha":785,"x_min":87,"x_max":714,"o":"m 714 351 l 151 351 q 235 118 156 192 q 462 43 314 43 q 677 81 555 43 l 677 24 q 456 -12 562 -12 q 182 83 277 -12 q 87 375 87 179 q 125 589 87 502 q 234 718 163 675 q 404 762 305 762 q 634 664 553 762 q 714 374 714 565 l 714 351 m 404 708 q 151 403 158 708 l 651 403 q 586 634 648 559 q 404 708 524 708 m 408 -223 q 372 -210 386 -223 q 358 -174 358 -197 q 372 -139 358 -152 q 408 -125 386 -125 q 444 -139 431 -125 q 458 -174 458 -152 q 444 -210 458 -197 q 408 -223 431 -223 m 622 876 l 558 876 l 408 1082 l 259 876 l 195 876 l 376 1122 l 440 1122 l 622 876 z "},"ề":{"ha":785,"x_min":87,"x_max":714,"o":"m 714 351 l 151 351 q 235 118 156 192 q 462 43 314 43 q 677 81 555 43 l 677 24 q 456 -12 562 -12 q 182 83 277 -12 q 87 375 87 179 q 125 589 87 502 q 234 718 163 675 q 404 762 305 762 q 634 664 553 762 q 714 374 714 565 l 714 351 m 404 708 q 151 403 158 708 l 651 403 q 586 634 648 559 q 404 708 524 708 m 643 1108 l 583 1108 l 418 1297 l 490 1297 l 643 1108 m 376 1122 l 440 1122 l 622 876 l 558 876 l 408 1082 l 259 876 l 195 876 l 376 1122 z "},"ể":{"ha":785,"x_min":87,"x_max":742,"o":"m 714 351 l 151 351 q 235 118 156 192 q 462 43 314 43 q 677 81 555 43 l 677 24 q 456 -12 562 -12 q 182 83 277 -12 q 87 375 87 179 q 125 589 87 502 q 234 718 163 675 q 404 762 305 762 q 634 664 553 762 q 714 374 714 565 l 714 351 m 404 708 q 151 403 158 708 l 651 403 q 586 634 648 559 q 404 708 524 708 m 609 1298 q 710 1278 677 1298 q 742 1222 742 1258 q 726 1182 742 1195 q 677 1156 709 1169 q 636 1135 650 1145 q 621 1108 623 1126 l 570 1108 q 591 1151 572 1137 q 645 1180 610 1166 q 684 1198 672 1190 q 697 1222 697 1207 q 677 1248 697 1239 q 608 1258 657 1258 q 532 1252 565 1258 q 459 1234 499 1247 l 459 1274 q 609 1298 521 1298 m 376 1122 l 440 1122 l 622 876 l 558 876 l 408 1082 l 259 876 l 195 876 l 376 1122 z "},"ễ":{"ha":785,"x_min":87,"x_max":714,"o":"m 714 351 l 151 351 q 235 118 156 192 q 462 43 314 43 q 677 81 555 43 l 677 24 q 456 -12 562 -12 q 182 83 277 -12 q 87 375 87 179 q 125 589 87 502 q 234 718 163 675 q 404 762 305 762 q 634 664 553 762 q 714 374 714 565 l 714 351 m 404 708 q 151 403 158 708 l 651 403 q 586 634 648 559 q 404 708 524 708 m 515 1207 q 578 1219 550 1207 q 633 1255 607 1231 l 633 1203 q 515 1161 590 1161 q 460 1168 486 1161 q 397 1188 434 1175 q 345 1206 367 1200 q 302 1212 323 1212 q 238 1200 267 1212 q 184 1164 210 1188 l 184 1216 q 302 1258 226 1258 q 357 1251 331 1258 q 419 1231 383 1244 q 472 1213 450 1219 q 515 1207 494 1207 m 376 1119 l 441 1119 l 624 876 l 559 876 l 408 1081 l 258 876 l 192 876 l 376 1119 z "},"ȅ":{"ha":785,"x_min":87,"x_max":714,"o":"m 714 351 l 151 351 q 235 118 156 192 q 462 43 314 43 q 677 81 555 43 l 677 24 q 456 -12 562 -12 q 182 83 277 -12 q 87 375 87 179 q 125 589 87 502 q 234 718 163 675 q 404 762 305 762 q 634 664 553 762 q 714 374 714 565 l 714 351 m 404 708 q 151 403 158 708 l 651 403 q 586 634 648 559 q 404 708 524 708 m 260 876 l 130 1122 l 192 1122 l 317 876 l 260 876 m 499 876 l 369 1122 l 431 1122 l 556 876 l 499 876 z "},"ë":{"ha":785,"x_min":87,"x_max":714,"o":"m 714 351 l 151 351 q 235 118 156 192 q 462 43 314 43 q 677 81 555 43 l 677 24 q 456 -12 562 -12 q 182 83 277 -12 q 87 375 87 179 q 125 589 87 502 q 234 718 163 675 q 404 762 305 762 q 634 664 553 762 q 714 374 714 565 l 714 351 m 404 708 q 151 403 158 708 l 651 403 q 586 634 648 559 q 404 708 524 708 m 240 939 q 204 952 217 939 q 190 988 190 965 q 204 1024 190 1010 q 240 1038 217 1038 q 276 1024 262 1038 q 290 988 290 1010 q 276 952 290 965 q 240 939 262 939 m 577 939 q 541 952 555 939 q 527 988 527 965 q 541 1024 527 1010 q 577 1038 555 1038 q 613 1024 599 1038 q 626 988 626 1010 q 613 952 626 965 q 577 939 599 939 z "},"ė":{"ha":785,"x_min":87,"x_max":714,"o":"m 714 351 l 151 351 q 235 118 156 192 q 462 43 314 43 q 677 81 555 43 l 677 24 q 456 -12 562 -12 q 182 83 277 -12 q 87 375 87 179 q 125 589 87 502 q 234 718 163 675 q 404 762 305 762 q 634 664 553 762 q 714 374 714 565 l 714 351 m 404 708 q 151 403 158 708 l 651 403 q 586 634 648 559 q 404 708 524 708 m 408 938 q 371 951 385 938 q 357 988 357 965 q 371 1024 357 1010 q 408 1038 385 1038 q 446 1024 432 1038 q 460 988 460 1010 q 446 951 460 965 q 408 938 432 938 z "},"ẹ":{"ha":785,"x_min":87,"x_max":714,"o":"m 714 351 l 151 351 q 235 118 156 192 q 462 43 314 43 q 677 81 555 43 l 677 24 q 456 -12 562 -12 q 182 83 277 -12 q 87 375 87 179 q 125 589 87 502 q 234 718 163 675 q 404 762 305 762 q 634 664 553 762 q 714 374 714 565 l 714 351 m 404 708 q 151 403 158 708 l 651 403 q 586 634 648 559 q 404 708 524 708 m 408 -223 q 372 -210 386 -223 q 358 -174 358 -197 q 372 -139 358 -152 q 408 -125 386 -125 q 444 -139 431 -125 q 458 -174 458 -152 q 444 -210 458 -197 q 408 -223 431 -223 z "},"è":{"ha":785,"x_min":87,"x_max":714,"o":"m 714 351 l 151 351 q 235 118 156 192 q 462 43 314 43 q 677 81 555 43 l 677 24 q 456 -12 562 -12 q 182 83 277 -12 q 87 375 87 179 q 125 589 87 502 q 234 718 163 675 q 404 762 305 762 q 634 664 553 762 q 714 374 714 565 l 714 351 m 404 708 q 151 403 158 708 l 651 403 q 586 634 648 559 q 404 708 524 708 m 376 876 l 180 1122 l 255 1122 l 440 876 l 376 876 z "},"ẻ":{"ha":785,"x_min":87,"x_max":714,"o":"m 714 351 l 151 351 q 235 118 156 192 q 462 43 314 43 q 677 81 555 43 l 677 24 q 456 -12 562 -12 q 182 83 277 -12 q 87 375 87 179 q 125 589 87 502 q 234 718 163 675 q 404 762 305 762 q 634 664 553 762 q 714 374 714 565 l 714 351 m 404 708 q 151 403 158 708 l 651 403 q 586 634 648 559 q 404 708 524 708 m 385 876 q 396 922 385 903 q 421 952 407 940 q 458 978 435 963 q 496 1005 484 993 q 508 1035 508 1017 q 483 1075 508 1063 q 410 1088 459 1088 q 348 1083 379 1088 q 292 1071 317 1079 l 292 1114 q 346 1126 315 1122 q 407 1131 377 1131 q 554 1036 554 1131 q 546 999 554 1015 q 526 974 538 984 q 493 951 514 965 q 450 919 465 934 q 433 876 435 903 l 385 876 z "},"ȇ":{"ha":785,"x_min":87,"x_max":714,"o":"m 714 351 l 151 351 q 235 118 156 192 q 462 43 314 43 q 677 81 555 43 l 677 24 q 456 -12 562 -12 q 182 83 277 -12 q 87 375 87 179 q 125 589 87 502 q 234 718 163 675 q 404 762 305 762 q 634 664 553 762 q 714 374 714 565 l 714 351 m 404 708 q 151 403 158 708 l 651 403 q 586 634 648 559 q 404 708 524 708 m 192 896 q 252 1055 197 996 q 407 1115 307 1115 q 522 1087 474 1115 q 595 1010 570 1059 q 624 896 621 960 l 574 896 q 528 1021 569 976 q 407 1067 487 1067 q 288 1021 327 1067 q 242 896 248 976 l 192 896 z "},"ē":{"ha":785,"x_min":87,"x_max":714,"o":"m 714 351 l 151 351 q 235 118 156 192 q 462 43 314 43 q 677 81 555 43 l 677 24 q 456 -12 562 -12 q 182 83 277 -12 q 87 375 87 179 q 125 589 87 502 q 234 718 163 675 q 404 762 305 762 q 634 664 553 762 q 714 374 714 565 l 714 351 m 404 708 q 151 403 158 708 l 651 403 q 586 634 648 559 q 404 708 524 708 m 185 964 l 185 1013 l 632 1013 l 632 964 l 185 964 z "},"ḗ":{"ha":785,"x_min":87,"x_max":714,"o":"m 714 351 l 151 351 q 235 118 156 192 q 462 43 314 43 q 677 81 555 43 l 677 24 q 456 -12 562 -12 q 182 83 277 -12 q 87 375 87 179 q 125 589 87 502 q 234 718 163 675 q 404 762 305 762 q 634 664 553 762 q 714 374 714 565 l 714 351 m 404 708 q 151 403 158 708 l 651 403 q 586 634 648 559 q 404 708 524 708 m 185 964 l 185 1013 l 632 1013 l 632 964 l 185 964 m 376 1148 l 530 1339 l 605 1339 l 440 1148 l 376 1148 z "},"ḕ":{"ha":785,"x_min":87,"x_max":714,"o":"m 714 351 l 151 351 q 235 118 156 192 q 462 43 314 43 q 677 81 555 43 l 677 24 q 456 -12 562 -12 q 182 83 277 -12 q 87 375 87 179 q 125 589 87 502 q 234 718 163 675 q 404 762 305 762 q 634 664 553 762 q 714 374 714 565 l 714 351 m 404 708 q 151 403 158 708 l 651 403 q 586 634 648 559 q 404 708 524 708 m 185 964 l 185 1013 l 632 1013 l 632 964 l 185 964 m 376 1148 l 211 1339 l 287 1339 l 440 1148 l 376 1148 z "},"ę":{"ha":785,"x_min":87,"x_max":714,"o":"m 714 351 l 151 351 q 235 118 156 192 q 462 43 314 43 q 677 81 555 43 l 677 24 q 463 -156 463 -40 q 489 -217 463 -195 q 560 -240 515 -240 q 677 -208 617 -240 l 677 -251 q 620 -272 651 -265 q 560 -280 588 -280 q 455 -248 493 -280 q 416 -160 416 -215 q 440 -76 416 -115 q 507 -10 464 -37 q 456 -12 482 -12 q 182 83 277 -12 q 87 375 87 179 q 125 589 87 502 q 234 718 163 675 q 404 762 305 762 q 634 664 553 762 q 714 374 714 565 l 714 351 m 404 708 q 151 403 160 708 l 651 403 q 586 633 648 558 q 404 708 524 708 z "},"ẽ":{"ha":785,"x_min":87,"x_max":714,"o":"m 714 351 l 151 351 q 235 118 156 192 q 462 43 314 43 q 677 81 555 43 l 677 24 q 456 -12 562 -12 q 182 83 277 -12 q 87 375 87 179 q 125 589 87 502 q 234 718 163 675 q 404 762 305 762 q 634 664 553 762 q 714 374 714 565 l 714 351 m 404 708 q 151 403 158 708 l 651 403 q 586 634 648 559 q 404 708 524 708 m 514 953 q 459 960 485 953 q 397 981 433 967 q 344 1000 365 994 q 303 1006 324 1006 q 239 994 268 1006 q 185 956 210 982 l 185 1010 q 303 1053 229 1053 q 357 1046 331 1053 q 419 1025 383 1039 q 473 1007 452 1013 q 514 1001 493 1001 q 577 1013 549 1001 q 632 1050 606 1024 l 632 996 q 514 953 588 953 z "},"ə":{"ha":785,"x_min":72,"x_max":699,"o":"m 329 763 q 603 667 508 763 q 699 376 699 572 q 660 162 699 249 q 551 32 622 76 q 381 -11 481 -11 q 152 87 232 -11 q 72 376 72 185 l 72 400 l 634 400 q 550 633 629 558 q 324 708 472 708 q 108 670 231 708 l 108 727 q 329 763 224 763 m 381 42 q 634 347 627 42 l 134 347 q 200 117 138 192 q 381 42 262 42 z "},"f":{"ha":544,"x_min":17,"x_max":575,"o":"m 463 1079 q 339 1057 387 1079 q 267 987 290 1035 q 243 858 243 938 l 243 751 l 544 751 l 544 695 l 243 695 l 243 0 l 181 0 l 181 695 l 17 695 l 17 751 l 181 751 l 181 852 q 251 1066 181 995 q 463 1136 322 1136 q 575 1126 513 1136 l 575 1069 q 463 1079 513 1079 z "},"g":{"ha":863,"x_min":87,"x_max":730,"o":"m 378 -319 q 256 -309 322 -319 q 135 -279 190 -299 l 135 -222 q 378 -263 263 -263 q 543 -236 480 -263 q 636 -147 606 -208 q 667 17 667 -85 l 667 88 l 663 88 q 552 14 617 40 q 410 -12 488 -12 q 242 27 315 -12 q 128 148 170 65 q 87 360 87 231 q 187 661 87 560 q 485 762 288 762 q 730 728 613 762 l 730 25 q 691 -173 730 -97 q 575 -284 652 -249 q 378 -319 497 -319 m 419 46 q 556 73 491 46 q 667 156 621 100 l 667 683 q 478 706 583 706 q 233 623 315 706 q 151 367 151 540 q 223 122 151 197 q 419 46 295 46 z "},"ǵ":{"ha":863,"x_min":87,"x_max":730,"o":"m 378 -319 q 256 -309 322 -319 q 135 -279 190 -299 l 135 -222 q 378 -263 263 -263 q 543 -236 480 -263 q 636 -147 606 -208 q 667 17 667 -85 l 667 88 l 663 88 q 552 14 617 40 q 410 -12 488 -12 q 242 27 315 -12 q 128 148 170 65 q 87 360 87 231 q 187 661 87 560 q 485 762 288 762 q 730 728 613 762 l 730 25 q 691 -173 730 -97 q 575 -284 652 -249 q 378 -319 497 -319 m 419 46 q 556 73 491 46 q 667 156 621 100 l 667 683 q 478 706 583 706 q 233 623 315 706 q 151 367 151 540 q 223 122 151 197 q 419 46 295 46 m 411 876 l 597 1122 l 672 1122 l 475 876 l 411 876 z "},"ğ":{"ha":863,"x_min":87,"x_max":730,"o":"m 378 -319 q 256 -309 322 -319 q 135 -279 190 -299 l 135 -222 q 378 -263 263 -263 q 543 -236 480 -263 q 636 -147 606 -208 q 667 17 667 -85 l 667 88 l 663 88 q 552 14 617 40 q 410 -12 488 -12 q 242 27 315 -12 q 128 148 170 65 q 87 360 87 231 q 187 661 87 560 q 485 762 288 762 q 730 728 613 762 l 730 25 q 691 -173 730 -97 q 575 -284 652 -249 q 378 -319 497 -319 m 419 46 q 556 73 491 46 q 667 156 621 100 l 667 683 q 478 706 583 706 q 233 623 315 706 q 151 367 151 540 q 223 122 151 197 q 419 46 295 46 m 444 884 q 329 912 377 884 q 256 989 281 940 q 227 1103 231 1038 l 277 1103 q 323 976 283 1022 q 444 931 363 931 q 609 1103 597 931 l 659 1103 q 599 944 654 1003 q 444 884 544 884 z "},"ǧ":{"ha":863,"x_min":87,"x_max":730,"o":"m 378 -319 q 256 -309 322 -319 q 135 -279 190 -299 l 135 -222 q 378 -263 263 -263 q 543 -236 480 -263 q 636 -147 606 -208 q 667 17 667 -85 l 667 88 l 663 88 q 552 14 617 40 q 410 -12 488 -12 q 242 27 315 -12 q 128 148 170 65 q 87 360 87 231 q 187 661 87 560 q 485 762 288 762 q 730 728 613 762 l 730 25 q 691 -173 730 -97 q 575 -284 652 -249 q 378 -319 497 -319 m 419 46 q 556 73 491 46 q 667 156 621 100 l 667 683 q 478 706 583 706 q 233 623 315 706 q 151 367 151 540 q 223 122 151 197 q 419 46 295 46 m 598 1122 l 662 1122 l 475 876 l 411 876 l 224 1122 l 288 1122 l 443 915 l 598 1122 z "},"ĝ":{"ha":863,"x_min":87,"x_max":730,"o":"m 378 -319 q 256 -309 322 -319 q 135 -279 190 -299 l 135 -222 q 378 -263 263 -263 q 543 -236 480 -263 q 636 -147 606 -208 q 667 17 667 -85 l 667 88 l 663 88 q 552 14 617 40 q 410 -12 488 -12 q 242 27 315 -12 q 128 148 170 65 q 87 360 87 231 q 187 661 87 560 q 485 762 288 762 q 730 728 613 762 l 730 25 q 691 -173 730 -97 q 575 -284 652 -249 q 378 -319 497 -319 m 419 46 q 556 73 491 46 q 667 156 621 100 l 667 683 q 478 706 583 706 q 233 623 315 706 q 151 367 151 540 q 223 122 151 197 q 419 46 295 46 m 656 876 l 592 876 l 443 1082 l 294 876 l 230 876 l 411 1122 l 475 1122 l 656 876 z "},"ģ":{"ha":863,"x_min":87,"x_max":730,"o":"m 378 -319 q 256 -309 322 -319 q 135 -279 190 -299 l 135 -222 q 378 -263 263 -263 q 543 -236 480 -263 q 636 -147 606 -208 q 667 17 667 -85 l 667 88 l 663 88 q 552 14 617 40 q 410 -12 488 -12 q 242 27 315 -12 q 128 148 170 65 q 87 360 87 231 q 187 661 87 560 q 485 762 288 762 q 730 728 613 762 l 730 25 q 691 -173 730 -97 q 575 -284 652 -249 q 378 -319 497 -319 m 419 46 q 556 73 491 46 q 667 156 621 100 l 667 683 q 478 706 583 706 q 233 623 315 706 q 151 367 151 540 q 223 122 151 197 q 419 46 295 46 m 443 1032 q 480 1019 466 1032 q 493 985 493 1006 q 480 951 493 964 q 446 939 467 939 q 407 955 420 939 q 393 1002 393 971 q 401 1063 393 1030 q 426 1128 410 1097 l 465 1128 q 441 1032 444 1077 l 443 1032 z "},"ġ":{"ha":863,"x_min":87,"x_max":730,"o":"m 378 -319 q 256 -309 322 -319 q 135 -279 190 -299 l 135 -222 q 378 -263 263 -263 q 543 -236 480 -263 q 636 -147 606 -208 q 667 17 667 -85 l 667 88 l 663 88 q 552 14 617 40 q 410 -12 488 -12 q 242 27 315 -12 q 128 148 170 65 q 87 360 87 231 q 187 661 87 560 q 485 762 288 762 q 730 728 613 762 l 730 25 q 691 -173 730 -97 q 575 -284 652 -249 q 378 -319 497 -319 m 419 46 q 556 73 491 46 q 667 156 621 100 l 667 683 q 478 706 583 706 q 233 623 315 706 q 151 367 151 540 q 223 122 151 197 q 419 46 295 46 m 443 938 q 406 951 419 938 q 392 988 392 965 q 406 1024 392 1010 q 443 1038 419 1038 q 481 1024 467 1038 q 494 988 494 1010 q 481 951 494 965 q 443 938 467 938 z "},"ḡ":{"ha":863,"x_min":87,"x_max":730,"o":"m 378 -319 q 256 -309 322 -319 q 135 -279 190 -299 l 135 -222 q 378 -263 263 -263 q 543 -236 480 -263 q 636 -147 606 -208 q 667 17 667 -85 l 667 88 l 663 88 q 552 14 617 40 q 410 -12 488 -12 q 242 27 315 -12 q 128 148 170 65 q 87 360 87 231 q 187 661 87 560 q 485 762 288 762 q 730 728 613 762 l 730 25 q 691 -173 730 -97 q 575 -284 652 -249 q 378 -319 497 -319 m 419 46 q 556 73 491 46 q 667 156 621 100 l 667 683 q 478 706 583 706 q 233 623 315 706 q 151 367 151 540 q 223 122 151 197 q 419 46 295 46 m 219 964 l 219 1013 l 667 1013 l 667 964 l 219 964 z "},"h":{"ha":872,"x_min":133,"x_max":751,"o":"m 133 1122 l 196 1122 l 196 662 l 200 662 q 328 736 256 711 q 481 762 401 762 q 680 696 609 762 q 751 488 751 630 l 751 0 l 689 0 l 689 485 q 633 652 689 601 q 474 703 577 703 q 323 674 397 703 q 196 586 250 644 l 196 0 l 133 0 l 133 1122 z "},"ħ":{"ha":872,"x_min":11,"x_max":751,"o":"m 481 762 q 680 696 609 762 q 751 488 751 630 l 751 0 l 689 0 l 689 485 q 633 652 689 601 q 474 703 577 703 q 323 674 397 703 q 196 586 250 644 l 196 0 l 133 0 l 133 917 l 11 917 l 11 967 l 133 967 l 133 1122 l 196 1122 l 196 967 l 493 967 l 493 917 l 196 917 l 196 662 l 200 662 q 328 736 256 711 q 481 762 401 762 z "},"ḫ":{"ha":872,"x_min":133,"x_max":751,"o":"m 133 1122 l 196 1122 l 196 662 l 200 662 q 328 736 256 711 q 481 762 401 762 q 680 696 609 762 q 751 488 751 630 l 751 0 l 689 0 l 689 485 q 633 652 689 601 q 474 703 577 703 q 323 674 397 703 q 196 586 250 644 l 196 0 l 133 0 l 133 1122 m 444 -281 q 326 -259 375 -281 q 253 -198 278 -236 q 227 -110 228 -159 l 277 -110 q 321 -201 281 -168 q 444 -233 361 -233 q 609 -110 602 -233 l 659 -110 q 634 -198 658 -160 q 562 -259 610 -237 q 444 -281 514 -281 z "},"ĥ":{"ha":872,"x_min":133,"x_max":751,"o":"m 133 1122 l 196 1122 l 196 662 l 200 662 q 328 736 256 711 q 481 762 401 762 q 680 696 609 762 q 751 488 751 630 l 751 0 l 689 0 l 689 485 q 633 652 689 601 q 474 703 577 703 q 323 674 397 703 q 196 586 250 644 l 196 0 l 133 0 l 133 1122 m 674 1188 l 600 1188 l 443 1342 l 286 1188 l 212 1188 l 410 1378 l 476 1378 l 674 1188 z "},"ḥ":{"ha":872,"x_min":133,"x_max":751,"o":"m 133 1122 l 196 1122 l 196 662 l 200 662 q 328 736 256 711 q 481 762 401 762 q 680 696 609 762 q 751 488 751 630 l 751 0 l 689 0 l 689 485 q 633 652 689 601 q 474 703 577 703 q 323 674 397 703 q 196 586 250 644 l 196 0 l 133 0 l 133 1122 m 443 -223 q 407 -210 421 -223 q 393 -174 393 -197 q 407 -139 393 -152 q 443 -125 421 -125 q 479 -139 465 -125 q 493 -174 493 -152 q 479 -210 493 -197 q 443 -223 465 -223 z "},"i":{"ha":328,"x_min":113,"x_max":216,"o":"m 133 0 l 133 751 l 196 751 l 196 0 l 133 0 m 165 938 q 127 951 141 938 q 113 988 113 965 q 127 1024 113 1010 q 165 1038 141 1038 q 202 1024 188 1038 q 216 988 216 1010 q 202 951 216 965 q 165 938 188 938 z "},"ı":{"ha":328,"x_min":133,"x_max":196,"o":"m 133 0 l 133 751 l 196 751 l 196 0 l 133 0 z "},"í":{"ha":328,"x_min":133,"x_max":393,"o":"m 133 0 l 133 751 l 196 751 l 196 0 l 133 0 m 133 876 l 318 1122 l 393 1122 l 197 876 l 133 876 z "},"ĭ":{"ha":328,"x_min":-51,"x_max":381,"o":"m 133 0 l 133 751 l 196 751 l 196 0 l 133 0 m 166 884 q 51 912 99 884 q -23 989 3 940 q -51 1103 -48 1038 l -1 1103 q 44 976 4 1022 q 166 931 85 931 q 331 1103 319 931 l 381 1103 q 320 944 376 1003 q 166 884 265 884 z "},"î":{"ha":328,"x_min":-49,"x_max":378,"o":"m 133 0 l 133 751 l 196 751 l 196 0 l 133 0 m 378 876 l 314 876 l 165 1082 l 15 876 l -49 876 l 133 1122 l 197 1122 l 378 876 z "},"ȉ":{"ha":328,"x_min":-114,"x_max":313,"o":"m 133 0 l 133 751 l 196 751 l 196 0 l 133 0 m 17 876 l -114 1122 l -52 1122 l 74 876 l 17 876 m 256 876 l 125 1122 l 187 1122 l 313 876 l 256 876 z "},"ï":{"ha":328,"x_min":-53,"x_max":383,"o":"m 133 0 l 133 751 l 196 751 l 196 0 l 133 0 m -4 939 q -40 952 -26 939 q -53 988 -53 965 q -40 1024 -53 1010 q -4 1038 -26 1038 q 32 1024 18 1038 q 46 988 46 1010 q 32 952 46 965 q -4 939 18 939 m 333 939 q 297 952 311 939 q 283 988 283 965 q 297 1024 283 1010 q 333 1038 311 1038 q 369 1024 356 1038 q 383 988 383 1010 q 369 952 383 965 q 333 939 356 939 z "},"ḯ":{"ha":328,"x_min":-53,"x_max":383,"o":"m 133 0 l 133 751 l 196 751 l 196 0 l 133 0 m -4 939 q -40 952 -26 939 q -53 988 -53 965 q -40 1024 -53 1010 q -4 1038 -26 1038 q 32 1024 18 1038 q 46 988 46 1010 q 32 952 46 965 q -4 939 18 939 m 333 939 q 297 952 311 939 q 283 988 283 965 q 297 1024 283 1010 q 333 1038 311 1038 q 369 1024 356 1038 q 383 988 383 1010 q 369 952 383 965 q 333 939 356 939 m 133 1148 l 286 1339 l 361 1339 l 196 1148 l 133 1148 z "},"ị":{"ha":328,"x_min":113,"x_max":216,"o":"m 133 0 l 133 751 l 196 751 l 196 0 l 133 0 m 165 938 q 127 951 141 938 q 113 988 113 965 q 127 1024 113 1010 q 165 1038 141 1038 q 202 1024 188 1038 q 216 988 216 1010 q 202 951 216 965 q 165 938 188 938 m 165 -223 q 128 -210 142 -223 q 115 -174 115 -197 q 128 -139 115 -152 q 165 -125 142 -125 q 201 -139 187 -125 q 215 -174 215 -152 q 201 -210 215 -197 q 165 -223 187 -223 z "},"ì":{"ha":328,"x_min":-64,"x_max":197,"o":"m 133 0 l 133 751 l 196 751 l 196 0 l 133 0 m 133 876 l -64 1122 l 11 1122 l 197 876 l 133 876 z "},"ỉ":{"ha":328,"x_min":49,"x_max":310,"o":"m 133 0 l 133 751 l 196 751 l 196 0 l 133 0 m 141 876 q 152 922 142 903 q 177 952 163 940 q 215 978 191 963 q 252 1005 240 993 q 264 1035 264 1017 q 240 1075 264 1063 q 166 1088 215 1088 q 104 1083 135 1088 q 49 1071 73 1079 l 49 1114 q 102 1126 72 1122 q 163 1131 133 1131 q 310 1036 310 1131 q 302 999 310 1015 q 282 974 294 984 q 249 951 270 965 q 206 919 221 934 q 190 876 191 903 l 141 876 z "},"ȋ":{"ha":328,"x_min":-51,"x_max":381,"o":"m 133 0 l 133 751 l 196 751 l 196 0 l 133 0 m -51 896 q 8 1055 -47 996 q 163 1115 63 1115 q 278 1087 231 1115 q 352 1010 326 1059 q 381 896 377 960 l 331 896 q 284 1021 325 976 q 163 1067 243 1067 q 44 1021 83 1067 q -1 896 4 976 l -51 896 z "},"ī":{"ha":328,"x_min":-59,"x_max":388,"o":"m 133 0 l 133 751 l 196 751 l 196 0 l 133 0 m -59 964 l -59 1013 l 388 1013 l 388 964 l -59 964 z "},"į":{"ha":328,"x_min":13,"x_max":274,"o":"m 165 938 q 127 951 141 938 q 113 988 113 965 q 127 1024 113 1010 q 165 1038 141 1038 q 202 1024 188 1038 q 216 988 216 1010 q 202 951 216 965 q 165 938 188 938 m 157 -240 q 274 -208 215 -240 l 274 -251 q 217 -272 249 -265 q 157 -280 185 -280 q 52 -248 90 -280 q 13 -160 13 -215 q 42 -67 13 -109 q 133 12 72 -26 l 133 751 l 196 751 l 196 0 q 92 -74 124 -37 q 60 -157 60 -111 q 86 -217 60 -195 q 157 -240 113 -240 z "},"ĩ":{"ha":328,"x_min":-59,"x_max":388,"o":"m 133 0 l 133 751 l 196 751 l 196 0 l 133 0 m 270 953 q 216 960 242 953 q 153 981 190 967 q 100 1000 121 994 q 59 1006 80 1006 q -5 994 24 1006 q -59 956 -33 982 l -59 1010 q 59 1053 -15 1053 q 114 1046 88 1053 q 176 1025 140 1039 q 229 1007 208 1013 q 270 1001 249 1001 q 334 1013 305 1001 q 388 1050 363 1024 l 388 996 q 270 953 344 953 z "},"j":{"ha":328,"x_min":-12,"x_max":215,"o":"m -12 -289 q 98 -101 63 -199 q 133 116 133 -3 l 133 751 l 196 751 l 196 119 q 157 -114 196 -10 q 31 -320 117 -219 l -12 -289 m 164 946 q 126 959 140 946 q 113 995 113 972 q 126 1031 113 1017 q 164 1045 140 1045 q 201 1031 188 1045 q 215 995 215 1017 q 201 959 215 972 q 164 946 188 946 z "},"ȷ":{"ha":328,"x_min":-12,"x_max":196,"o":"m -12 -289 q 98 -101 63 -199 q 133 116 133 -3 l 133 751 l 196 751 l 196 119 q 157 -114 196 -10 q 31 -320 117 -219 l -12 -289 z "},"ĵ":{"ha":328,"x_min":-49,"x_max":377,"o":"m -12 -289 q 98 -101 63 -199 q 133 116 133 -3 l 133 751 l 196 751 l 196 119 q 157 -114 196 -10 q 31 -320 117 -219 l -12 -289 m 377 884 l 313 884 l 164 1090 l 15 884 l -49 884 l 132 1130 l 196 1130 l 377 884 z "},"k":{"ha":766,"x_min":133,"x_max":772,"o":"m 695 0 l 368 356 l 196 356 l 196 0 l 133 0 l 133 1122 l 196 1122 l 196 412 l 367 412 l 674 751 l 749 751 l 420 385 l 772 0 l 695 0 z "},"ķ":{"ha":766,"x_min":133,"x_max":772,"o":"m 695 0 l 368 356 l 196 356 l 196 0 l 133 0 l 133 1122 l 196 1122 l 196 412 l 367 412 l 674 751 l 749 751 l 420 385 l 772 0 l 695 0 m 404 -125 q 443 -141 430 -125 q 457 -188 457 -157 q 449 -249 457 -216 q 424 -314 440 -283 l 385 -314 q 409 -218 406 -263 l 407 -218 q 370 -205 384 -218 q 357 -171 357 -192 q 370 -137 357 -150 q 404 -125 383 -125 z "},"ĸ":{"ha":766,"x_min":133,"x_max":772,"o":"m 695 0 l 368 356 l 196 356 l 196 0 l 133 0 l 133 751 l 196 751 l 196 412 l 367 412 l 674 751 l 749 751 l 420 385 l 772 0 l 695 0 z "},"l":{"ha":328,"x_min":133,"x_max":196,"o":"m 133 0 l 133 1122 l 196 1122 l 196 0 l 133 0 z "},"ĺ":{"ha":328,"x_min":133,"x_max":361,"o":"m 133 0 l 133 1122 l 196 1122 l 196 0 l 133 0 m 133 1188 l 286 1378 l 361 1378 l 196 1188 l 133 1188 z "},"ľ":{"ha":328,"x_min":133,"x_max":344,"o":"m 133 0 l 133 1122 l 196 1122 l 196 0 l 133 0 m 278 819 q 291 1122 291 929 l 344 1122 q 338 967 344 1047 q 317 819 331 888 l 278 819 z "},"ļ":{"ha":328,"x_min":114,"x_max":214,"o":"m 133 0 l 133 1122 l 196 1122 l 196 0 l 133 0 m 161 -125 q 200 -141 187 -125 q 214 -188 214 -157 q 206 -249 214 -216 q 181 -314 197 -283 l 142 -314 q 166 -218 163 -263 l 164 -218 q 127 -205 141 -218 q 114 -171 114 -192 q 127 -137 114 -150 q 161 -125 140 -125 z "},"ŀ":{"ha":346,"x_min":133,"x_max":378,"o":"m 133 0 l 133 1122 l 196 1122 l 196 0 l 133 0 m 326 501 q 290 515 303 501 q 276 550 276 528 q 290 586 276 573 q 326 600 303 600 q 364 586 350 600 q 378 550 378 573 q 364 515 378 528 q 326 501 350 501 z "},"ḷ":{"ha":328,"x_min":114,"x_max":214,"o":"m 133 0 l 133 1122 l 196 1122 l 196 0 l 133 0 m 164 -223 q 128 -210 142 -223 q 114 -174 114 -197 q 128 -139 114 -152 q 164 -125 142 -125 q 200 -139 186 -125 q 214 -174 214 -152 q 200 -210 214 -197 q 164 -223 186 -223 z "},"ǉ":{"ha":657,"x_min":133,"x_max":544,"o":"m 133 0 l 133 1122 l 196 1122 l 196 0 l 133 0 m 317 -289 q 427 -101 392 -199 q 462 116 462 -3 l 462 751 l 524 751 l 524 119 q 485 -114 524 -10 q 360 -320 446 -219 l 317 -289 m 492 946 q 455 959 469 946 q 441 995 441 972 q 455 1031 441 1017 q 492 1045 469 1045 q 530 1031 516 1045 q 544 995 544 1017 q 530 959 544 972 q 492 946 516 946 z "},"ḻ":{"ha":328,"x_min":-36,"x_max":364,"o":"m 133 0 l 133 1122 l 196 1122 l 196 0 l 133 0 m -36 -200 l -36 -151 l 364 -151 l 364 -200 l -36 -200 z "},"ł":{"ha":332,"x_min":10,"x_max":324,"o":"m 324 582 l 197 487 l 197 0 l 135 0 l 135 440 l 40 369 l 10 410 l 135 503 l 135 1122 l 197 1122 l 197 550 l 294 623 l 324 582 z "},"m":{"ha":1272,"x_min":133,"x_max":1151,"o":"m 909 762 q 1087 696 1023 762 q 1151 488 1151 630 l 1151 0 l 1088 0 l 1088 485 q 1040 653 1088 601 q 903 704 991 704 q 776 676 840 704 q 666 587 713 647 q 676 488 676 542 l 676 0 l 614 0 l 614 485 q 567 653 614 601 q 433 704 519 704 q 305 674 367 704 q 196 583 243 644 l 196 0 l 133 0 l 133 751 l 187 751 l 192 659 l 198 659 q 309 735 246 709 q 442 762 372 762 q 646 647 592 762 q 773 734 704 707 q 909 762 841 762 z "},"ṃ":{"ha":1272,"x_min":133,"x_max":1151,"o":"m 909 762 q 1087 696 1023 762 q 1151 488 1151 630 l 1151 0 l 1088 0 l 1088 485 q 1040 653 1088 601 q 903 704 991 704 q 776 676 840 704 q 666 587 713 647 q 676 488 676 542 l 676 0 l 614 0 l 614 485 q 567 653 614 601 q 433 704 519 704 q 305 674 367 704 q 196 583 243 644 l 196 0 l 133 0 l 133 751 l 187 751 l 192 659 l 198 659 q 309 735 246 709 q 442 762 372 762 q 646 647 592 762 q 773 734 704 707 q 909 762 841 762 m 645 -223 q 609 -210 623 -223 q 595 -174 595 -197 q 609 -139 595 -152 q 645 -125 623 -125 q 681 -139 667 -125 q 695 -174 695 -152 q 681 -210 695 -197 q 645 -223 667 -223 z "},"n":{"ha":872,"x_min":133,"x_max":751,"o":"m 133 751 l 187 751 l 192 659 l 198 659 q 328 735 256 709 q 479 762 401 762 q 680 695 608 762 q 751 483 751 628 l 751 0 l 689 0 l 689 483 q 634 652 689 599 q 474 704 578 704 q 325 676 400 704 q 196 588 251 647 l 196 0 l 133 0 l 133 751 z "},"ń":{"ha":872,"x_min":133,"x_max":751,"o":"m 133 751 l 187 751 l 192 659 l 198 659 q 328 735 256 709 q 479 762 401 762 q 680 695 608 762 q 751 483 751 628 l 751 0 l 689 0 l 689 483 q 634 652 689 599 q 474 704 578 704 q 325 676 400 704 q 196 588 251 647 l 196 0 l 133 0 l 133 751 m 411 876 l 597 1122 l 672 1122 l 475 876 l 411 876 z "},"ŉ":{"ha":872,"x_min":11,"x_max":751,"o":"m 133 751 l 187 751 l 192 659 l 198 659 q 328 735 256 709 q 479 762 401 762 q 680 695 608 762 q 751 483 751 628 l 751 0 l 689 0 l 689 483 q 634 652 689 599 q 474 704 578 704 q 325 676 400 704 q 196 588 251 647 l 196 0 l 133 0 l 133 751 m 59 1128 q 98 1112 84 1128 q 112 1065 112 1096 q 103 1004 112 1038 q 79 939 95 970 l 40 939 q 64 1035 60 992 l 61 1035 q 25 1048 38 1035 q 11 1082 11 1061 q 24 1115 11 1102 q 59 1128 38 1128 z "},"ň":{"ha":872,"x_min":133,"x_max":751,"o":"m 133 751 l 187 751 l 192 659 l 198 659 q 328 735 256 709 q 479 762 401 762 q 680 695 608 762 q 751 483 751 628 l 751 0 l 689 0 l 689 483 q 634 652 689 599 q 474 704 578 704 q 325 676 400 704 q 196 588 251 647 l 196 0 l 133 0 l 133 751 m 598 1122 l 662 1122 l 475 876 l 411 876 l 224 1122 l 288 1122 l 443 915 l 598 1122 z "},"ņ":{"ha":872,"x_min":133,"x_max":751,"o":"m 133 751 l 187 751 l 192 659 l 198 659 q 328 735 256 709 q 479 762 401 762 q 680 695 608 762 q 751 483 751 628 l 751 0 l 689 0 l 689 483 q 634 652 689 599 q 474 704 578 704 q 325 676 400 704 q 196 588 251 647 l 196 0 l 133 0 l 133 751 m 440 -125 q 480 -141 466 -125 q 493 -188 493 -157 q 485 -249 493 -216 q 460 -314 476 -283 l 421 -314 q 445 -218 442 -263 l 443 -218 q 407 -205 420 -218 q 393 -171 393 -192 q 406 -137 393 -150 q 440 -125 419 -125 z "},"ṅ":{"ha":872,"x_min":133,"x_max":751,"o":"m 133 751 l 187 751 l 192 659 l 198 659 q 328 735 256 709 q 479 762 401 762 q 680 695 608 762 q 751 483 751 628 l 751 0 l 689 0 l 689 483 q 634 652 689 599 q 474 704 578 704 q 325 676 400 704 q 196 588 251 647 l 196 0 l 133 0 l 133 751 m 443 938 q 406 951 419 938 q 392 988 392 965 q 406 1024 392 1010 q 443 1038 419 1038 q 481 1024 467 1038 q 494 988 494 1010 q 481 951 494 965 q 443 938 467 938 z "},"ṇ":{"ha":872,"x_min":133,"x_max":751,"o":"m 133 751 l 187 751 l 192 659 l 198 659 q 328 735 256 709 q 479 762 401 762 q 680 695 608 762 q 751 483 751 628 l 751 0 l 689 0 l 689 483 q 634 652 689 599 q 474 704 578 704 q 325 676 400 704 q 196 588 251 647 l 196 0 l 133 0 l 133 751 m 443 -223 q 407 -210 421 -223 q 393 -174 393 -197 q 407 -139 393 -152 q 443 -125 421 -125 q 479 -139 465 -125 q 493 -174 493 -152 q 479 -210 493 -197 q 443 -223 465 -223 z "},"ŋ":{"ha":872,"x_min":133,"x_max":751,"o":"m 544 -289 q 654 -101 619 -199 q 689 116 689 -3 l 689 485 q 633 653 689 601 q 474 704 577 704 q 324 674 397 704 q 196 586 251 644 l 196 0 l 133 0 l 133 751 l 187 751 l 192 659 l 198 659 q 326 736 254 710 q 481 762 399 762 q 680 696 609 762 q 751 488 751 630 l 751 93 q 707 -126 744 -30 q 587 -320 670 -222 l 544 -289 z "},"ǌ":{"ha":1201,"x_min":133,"x_max":1088,"o":"m 133 751 l 187 751 l 192 659 l 198 659 q 328 735 256 709 q 479 762 401 762 q 680 695 608 762 q 751 483 751 628 l 751 0 l 689 0 l 689 483 q 634 652 689 599 q 474 704 578 704 q 325 676 400 704 q 196 588 251 647 l 196 0 l 133 0 l 133 751 m 860 -289 q 970 -101 935 -199 q 1006 116 1006 -3 l 1006 751 l 1068 751 l 1068 119 q 1029 -114 1068 -10 q 903 -320 990 -219 l 860 -289 m 1036 946 q 999 959 1013 946 q 985 995 985 972 q 999 1031 985 1017 q 1036 1045 1013 1045 q 1074 1031 1060 1045 q 1088 995 1088 1017 q 1074 959 1088 972 q 1036 946 1060 946 z "},"ṉ":{"ha":872,"x_min":133,"x_max":751,"o":"m 133 751 l 187 751 l 192 659 l 198 659 q 328 735 256 709 q 479 762 401 762 q 680 695 608 762 q 751 483 751 628 l 751 0 l 689 0 l 689 483 q 634 652 689 599 q 474 704 578 704 q 325 676 400 704 q 196 588 251 647 l 196 0 l 133 0 l 133 751 m 243 -200 l 243 -151 l 643 -151 l 643 -200 l 243 -200 z "},"ñ":{"ha":872,"x_min":133,"x_max":751,"o":"m 133 751 l 187 751 l 192 659 l 198 659 q 328 735 256 709 q 479 762 401 762 q 680 695 608 762 q 751 483 751 628 l 751 0 l 689 0 l 689 483 q 634 652 689 599 q 474 704 578 704 q 325 676 400 704 q 196 588 251 647 l 196 0 l 133 0 l 133 751 m 549 953 q 494 960 520 953 q 432 981 468 967 q 379 1000 399 994 q 338 1006 358 1006 q 274 994 303 1006 q 219 956 245 982 l 219 1010 q 338 1053 264 1053 q 392 1046 366 1053 q 454 1025 418 1039 q 507 1007 487 1013 q 549 1001 528 1001 q 612 1013 583 1001 q 667 1050 641 1024 l 667 996 q 549 953 622 953 z "},"o":{"ha":846,"x_min":87,"x_max":760,"o":"m 423 -12 q 176 83 265 -12 q 87 376 87 178 q 128 592 87 506 q 245 720 170 678 q 423 762 321 762 q 670 667 581 762 q 760 376 760 572 q 718 158 760 245 q 600 30 676 72 q 423 -12 525 -12 m 423 44 q 694 374 694 44 q 423 706 694 706 q 151 376 151 706 q 423 44 151 44 z "},"ó":{"ha":846,"x_min":87,"x_max":760,"o":"m 423 -12 q 176 83 265 -12 q 87 376 87 178 q 128 592 87 506 q 245 720 170 678 q 423 762 321 762 q 670 667 581 762 q 760 376 760 572 q 718 158 760 245 q 600 30 676 72 q 423 -12 525 -12 m 423 44 q 694 374 694 44 q 423 706 694 706 q 151 376 151 706 q 423 44 151 44 m 391 876 l 576 1122 l 651 1122 l 455 876 l 391 876 z "},"ŏ":{"ha":846,"x_min":87,"x_max":760,"o":"m 423 -12 q 176 83 265 -12 q 87 376 87 178 q 128 592 87 506 q 245 720 170 678 q 423 762 321 762 q 670 667 581 762 q 760 376 760 572 q 718 158 760 245 q 600 30 676 72 q 423 -12 525 -12 m 423 44 q 694 374 694 44 q 423 706 694 706 q 151 376 151 706 q 423 44 151 44 m 424 884 q 309 912 357 884 q 236 989 261 940 q 207 1103 210 1038 l 257 1103 q 303 976 263 1022 q 424 931 343 931 q 589 1103 577 931 l 639 1103 q 579 944 634 1003 q 424 884 524 884 z "},"ô":{"ha":846,"x_min":87,"x_max":760,"o":"m 423 -12 q 176 83 265 -12 q 87 376 87 178 q 128 592 87 506 q 245 720 170 678 q 423 762 321 762 q 670 667 581 762 q 760 376 760 572 q 718 158 760 245 q 600 30 676 72 q 423 -12 525 -12 m 423 44 q 694 374 694 44 q 423 706 694 706 q 151 376 151 706 q 423 44 151 44 m 636 876 l 572 876 l 423 1082 l 274 876 l 210 876 l 391 1122 l 455 1122 l 636 876 z "},"ố":{"ha":846,"x_min":87,"x_max":804,"o":"m 423 -12 q 176 83 265 -12 q 87 376 87 178 q 128 592 87 506 q 245 720 170 678 q 423 762 321 762 q 670 667 581 762 q 760 376 760 572 q 718 158 760 245 q 600 30 676 72 q 423 -12 525 -12 m 423 44 q 694 374 694 44 q 423 706 694 706 q 151 376 151 706 q 423 44 151 44 m 733 1297 l 804 1297 l 639 1108 l 579 1108 l 733 1297 m 391 1122 l 455 1122 l 636 876 l 572 876 l 423 1082 l 274 876 l 210 876 l 391 1122 z "},"ộ":{"ha":846,"x_min":87,"x_max":760,"o":"m 423 -12 q 176 83 265 -12 q 87 376 87 178 q 128 592 87 506 q 245 720 170 678 q 423 762 321 762 q 670 667 581 762 q 760 376 760 572 q 718 158 760 245 q 600 30 676 72 q 423 -12 525 -12 m 423 44 q 694 374 694 44 q 423 706 694 706 q 151 376 151 706 q 423 44 151 44 m 423 -223 q 387 -210 401 -223 q 373 -174 373 -197 q 387 -139 373 -152 q 423 -125 401 -125 q 459 -139 445 -125 q 473 -174 473 -152 q 459 -210 473 -197 q 423 -223 445 -223 m 636 876 l 572 876 l 423 1082 l 274 876 l 210 876 l 391 1122 l 455 1122 l 636 876 z "},"ồ":{"ha":846,"x_min":87,"x_max":760,"o":"m 423 -12 q 176 83 265 -12 q 87 376 87 178 q 128 592 87 506 q 245 720 170 678 q 423 762 321 762 q 670 667 581 762 q 760 376 760 572 q 718 158 760 245 q 600 30 676 72 q 423 -12 525 -12 m 423 44 q 694 374 694 44 q 423 706 694 706 q 151 376 151 706 q 423 44 151 44 m 658 1108 l 598 1108 l 433 1297 l 504 1297 l 658 1108 m 391 1122 l 455 1122 l 636 876 l 572 876 l 423 1082 l 274 876 l 210 876 l 391 1122 z "},"ổ":{"ha":846,"x_min":87,"x_max":760,"o":"m 423 -12 q 176 83 265 -12 q 87 376 87 178 q 128 592 87 506 q 245 720 170 678 q 423 762 321 762 q 670 667 581 762 q 760 376 760 572 q 718 158 760 245 q 600 30 676 72 q 423 -12 525 -12 m 423 44 q 694 374 694 44 q 423 706 694 706 q 151 376 151 706 q 423 44 151 44 m 624 1298 q 724 1278 692 1298 q 757 1222 757 1258 q 740 1182 757 1195 q 692 1156 724 1169 q 651 1135 665 1145 q 635 1108 638 1126 l 585 1108 q 605 1151 586 1137 q 660 1180 624 1166 q 699 1198 686 1190 q 711 1222 711 1207 q 691 1248 711 1239 q 622 1258 672 1258 q 547 1252 580 1258 q 474 1234 514 1247 l 474 1274 q 624 1298 535 1298 m 391 1122 l 455 1122 l 636 876 l 572 876 l 423 1082 l 274 876 l 210 876 l 391 1122 z "},"ỗ":{"ha":846,"x_min":87,"x_max":760,"o":"m 423 -12 q 176 83 265 -12 q 87 376 87 178 q 128 592 87 506 q 245 720 170 678 q 423 762 321 762 q 670 667 581 762 q 760 376 760 572 q 718 158 760 245 q 600 30 676 72 q 423 -12 525 -12 m 423 44 q 694 374 694 44 q 423 706 694 706 q 151 376 151 706 q 423 44 151 44 m 529 1207 q 593 1219 565 1207 q 647 1255 622 1231 l 647 1203 q 529 1161 604 1161 q 475 1168 501 1161 q 412 1188 449 1175 q 359 1206 381 1200 q 317 1212 338 1212 q 253 1200 281 1212 q 199 1164 224 1188 l 199 1216 q 317 1258 241 1258 q 371 1251 345 1258 q 434 1231 397 1244 q 486 1213 465 1219 q 529 1207 508 1207 m 390 1119 l 456 1119 l 639 876 l 574 876 l 423 1081 l 272 876 l 207 876 l 390 1119 z "},"ȍ":{"ha":846,"x_min":87,"x_max":760,"o":"m 423 -12 q 176 83 265 -12 q 87 376 87 178 q 128 592 87 506 q 245 720 170 678 q 423 762 321 762 q 670 667 581 762 q 760 376 760 572 q 718 158 760 245 q 600 30 676 72 q 423 -12 525 -12 m 423 44 q 694 374 694 44 q 423 706 694 706 q 151 376 151 706 q 423 44 151 44 m 275 876 l 144 1122 l 206 1122 l 332 876 l 275 876 m 514 876 l 383 1122 l 445 1122 l 571 876 l 514 876 z "},"ö":{"ha":846,"x_min":87,"x_max":760,"o":"m 423 -12 q 176 83 265 -12 q 87 376 87 178 q 128 592 87 506 q 245 720 170 678 q 423 762 321 762 q 670 667 581 762 q 760 376 760 572 q 718 158 760 245 q 600 30 676 72 q 423 -12 525 -12 m 423 44 q 694 374 694 44 q 423 706 694 706 q 151 376 151 706 q 423 44 151 44 m 254 939 q 218 952 232 939 q 205 988 205 965 q 218 1024 205 1010 q 254 1038 232 1038 q 290 1024 276 1038 q 304 988 304 1010 q 290 952 304 965 q 254 939 276 939 m 592 939 q 556 952 569 939 q 542 988 542 965 q 556 1024 542 1010 q 592 1038 569 1038 q 627 1024 614 1038 q 641 988 641 1010 q 627 952 641 965 q 592 939 614 939 z "},"ȫ":{"ha":846,"x_min":87,"x_max":760,"o":"m 423 -12 q 176 83 265 -12 q 87 376 87 178 q 128 592 87 506 q 245 720 170 678 q 423 762 321 762 q 670 667 581 762 q 760 376 760 572 q 718 158 760 245 q 600 30 676 72 q 423 -12 525 -12 m 423 44 q 694 374 694 44 q 423 706 694 706 q 151 376 151 706 q 423 44 151 44 m 254 939 q 218 952 232 939 q 205 988 205 965 q 218 1024 205 1010 q 254 1038 232 1038 q 290 1024 276 1038 q 304 988 304 1010 q 290 952 304 965 q 254 939 276 939 m 592 939 q 556 952 569 939 q 542 988 542 965 q 556 1024 542 1010 q 592 1038 569 1038 q 627 1024 614 1038 q 641 988 641 1010 q 627 952 641 965 q 592 939 614 939 m 199 1213 l 199 1263 l 647 1263 l 647 1213 l 199 1213 z "},"ȱ":{"ha":846,"x_min":87,"x_max":760,"o":"m 423 -12 q 176 83 265 -12 q 87 376 87 178 q 128 592 87 506 q 245 720 170 678 q 423 762 321 762 q 670 667 581 762 q 760 376 760 572 q 718 158 760 245 q 600 30 676 72 q 423 -12 525 -12 m 423 44 q 694 374 694 44 q 423 706 694 706 q 151 376 151 706 q 423 44 151 44 m 423 938 q 385 951 399 938 q 372 988 372 965 q 385 1024 372 1010 q 423 1038 399 1038 q 460 1024 447 1038 q 474 988 474 1010 q 460 951 474 965 q 423 938 447 938 m 199 1153 l 199 1203 l 647 1203 l 647 1153 l 199 1153 z "},"ọ":{"ha":846,"x_min":87,"x_max":760,"o":"m 423 -12 q 176 83 265 -12 q 87 376 87 178 q 128 592 87 506 q 245 720 170 678 q 423 762 321 762 q 670 667 581 762 q 760 376 760 572 q 718 158 760 245 q 600 30 676 72 q 423 -12 525 -12 m 423 44 q 694 374 694 44 q 423 706 694 706 q 151 376 151 706 q 423 44 151 44 m 423 -223 q 387 -210 401 -223 q 373 -174 373 -197 q 387 -139 373 -152 q 423 -125 401 -125 q 459 -139 445 -125 q 473 -174 473 -152 q 459 -210 473 -197 q 423 -223 445 -223 z "},"ò":{"ha":846,"x_min":87,"x_max":760,"o":"m 423 -12 q 176 83 265 -12 q 87 376 87 178 q 128 592 87 506 q 245 720 170 678 q 423 762 321 762 q 670 667 581 762 q 760 376 760 572 q 718 158 760 245 q 600 30 676 72 q 423 -12 525 -12 m 423 44 q 694 374 694 44 q 423 706 694 706 q 151 376 151 706 q 423 44 151 44 m 391 876 l 194 1122 l 269 1122 l 455 876 l 391 876 z "},"ỏ":{"ha":846,"x_min":87,"x_max":760,"o":"m 423 -12 q 176 83 265 -12 q 87 376 87 178 q 128 592 87 506 q 245 720 170 678 q 423 762 321 762 q 670 667 581 762 q 760 376 760 572 q 718 158 760 245 q 600 30 676 72 q 423 -12 525 -12 m 423 44 q 694 374 694 44 q 423 706 694 706 q 151 376 151 706 q 423 44 151 44 m 399 876 q 411 922 400 903 q 435 952 422 940 q 473 978 449 963 q 510 1005 499 993 q 522 1035 522 1017 q 498 1075 522 1063 q 424 1088 474 1088 q 363 1083 394 1088 q 307 1071 331 1079 l 307 1114 q 361 1126 330 1122 q 422 1131 392 1131 q 569 1036 569 1131 q 560 999 569 1015 q 540 974 552 984 q 508 951 528 965 q 464 919 479 934 q 448 876 449 903 l 399 876 z "},"ơ":{"ha":846,"x_min":87,"x_max":774,"o":"m 626 706 q 760 376 760 611 q 718 158 760 245 q 600 30 676 72 q 423 -12 525 -12 q 176 83 265 -12 q 87 376 87 178 q 128 592 87 506 q 245 720 170 678 q 424 762 321 762 q 514 757 452 762 q 568 753 547 753 q 720 871 720 753 q 716 919 720 897 q 703 969 712 942 l 756 969 q 770 922 766 944 q 774 869 774 899 q 736 759 774 801 q 626 706 699 717 m 423 44 q 694 374 694 44 q 423 706 694 706 q 151 376 151 706 q 423 44 151 44 z "},"ớ":{"ha":846,"x_min":87,"x_max":774,"o":"m 626 706 q 760 376 760 611 q 718 158 760 245 q 600 30 676 72 q 423 -12 525 -12 q 176 83 265 -12 q 87 376 87 178 q 128 592 87 506 q 245 720 170 678 q 424 762 321 762 q 514 757 452 762 q 568 753 547 753 q 720 871 720 753 q 716 919 720 897 q 703 969 712 942 l 756 969 q 770 922 766 944 q 774 869 774 899 q 736 759 774 801 q 626 706 699 717 m 423 44 q 694 374 694 44 q 423 706 694 706 q 151 376 151 706 q 423 44 151 44 m 388 876 l 573 1122 l 648 1122 l 451 876 l 388 876 z "},"ợ":{"ha":846,"x_min":87,"x_max":774,"o":"m 626 706 q 760 376 760 611 q 718 158 760 245 q 600 30 676 72 q 423 -12 525 -12 q 176 83 265 -12 q 87 376 87 178 q 128 592 87 506 q 245 720 170 678 q 424 762 321 762 q 514 757 452 762 q 568 753 547 753 q 720 871 720 753 q 716 919 720 897 q 703 969 712 942 l 756 969 q 770 922 766 944 q 774 869 774 899 q 736 759 774 801 q 626 706 699 717 m 423 44 q 694 374 694 44 q 423 706 694 706 q 151 376 151 706 q 423 44 151 44 m 419 -223 q 383 -210 397 -223 q 369 -174 369 -197 q 383 -139 369 -152 q 419 -125 397 -125 q 456 -139 442 -125 q 469 -174 469 -152 q 456 -210 469 -197 q 419 -223 442 -223 z "},"ờ":{"ha":846,"x_min":87,"x_max":774,"o":"m 626 706 q 760 376 760 611 q 718 158 760 245 q 600 30 676 72 q 423 -12 525 -12 q 176 83 265 -12 q 87 376 87 178 q 128 592 87 506 q 245 720 170 678 q 424 762 321 762 q 514 757 452 762 q 568 753 547 753 q 720 871 720 753 q 716 919 720 897 q 703 969 712 942 l 756 969 q 770 922 766 944 q 774 869 774 899 q 736 759 774 801 q 626 706 699 717 m 423 44 q 694 374 694 44 q 423 706 694 706 q 151 376 151 706 q 423 44 151 44 m 388 876 l 191 1122 l 266 1122 l 451 876 l 388 876 z "},"ở":{"ha":846,"x_min":87,"x_max":774,"o":"m 626 706 q 760 376 760 611 q 718 158 760 245 q 600 30 676 72 q 423 -12 525 -12 q 176 83 265 -12 q 87 376 87 178 q 128 592 87 506 q 245 720 170 678 q 424 762 321 762 q 514 757 452 762 q 568 753 547 753 q 720 871 720 753 q 716 919 720 897 q 703 969 712 942 l 756 969 q 770 922 766 944 q 774 869 774 899 q 736 759 774 801 q 626 706 699 717 m 423 44 q 694 374 694 44 q 423 706 694 706 q 151 376 151 706 q 423 44 151 44 m 396 876 q 407 922 397 903 q 432 952 418 940 q 469 978 446 963 q 507 1005 495 993 q 519 1035 519 1017 q 494 1075 519 1063 q 421 1088 470 1088 q 359 1083 390 1088 q 303 1071 328 1079 l 303 1114 q 357 1126 326 1122 q 418 1131 388 1131 q 565 1036 565 1131 q 557 999 565 1015 q 537 974 549 984 q 504 951 525 965 q 461 919 476 934 q 444 876 446 903 l 396 876 z "},"ỡ":{"ha":846,"x_min":87,"x_max":774,"o":"m 524 953 q 470 960 496 953 q 408 981 444 967 q 356 999 377 993 q 314 1006 335 1006 q 251 994 279 1006 q 197 956 223 982 l 197 1010 q 314 1053 240 1053 q 368 1046 342 1053 q 431 1025 394 1039 q 484 1007 463 1013 q 524 1001 504 1001 q 588 1013 559 1001 q 642 1050 616 1024 l 642 996 q 524 953 599 953 m 626 706 q 760 376 760 611 q 718 158 760 245 q 600 30 676 72 q 423 -12 525 -12 q 176 83 265 -12 q 87 376 87 178 q 128 592 87 506 q 245 720 170 678 q 424 762 321 762 q 514 757 452 762 q 568 753 547 753 q 720 871 720 753 q 716 919 720 897 q 703 969 712 942 l 756 969 q 770 922 766 944 q 774 869 774 899 q 736 759 774 801 q 626 706 699 717 m 423 44 q 694 374 694 44 q 423 706 694 706 q 151 376 151 706 q 423 44 151 44 z "},"ő":{"ha":846,"x_min":87,"x_max":760,"o":"m 423 -12 q 176 83 265 -12 q 87 376 87 178 q 128 592 87 506 q 245 720 170 678 q 423 762 321 762 q 670 667 581 762 q 760 376 760 572 q 718 158 760 245 q 600 30 676 72 q 423 -12 525 -12 m 423 44 q 694 374 694 44 q 423 706 694 706 q 151 376 151 706 q 423 44 151 44 m 278 876 l 403 1122 l 463 1122 l 332 876 l 278 876 m 514 876 l 640 1122 l 699 1122 l 568 876 l 514 876 z "},"ȏ":{"ha":846,"x_min":87,"x_max":760,"o":"m 423 -12 q 176 83 265 -12 q 87 376 87 178 q 128 592 87 506 q 245 720 170 678 q 423 762 321 762 q 670 667 581 762 q 760 376 760 572 q 718 158 760 245 q 600 30 676 72 q 423 -12 525 -12 m 423 44 q 694 374 694 44 q 423 706 694 706 q 151 376 151 706 q 423 44 151 44 m 207 896 q 267 1055 212 996 q 422 1115 322 1115 q 537 1087 489 1115 q 610 1010 585 1059 q 639 896 635 960 l 589 896 q 542 1021 583 976 q 422 1067 501 1067 q 302 1021 342 1067 q 257 896 263 976 l 207 896 z "},"ō":{"ha":846,"x_min":87,"x_max":760,"o":"m 423 -12 q 176 83 265 -12 q 87 376 87 178 q 128 592 87 506 q 245 720 170 678 q 423 762 321 762 q 670 667 581 762 q 760 376 760 572 q 718 158 760 245 q 600 30 676 72 q 423 -12 525 -12 m 423 44 q 694 374 694 44 q 423 706 694 706 q 151 376 151 706 q 423 44 151 44 m 199 964 l 199 1013 l 647 1013 l 647 964 l 199 964 z "},"ṓ":{"ha":846,"x_min":87,"x_max":760,"o":"m 423 -12 q 176 83 265 -12 q 87 376 87 178 q 128 592 87 506 q 245 720 170 678 q 423 762 321 762 q 670 667 581 762 q 760 376 760 572 q 718 158 760 245 q 600 30 676 72 q 423 -12 525 -12 m 423 44 q 694 374 694 44 q 423 706 694 706 q 151 376 151 706 q 423 44 151 44 m 199 964 l 199 1013 l 647 1013 l 647 964 l 199 964 m 391 1148 l 544 1339 l 619 1339 l 454 1148 l 391 1148 z "},"ṑ":{"ha":846,"x_min":87,"x_max":760,"o":"m 423 -12 q 176 83 265 -12 q 87 376 87 178 q 128 592 87 506 q 245 720 170 678 q 423 762 321 762 q 670 667 581 762 q 760 376 760 572 q 718 158 760 245 q 600 30 676 72 q 423 -12 525 -12 m 423 44 q 694 374 694 44 q 423 706 694 706 q 151 376 151 706 q 423 44 151 44 m 199 964 l 199 1013 l 647 1013 l 647 964 l 199 964 m 391 1148 l 226 1339 l 301 1339 l 455 1148 l 391 1148 z "},"ǫ":{"ha":846,"x_min":87,"x_max":760,"o":"m 528 1 q 395 -66 433 -24 q 356 -157 356 -108 q 383 -218 356 -196 q 453 -240 409 -240 q 558 -215 505 -240 l 571 -253 q 513 -273 544 -266 q 453 -280 481 -280 q 349 -248 388 -280 q 310 -160 310 -215 q 403 -12 310 -68 q 170 90 254 -6 q 87 376 87 185 q 128 592 87 506 q 245 720 170 678 q 423 762 321 762 q 670 667 581 762 q 760 376 760 572 q 699 123 760 217 q 528 1 638 29 m 151 376 q 423 44 151 44 q 694 374 694 44 q 423 706 694 706 q 151 376 151 706 z "},"ø":{"ha":846,"x_min":87,"x_max":760,"o":"m 677 660 q 760 376 760 562 q 718 158 760 245 q 600 30 676 72 q 423 -12 525 -12 q 203 56 288 -12 l 149 -14 l 111 17 l 169 91 q 87 376 87 190 q 128 592 87 506 q 245 720 170 678 q 423 762 321 762 q 642 694 559 762 l 697 765 l 735 733 l 677 660 m 423 706 q 222 627 293 706 q 151 376 151 549 q 208 141 151 224 l 605 646 q 423 706 539 706 m 423 44 q 695 374 695 44 q 637 610 695 527 l 240 104 q 423 44 308 44 z "},"ǿ":{"ha":846,"x_min":87,"x_max":760,"o":"m 677 660 q 760 376 760 562 q 718 158 760 245 q 600 30 676 72 q 423 -12 525 -12 q 203 56 288 -12 l 149 -14 l 111 17 l 169 91 q 87 376 87 190 q 128 592 87 506 q 245 720 170 678 q 423 762 321 762 q 642 694 559 762 l 697 765 l 735 733 l 677 660 m 423 706 q 222 627 293 706 q 151 376 151 549 q 208 141 151 224 l 605 646 q 423 706 539 706 m 423 44 q 695 374 695 44 q 637 610 695 527 l 240 104 q 423 44 308 44 m 383 876 l 569 1122 l 644 1122 l 447 876 l 383 876 z "},"õ":{"ha":846,"x_min":87,"x_max":760,"o":"m 423 -12 q 176 83 265 -12 q 87 376 87 178 q 128 592 87 506 q 245 720 170 678 q 423 762 321 762 q 670 667 581 762 q 760 376 760 572 q 718 158 760 245 q 600 30 676 72 q 423 -12 525 -12 m 423 44 q 694 374 694 44 q 423 706 694 706 q 151 376 151 706 q 423 44 151 44 m 528 953 q 474 960 500 953 q 412 981 448 967 q 359 1000 379 994 q 317 1006 338 1006 q 254 994 283 1006 q 199 956 225 982 l 199 1010 q 317 1053 244 1053 q 372 1046 346 1053 q 434 1025 398 1039 q 487 1007 467 1013 q 528 1001 508 1001 q 592 1013 563 1001 q 647 1050 621 1024 l 647 996 q 528 953 602 953 z "},"ṍ":{"ha":846,"x_min":87,"x_max":760,"o":"m 423 -12 q 176 83 265 -12 q 87 376 87 178 q 128 592 87 506 q 245 720 170 678 q 423 762 321 762 q 670 667 581 762 q 760 376 760 572 q 718 158 760 245 q 600 30 676 72 q 423 -12 525 -12 m 423 44 q 694 374 694 44 q 423 706 694 706 q 151 376 151 706 q 423 44 151 44 m 528 953 q 474 960 500 953 q 412 981 448 967 q 359 1000 379 994 q 317 1006 338 1006 q 254 994 283 1006 q 199 956 225 982 l 199 1010 q 317 1053 244 1053 q 372 1046 346 1053 q 434 1025 398 1039 q 487 1007 467 1013 q 528 1001 508 1001 q 592 1013 563 1001 q 647 1050 621 1024 l 647 996 q 528 953 602 953 m 391 1148 l 544 1339 l 619 1339 l 454 1148 l 391 1148 z "},"ṏ":{"ha":846,"x_min":87,"x_max":760,"o":"m 423 -12 q 176 83 265 -12 q 87 376 87 178 q 128 592 87 506 q 245 720 170 678 q 423 762 321 762 q 670 667 581 762 q 760 376 760 572 q 718 158 760 245 q 600 30 676 72 q 423 -12 525 -12 m 423 44 q 694 374 694 44 q 423 706 694 706 q 151 376 151 706 q 423 44 151 44 m 528 953 q 474 960 500 953 q 412 981 448 967 q 359 1000 379 994 q 317 1006 338 1006 q 254 994 283 1006 q 199 956 225 982 l 199 1010 q 317 1053 244 1053 q 372 1046 346 1053 q 434 1025 398 1039 q 487 1007 467 1013 q 528 1001 508 1001 q 592 1013 563 1001 q 647 1050 621 1024 l 647 996 q 528 953 602 953 m 254 1188 q 218 1201 232 1188 q 205 1237 205 1215 q 218 1273 205 1259 q 254 1287 232 1287 q 290 1273 276 1287 q 304 1237 304 1259 q 290 1201 304 1215 q 254 1188 276 1188 m 592 1188 q 556 1201 569 1188 q 542 1237 542 1215 q 556 1273 542 1259 q 592 1287 569 1287 q 627 1273 614 1287 q 641 1237 641 1259 q 627 1201 641 1215 q 592 1188 614 1188 z "},"ȭ":{"ha":846,"x_min":87,"x_max":760,"o":"m 423 -12 q 176 83 265 -12 q 87 376 87 178 q 128 592 87 506 q 245 720 170 678 q 423 762 321 762 q 670 667 581 762 q 760 376 760 572 q 718 158 760 245 q 600 30 676 72 q 423 -12 525 -12 m 423 44 q 694 374 694 44 q 423 706 694 706 q 151 376 151 706 q 423 44 151 44 m 528 953 q 474 960 500 953 q 412 981 448 967 q 359 1000 379 994 q 317 1006 338 1006 q 254 994 283 1006 q 199 956 225 982 l 199 1010 q 317 1053 244 1053 q 372 1046 346 1053 q 434 1025 398 1039 q 487 1007 467 1013 q 528 1001 508 1001 q 592 1013 563 1001 q 647 1050 621 1024 l 647 996 q 528 953 602 953 m 199 1213 l 199 1263 l 647 1263 l 647 1213 l 199 1213 z "},"œ":{"ha":1383,"x_min":87,"x_max":1312,"o":"m 1312 351 l 754 351 q 1062 43 763 43 q 1274 81 1156 43 l 1274 24 q 1056 -12 1163 -12 q 842 40 926 -12 q 721 197 757 92 q 608 40 686 92 q 419 -12 531 -12 q 175 83 264 -12 q 87 376 87 179 q 128 592 87 506 q 244 720 169 678 q 419 762 319 762 q 611 711 533 762 q 722 556 688 660 q 825 710 753 658 q 1006 762 898 762 q 1232 664 1153 762 q 1312 377 1312 566 l 1312 351 m 1004 708 q 754 403 761 708 l 1249 403 q 1004 708 1242 708 m 420 44 q 619 123 549 44 q 690 374 690 203 q 420 706 690 706 q 151 376 151 706 q 222 124 151 203 q 420 44 292 44 z "},"p":{"ha":863,"x_min":133,"x_max":776,"o":"m 133 751 l 188 751 l 194 659 l 198 659 q 307 735 242 708 q 446 762 371 762 q 686 672 597 762 q 776 390 776 581 q 372 -12 776 -12 q 196 3 289 -12 l 196 -306 l 133 -306 l 133 751 m 373 44 q 628 127 544 44 q 712 383 712 210 q 639 629 712 553 q 438 705 566 705 q 304 676 367 705 q 196 586 242 648 l 196 65 q 279 50 233 56 q 373 44 326 44 z "},"þ":{"ha":863,"x_min":133,"x_max":776,"o":"m 133 1122 l 196 1122 l 196 660 l 200 660 q 310 735 246 709 q 450 762 374 762 q 619 724 546 762 q 734 602 692 685 q 776 390 776 519 q 372 -12 776 -12 q 196 3 289 -12 l 196 -306 l 133 -306 l 133 1122 m 373 44 q 628 127 544 44 q 712 383 712 210 q 639 629 712 553 q 441 705 567 705 q 306 676 370 705 q 196 588 242 648 l 196 65 q 279 50 233 56 q 373 44 326 44 z "},"q":{"ha":863,"x_min":87,"x_max":730,"o":"m 667 86 l 663 86 q 552 14 617 40 q 410 -12 488 -12 q 242 26 315 -12 q 128 147 170 64 q 87 360 87 230 q 187 661 87 561 q 485 762 288 762 q 730 728 613 762 l 730 -306 l 667 -306 l 667 86 m 419 44 q 556 72 491 44 q 667 155 621 99 l 667 683 q 478 706 583 706 q 233 623 315 706 q 151 366 151 540 q 223 120 151 197 q 419 44 295 44 z "},"r":{"ha":549,"x_min":133,"x_max":538,"o":"m 133 751 l 187 751 l 192 649 l 198 649 q 316 727 245 698 q 459 757 388 757 q 538 750 502 757 l 538 690 q 458 695 504 695 q 317 666 390 695 q 196 578 244 637 l 196 0 l 133 0 l 133 751 z "},"ŕ":{"ha":549,"x_min":133,"x_max":564,"o":"m 133 751 l 187 751 l 192 649 l 198 649 q 316 727 245 698 q 459 757 388 757 q 538 750 502 757 l 538 690 q 458 695 504 695 q 317 666 390 695 q 196 578 244 637 l 196 0 l 133 0 l 133 751 m 303 876 l 489 1122 l 564 1122 l 367 876 l 303 876 z "},"ř":{"ha":549,"x_min":117,"x_max":554,"o":"m 133 751 l 187 751 l 192 649 l 198 649 q 316 727 245 698 q 459 757 388 757 q 538 750 502 757 l 538 690 q 458 695 504 695 q 317 666 390 695 q 196 578 244 637 l 196 0 l 133 0 l 133 751 m 490 1122 l 554 1122 l 367 876 l 303 876 l 117 1122 l 181 1122 l 335 915 l 490 1122 z "},"ŗ":{"ha":549,"x_min":115,"x_max":538,"o":"m 133 751 l 187 751 l 192 649 l 198 649 q 316 727 245 698 q 459 757 388 757 q 538 750 502 757 l 538 690 q 458 695 504 695 q 317 666 390 695 q 196 578 244 637 l 196 0 l 133 0 l 133 751 m 162 -125 q 201 -141 188 -125 q 215 -188 215 -157 q 206 -249 215 -216 q 182 -314 198 -283 l 142 -314 q 167 -218 163 -263 l 165 -218 q 128 -205 142 -218 q 115 -171 115 -192 q 127 -137 115 -150 q 162 -125 140 -125 z "},"ȑ":{"ha":549,"x_min":57,"x_max":538,"o":"m 133 751 l 187 751 l 192 649 l 198 649 q 316 727 245 698 q 459 757 388 757 q 538 750 502 757 l 538 690 q 458 695 504 695 q 317 666 390 695 q 196 578 244 637 l 196 0 l 133 0 l 133 751 m 188 876 l 57 1122 l 119 1122 l 244 876 l 188 876 m 426 876 l 296 1122 l 358 1122 l 483 876 l 426 876 z "},"ṛ":{"ha":549,"x_min":115,"x_max":538,"o":"m 133 751 l 187 751 l 192 649 l 198 649 q 316 727 245 698 q 459 757 388 757 q 538 750 502 757 l 538 690 q 458 695 504 695 q 317 666 390 695 q 196 578 244 637 l 196 0 l 133 0 l 133 751 m 165 -223 q 128 -210 142 -223 q 115 -174 115 -197 q 128 -139 115 -152 q 165 -125 142 -125 q 201 -139 187 -125 q 215 -174 215 -152 q 201 -210 215 -197 q 165 -223 187 -223 z "},"ȓ":{"ha":549,"x_min":119,"x_max":551,"o":"m 133 751 l 187 751 l 192 649 l 198 649 q 316 727 245 698 q 459 757 388 757 q 538 750 502 757 l 538 690 q 458 695 504 695 q 317 666 390 695 q 196 578 244 637 l 196 0 l 133 0 l 133 751 m 119 896 q 179 1055 124 996 q 334 1115 234 1115 q 449 1087 401 1115 q 523 1010 497 1059 q 551 896 548 960 l 501 896 q 455 1021 496 976 q 334 1067 414 1067 q 215 1021 254 1067 q 169 896 175 976 l 119 896 z "},"ṟ":{"ha":549,"x_min":-35,"x_max":538,"o":"m 133 751 l 187 751 l 192 649 l 198 649 q 316 727 245 698 q 459 757 388 757 q 538 750 502 757 l 538 690 q 458 695 504 695 q 317 666 390 695 q 196 578 244 637 l 196 0 l 133 0 l 133 751 m -35 -200 l -35 -151 l 365 -151 l 365 -200 l -35 -200 z "},"s":{"ha":694,"x_min":89,"x_max":630,"o":"m 326 -12 q 206 -5 261 -12 q 99 18 151 2 l 99 75 q 215 50 162 57 q 329 42 269 42 q 509 81 453 42 q 565 192 565 119 q 551 260 565 233 q 503 305 537 287 q 411 333 470 323 l 293 354 q 138 423 186 374 q 89 553 89 472 q 163 705 89 648 q 391 762 238 762 q 587 735 494 762 l 587 679 q 486 701 532 694 q 391 707 441 707 q 153 555 153 707 q 185 464 153 499 q 301 413 218 428 l 419 392 q 580 327 530 373 q 630 199 630 281 q 554 43 630 99 q 326 -12 478 -12 z "},"ś":{"ha":694,"x_min":89,"x_max":630,"o":"m 326 -12 q 206 -5 261 -12 q 99 18 151 2 l 99 75 q 215 50 162 57 q 329 42 269 42 q 509 81 453 42 q 565 192 565 119 q 551 260 565 233 q 503 305 537 287 q 411 333 470 323 l 293 354 q 138 423 186 374 q 89 553 89 472 q 163 705 89 648 q 391 762 238 762 q 587 735 494 762 l 587 679 q 486 701 532 694 q 391 707 441 707 q 153 555 153 707 q 185 464 153 499 q 301 413 218 428 l 419 392 q 580 327 530 373 q 630 199 630 281 q 554 43 630 99 q 326 -12 478 -12 m 319 876 l 504 1122 l 579 1122 l 383 876 l 319 876 z "},"ṥ":{"ha":694,"x_min":89,"x_max":630,"o":"m 326 -12 q 206 -5 261 -12 q 99 18 151 2 l 99 75 q 215 50 162 57 q 329 42 269 42 q 509 81 453 42 q 565 192 565 119 q 551 260 565 233 q 503 305 537 287 q 411 333 470 323 l 293 354 q 138 423 186 374 q 89 553 89 472 q 163 705 89 648 q 391 762 238 762 q 587 735 494 762 l 587 679 q 486 701 532 694 q 391 707 441 707 q 153 555 153 707 q 185 464 153 499 q 301 413 218 428 l 419 392 q 580 327 530 373 q 630 199 630 281 q 554 43 630 99 q 326 -12 478 -12 m 315 1094 q 280 1107 293 1094 q 266 1141 266 1119 q 280 1175 266 1162 q 315 1188 293 1188 q 350 1175 337 1188 q 364 1141 364 1162 q 351 1107 364 1119 q 315 1094 338 1094 m 319 876 l 504 1122 l 579 1122 l 383 876 l 319 876 z "},"š":{"ha":694,"x_min":89,"x_max":630,"o":"m 326 -12 q 206 -5 261 -12 q 99 18 151 2 l 99 75 q 215 50 162 57 q 329 42 269 42 q 509 81 453 42 q 565 192 565 119 q 551 260 565 233 q 503 305 537 287 q 411 333 470 323 l 293 354 q 138 423 186 374 q 89 553 89 472 q 163 705 89 648 q 391 762 238 762 q 587 735 494 762 l 587 679 q 486 701 532 694 q 391 707 441 707 q 153 555 153 707 q 185 464 153 499 q 301 413 218 428 l 419 392 q 580 327 530 373 q 630 199 630 281 q 554 43 630 99 q 326 -12 478 -12 m 506 1122 l 569 1122 l 383 876 l 319 876 l 132 1122 l 196 1122 l 351 915 l 506 1122 z "},"ṧ":{"ha":694,"x_min":89,"x_max":630,"o":"m 326 -12 q 206 -5 261 -12 q 99 18 151 2 l 99 75 q 215 50 162 57 q 329 42 269 42 q 509 81 453 42 q 565 192 565 119 q 551 260 565 233 q 503 305 537 287 q 411 333 470 323 l 293 354 q 138 423 186 374 q 89 553 89 472 q 163 705 89 648 q 391 762 238 762 q 587 735 494 762 l 587 679 q 486 701 532 694 q 391 707 441 707 q 153 555 153 707 q 185 464 153 499 q 301 413 218 428 l 419 392 q 580 327 530 373 q 630 199 630 281 q 554 43 630 99 q 326 -12 478 -12 m 351 1122 q 315 1135 328 1122 q 302 1169 302 1147 q 315 1203 302 1190 q 351 1216 328 1216 q 386 1203 373 1216 q 399 1169 399 1190 q 386 1135 399 1147 q 351 1122 373 1122 m 506 1122 l 569 1122 l 383 876 l 319 876 l 132 1122 l 196 1122 l 351 915 l 506 1122 z "},"ş":{"ha":694,"x_min":89,"x_max":630,"o":"m 630 199 q 566 53 630 108 q 375 -11 503 -2 l 375 -76 q 462 -106 431 -79 q 493 -178 493 -132 q 458 -254 493 -228 q 360 -280 423 -280 q 291 -273 326 -280 q 232 -253 256 -265 l 232 -210 q 359 -240 293 -240 q 426 -225 403 -240 q 448 -177 448 -210 q 425 -130 448 -144 q 358 -115 403 -115 l 331 -115 l 331 -12 l 326 -12 q 206 -5 261 -12 q 99 18 151 2 l 99 75 q 215 50 162 57 q 329 42 269 42 q 509 81 453 42 q 565 192 565 119 q 551 260 565 233 q 503 305 537 287 q 411 333 470 323 l 293 354 q 138 423 186 374 q 89 553 89 472 q 163 705 89 648 q 391 762 238 762 q 587 735 494 762 l 587 679 q 486 701 532 694 q 391 707 441 707 q 153 555 153 707 q 185 464 153 499 q 301 413 218 428 l 419 392 q 580 327 530 373 q 630 199 630 281 z "},"ŝ":{"ha":694,"x_min":89,"x_max":630,"o":"m 326 -12 q 206 -5 261 -12 q 99 18 151 2 l 99 75 q 215 50 162 57 q 329 42 269 42 q 509 81 453 42 q 565 192 565 119 q 551 260 565 233 q 503 305 537 287 q 411 333 470 323 l 293 354 q 138 423 186 374 q 89 553 89 472 q 163 705 89 648 q 391 762 238 762 q 587 735 494 762 l 587 679 q 486 701 532 694 q 391 707 441 707 q 153 555 153 707 q 185 464 153 499 q 301 413 218 428 l 419 392 q 580 327 530 373 q 630 199 630 281 q 554 43 630 99 q 326 -12 478 -12 m 564 876 l 500 876 l 351 1082 l 201 876 l 138 876 l 319 1122 l 383 1122 l 564 876 z "},"ș":{"ha":694,"x_min":89,"x_max":630,"o":"m 326 -12 q 206 -5 261 -12 q 99 18 151 2 l 99 75 q 215 50 162 57 q 329 42 269 42 q 509 81 453 42 q 565 192 565 119 q 551 260 565 233 q 503 305 537 287 q 411 333 470 323 l 293 354 q 138 423 186 374 q 89 553 89 472 q 163 705 89 648 q 391 762 238 762 q 587 735 494 762 l 587 679 q 486 701 532 694 q 391 707 441 707 q 153 555 153 707 q 185 464 153 499 q 301 413 218 428 l 419 392 q 580 327 530 373 q 630 199 630 281 q 554 43 630 99 q 326 -12 478 -12 m 348 -125 q 387 -141 374 -125 q 401 -188 401 -157 q 392 -249 401 -216 q 368 -314 384 -283 l 328 -314 q 353 -218 349 -263 l 351 -218 q 314 -205 328 -218 q 301 -171 301 -192 q 314 -137 301 -150 q 348 -125 326 -125 z "}}}
